<svg id="Grupo_877670" data-name="Grupo 877670" xmlns="http://www.w3.org/2000/svg" xmlns:xlink="http://www.w3.org/1999/xlink" width="131" height="130.353" viewBox="0 0 131 130.353">
  <defs>
    <clipPath id="clip-path">
      <rect id="Rectángulo_326430" data-name="Rectángulo 326430" width="131" height="130.353" fill="none"/>
    </clipPath>
  </defs>
  <g id="Grupo_877669" data-name="Grupo 877669" clip-path="url(#clip-path)">
    <path id="Trazado_618458" data-name="Trazado 618458" d="M8.824,94.112c-.2,2.056.871,3.376,1.451,4.828a9.045,9.045,0,0,0,3.253,3.711,29.19,29.19,0,0,0,4.478,2.231h2.31c.628.813,1.321,1.638,2.011,2.4a12.279,12.279,0,0,0,6.318,3.779,33.693,33.693,0,0,0,7.218.454c1.277.032,2.558.005,3.836.006,1.018,1.868,2.768,3.073,4.188,4.578,1.08.01,1.311,1.2,2.173,1.539.817.325,1.527.961,2.276,1.3a41.515,41.515,0,0,0,5.953,2.3c1.812.493,3.69.109,5.41.536,3.015.748,6.015.34,9.015.395a8.7,8.7,0,0,0,4.832-1.41c.512.4.2,1.012.216,1.53.06,1.892-.213,3.81.708,5.632a5.319,5.319,0,0,0,2.988,2.43c1.3,0,3-.035,4.694.009,1.9.048,3.343-.579,4.064-2.445.056-.144.234-.241.352-.356v-5.272H131V85.39c-2.1-2.611-4.339-5.05-6.526-7.529-1.763-2-3.39-4.138-5.356-5.965-1.526-1.419-2.408-3.417-4.318-4.636H93.342V46.052c1.186.683,2.526.16,3.873.439v4.287c1.417,3.419,3.83,4.2,7.359,3.61.734-.225,1.519-1.208,2.392-2.072,1.993-1.97,3.977-3.95,5.948-5.91,2.5,0,4.979.062,7.449-.02a6.59,6.59,0,0,0,4.79-1.983,6.848,6.848,0,0,0,1.826-4.839c.009-10.512.02-21.024-.022-31.536,0-1.028.525-2.2-.486-3.1-.2-2.322-1.679-3.544-3.706-4.316a4.093,4.093,0,0,1-.717-.5c-9.066,0-18.268-.1-27.465.059a5.774,5.774,0,0,0-5.525,4.575,24.88,24.88,0,0,0-.443,5.144c-.01,4.821,0,9.643,0,14.781-1.222-1.92-2.3-3.566-3.329-5.242A23.626,23.626,0,0,0,81.3,14.461c-.435-.406-.861-.824-1.266-1.259A42.432,42.432,0,0,0,67.179,4.157c-2.571-1.254-5.373-1.83-7.96-3-1.6.29-3.033-.864-4.638-.532-2.343-.99-4.8-.38-7.207-.481-1.24-.052-2.592-.4-3.725.225s-2.544-.319-3.523.764c-2.143-.029-4.049.807-6.025,1.5-5.12,1.786-6.228,2.677-10.178,5.053a40.435,40.435,0,0,0-9.446,8.53,40.107,40.107,0,0,0-8.219,15.15,59.776,59.776,0,0,0-1.625,8c-.788,5.281-.29,10.552-.409,15.824C4.1,60.438,4.075,65.7,4.247,70.95A10.325,10.325,0,0,1,1.88,78.363,8.763,8.763,0,0,0,.2,82.513a7.529,7.529,0,0,0,.2,4.176,10.17,10.17,0,0,0,2.564,4.546c.983.877,1.783,1.989,3.069,2.467a3.84,3.84,0,0,0,2.787.41" transform="translate(0 0)" fill="#040506"/>
    <path id="Trazado_618459" data-name="Trazado 618459" d="M31.093,22.284c.6-.911-.191-1.63-.551-2.205-.447-.714-.088-1.679-1-2.222.948-1.577,2.732-.846,3.843-1.847A36.577,36.577,0,0,0,35.5,20.268c1.2,1.782,2.271,3.611,4.213,4.91a50.138,50.138,0,0,0,4.317,2.593,16.251,16.251,0,0,0,4.58,1.3c3.675.738,7.368.394,11.051.454,3.665.06,7.336.114,11-.02a10,10,0,0,1,6.656,2.444A11.3,11.3,0,0,1,81.287,36.9a13.1,13.1,0,0,1,1.091,4.387c-.013,7.97-.04,15.938.028,23.907.011,1.325-1.211,2.454-.264,3.929h8.253c.4-.483.147-1.182.149-1.817.022-7.714,0-15.429.02-23.144a32.47,32.47,0,0,0-2.291-11.522,38.732,38.732,0,0,0-8.051-13.249c-1.4-1.487-2.963-2.774-4.413-4.185a24.6,24.6,0,0,0-4.124-2.949A35.9,35.9,0,0,0,61.96,7.981c-1.4-.381-2.89-.543-4.225-.943-1.356-.407-2.637-.152-3.914-.4a11.634,11.634,0,0,0-3.884-.492c-5,.69-9.968,1.316-14.75,3.276-3.226,1.323-5.906,3.4-8.933,4.959-1.609,2.1-4.437,2.981-5.576,5.544a18.835,18.835,0,0,0-4.092,5.2,18.021,18.021,0,0,0-2.216,4.155c-.444,1.439-1.416,2.605-1.709,4.146-.384,2.016-.989,4-1.491,6a26.11,26.11,0,0,0-.4,6.424c-.052,8.731-.033,17.464-.016,26.2A19.572,19.572,0,0,1,8.2,81.417c-.584,1.022-1.706,1.8-1.544,3.178-1.322,1.962.037,3.584.931,5.032A5.007,5.007,0,0,0,12.9,92.121a6.887,6.887,0,0,1,1.174-.01l.786.781c-.2,2.747.2,5.425,2.506,7.653,2.337,2.262,5.1,2.373,8.028,2.212,1.017,2.841,2.647,5.047,5.886,6.067h6.944c.34-.55-.1-.777-.263-1.133A16.092,16.092,0,0,1,36.393,102c-.057-.936-.823-1.594-.612-2.59a9.228,9.228,0,0,0,.025-2.535c-.161-2.205.828-4.055,1.912-5.821a10.106,10.106,0,0,1,1.126-1.808,23.171,23.171,0,0,1-10.568-5.939,32.146,32.146,0,0,1-4.746-5.15,37.929,37.929,0,0,1-4.17-10.26,22.644,22.644,0,0,1-.409-5.4q-.063-12.97,0-25.941a13.882,13.882,0,0,1,4-9.813c1.8-1.9,4.04-2.916,6.232-4.126.653-.361,1.337.084,1.912-.331" transform="translate(-1.945 -1.957)" fill="#525b66"/>
    <path id="Trazado_618460" data-name="Trazado 618460" d="M128.463,137.373c1.156,3.292.322,6.663.653,9.891-.762,1.315-2.019,2.248-2.183,3.806,2.215.38,33.458.507,40.423.176V122.521l-.745-.74H152.62v-16c-.432-.252-.555-.74-1.078-.739-6.111.008-12.221.005-18.514.005,2.645,2.965,5.053,5.761,6.076,9.419,1.093,4.577,1.1,9.1-1.066,13.482a20.482,20.482,0,0,1-9.575,9.421" transform="translate(-40.453 -33.719)" fill="#ffe594"/>
    <path id="Trazado_618461" data-name="Trazado 618461" d="M165.925,7.345l-1.23-1.19c-8.2,0-16.46.015-24.716-.016a3.972,3.972,0,0,0-3.1,1.251V43.171c2.451,1.769,5.292.9,8.047,1.2V51.3l.8,1.038,7.988-7.964h10.2c.705-.445,1.474-.562,2.008-1.287Z" transform="translate(-43.623 -1.971)" fill="#e0e4e9"/>
    <path id="Trazado_618462" data-name="Trazado 618462" d="M71.659,104.135c1.8-7.366,6.489-11.921,13.19-14.194.944-2.386.659-4.648,1.24-7.175-5.79,5.315-11.968,5.607-18.534,2.393-5.008-3.924-7.69-8.884-6.815-15.5l-1.707-1.232H57.693L56.9,69.759l-.249-.243a1.932,1.932,0,0,0-.122.456A14.636,14.636,0,0,0,56.54,72c.264,2.17-.542,4.166-1.1,6.17a8.032,8.032,0,0,1-1.881,3.015,18.488,18.488,0,0,1-4.651,4.137A13.923,13.923,0,0,1,43.05,87.2a15.215,15.215,0,0,1-7.819-1.487,9.854,9.854,0,0,1-2.806-1.858c-.327-.333-.544-.944-1.256-.677-.052.083-.235.242-.208.348a25.781,25.781,0,0,1,.559,4.107A14.781,14.781,0,0,0,32.68,91.2a25.313,25.313,0,0,0,3.91,6.54,20.741,20.741,0,0,0,8.59,6.36,19.137,19.137,0,0,0,7.89,1.929c3.832-.053,7.67.094,11.5-.052a17.24,17.24,0,0,0,7.092-1.841" transform="translate(-9.866 -21.965)" fill="#efc5a5"/>
    <path id="Trazado_618463" data-name="Trazado 618463" d="M78.4,146.727c-.909-1.035-2.7-.608-3.491-1.941-2.7-1.293-3.742-3.859-4.877-6.336a13.129,13.129,0,0,1-.592-2.564,6.875,6.875,0,0,0-3.647-4.871,5.848,5.848,0,0,1-.7-.5c-.721,0-1.569.05-2.409-.009-2.992-.21-5.414,1.319-6.452,4.665-.389,1.255-1.116,2.592-.023,3.893a11.1,11.1,0,0,0,1.021,5.425,22.009,22.009,0,0,0,4.332,7.364c2.219,2.3,4.461,4.527,7.612,5.656,2.73.978,5.389,2.057,8.367,2.014,3.569-.052,7.139-.012,10.643-.012l1.215-1.208V148l-.79-.785c-.093-.087-.55.067-.938.1-3.109.278-6.153-.456-9.267-.588" transform="translate(-17.728 -41.885)" fill="#ffcd58"/>
    <path id="Trazado_618464" data-name="Trazado 618464" d="M86.019,51.05c.375-.452-.379-.519-.382-.942-.022-3.088-2.053-4.834-4.47-6.224a6.746,6.746,0,0,0-3.459-.915c-6.138.039-12.276.011-18.414.02a23.543,23.543,0,0,1-11.286-3.007c-2.2-1.17-3.766-2.937-5.639-4.678A13.849,13.849,0,0,0,34.6,38.492c-2.65,2.387-3.471,5.375-3.66,8.684a35.21,35.21,0,0,0,.039,4.27c2.128-1.442,3.757-2.973,6.007-3.622a15.986,15.986,0,0,1,6.825-.708A15.167,15.167,0,0,1,49.9,49.643a14.212,14.212,0,0,1,4.7,5.086c1.956-1.687,4.2-.847,6.237-1.078.3.251.465.546.877.548.206,0,.41.232.653.382.067-.036.23-.069.3-.167a18.457,18.457,0,0,1,5.013-5.04,16.094,16.094,0,0,1,5.96-2.266c3.065-.621,5.957.546,8.769,1.591a10.1,10.1,0,0,1,2.515,1.934c.317.261.551.658,1.109.416" transform="translate(-9.846 -11.332)" fill="#efc5a5"/>
    <path id="Trazado_618465" data-name="Trazado 618465" d="M111.284,104.7a2.852,2.852,0,0,1-1.916.76c-3.03-.226-5.386,1.365-7.684,2.978A13.483,13.483,0,0,0,96.9,115.33a11.018,11.018,0,0,0-.264,7.415,32.23,32.23,0,0,0,1.2,3.824,14.569,14.569,0,0,0,8.346,7.223,14.861,14.861,0,0,0,9.416.007c3.858-1.2,6.236-4.012,8.527-7.006.116-1.443,1.478-2.491,1.269-4.051-.13-.981.646-1.772.537-2.837-.661-6.416-3.316-11.716-10.918-14.307a8.687,8.687,0,0,0-2.236-.151c-.569-.033-1.237.234-1.489-.75" transform="translate(-30.629 -33.607)" fill="#bfc6d0"/>
    <path id="Trazado_618466" data-name="Trazado 618466" d="M51.853,72.753c0-.53.031-1.122-.009-1.71a1.283,1.283,0,0,1,.576-1.367c-.193-.734-.575-1.136-.6-1.767a8.057,8.057,0,0,0-2.312-5.148,10.383,10.383,0,0,0-8.3-3.523,9.926,9.926,0,0,0-9.822,8.173c-1.261,1.809-.39,3.75.146,5.37a8.892,8.892,0,0,0,2.941,4.627,13.147,13.147,0,0,0,4.678,2.274,7.659,7.659,0,0,0,3.839.4,17.48,17.48,0,0,0,5.765-2.7,11.826,11.826,0,0,0,2.55-3.771c.153-.3.347-.534.546-.855" transform="translate(-9.796 -19.015)" fill="#5ec0e5"/>
    <path id="Trazado_618467" data-name="Trazado 618467" d="M101.529,72.776a4.946,4.946,0,0,1,.514-2.973c-.508-2.065-.525-4.283-1.955-6.057a24.708,24.708,0,0,0-3.04-3.026,5.821,5.821,0,0,0-3.267-1.3,17.664,17.664,0,0,0-6.443.356c-1.611.452-2.316,1.933-3.713,2.523-.091,1.016-1.12,1.346-1.6,2.127a10.016,10.016,0,0,0-1.359,5,10.375,10.375,0,0,0,1.457,5.448,12.808,12.808,0,0,0,5.683,4.645,10.086,10.086,0,0,0,9.176-1.17c2.2-1.511,2.2-1.511,4.542-5.575" transform="translate(-25.709 -19.033)" fill="#5ec0e5"/>
    <path id="Trazado_618468" data-name="Trazado 618468" d="M86.478,128.185c-2.554.506-4.92,1.537-7.8.9,1.652,2.33,2.01,4.681,2.779,6.878-.568,1.226.61,1.871,1.085,2.587a7.244,7.244,0,0,0,6.395,3.44c1.421-.02,2.843,0,4.64,0-4.437-3.73-6.806-8.069-7.1-13.8" transform="translate(-25.074 -41.146)" fill="#eadee1"/>
    <path id="Trazado_618469" data-name="Trazado 618469" d="M119.631,155.342h-6.449l-1.064,1.737v6.264h6.91l1.269-1.235c-.292-2.241.489-4.619-.666-6.766" transform="translate(-35.731 -49.864)" fill="#eec4a5"/>
    <path id="Trazado_618470" data-name="Trazado 618470" d="M170.678,110.5v8.917h7.731l-7.731-8.917" transform="translate(-54.394 -35.47)" fill="#e35b72"/>
    <path id="Trazado_618471" data-name="Trazado 618471" d="M115.164,181.825h3.93V173.28c-1.217-.132-2.534-.019-3.93-.068Z" transform="translate(-36.702 -55.6)" fill="#828c98"/>
    <path id="Trazado_618472" data-name="Trazado 618472" d="M170.63,153.049l.646-.642v-3.174l-.654-.65H152.017v3.883l.587.583Z" transform="translate(-48.447 -47.694)" fill="#0f0e0a"/>
    <path id="Trazado_618473" data-name="Trazado 618473" d="M171.23,165.269v-3.906H151.892c-.136,1.207-.02,2.517-.07,3.906Z" transform="translate(-48.385 -51.796)" fill="#070707"/>
    <path id="Trazado_618474" data-name="Trazado 618474" d="M171.206,140.544v-3.9H151.92c-.294,1.193.032,2.512-.169,3.9Z" transform="translate(-48.362 -43.862)" fill="#070707"/>
    <path id="Trazado_618475" data-name="Trazado 618475" d="M151.261,17.939l-4.837,4.809L149.6,25.9c1.743-1.249,3.129-3.072,4.824-4.561l4.708,4.682a24.408,24.408,0,0,0,3.195-2.89l-4.728-4.7c1.375-1.97,3.256-3.306,4.475-4.757l-2.784-2.885-4.561,4.535-4.912-4.886c-1.415.68-2.09,2.048-3.261,2.825l4.7,4.673" transform="translate(-46.665 -3.351)" fill="#060607"/>
    <path id="Trazado_618476" data-name="Trazado 618476" d="M152.659,44l-2.53-2.539-2.942,2.97a17.422,17.422,0,0,0,2.667,2.872c.873.923,1.8,1.8,2.6,2.592L164.407,38l-2.742-2.724a39.985,39.985,0,0,0-4.484,4.236c-1.535,1.462-3.014,2.983-4.523,4.483" transform="translate(-46.908 -11.324)" fill="#060707"/>
    <path id="Trazado_618477" data-name="Trazado 618477" d="M60.416,104.294v-2.165H56.054a10.164,10.164,0,0,0,9.083,10.516c5.482.776,10.969-2.216,12.21-10.53-1.5-.124-2.986-.029-4.56-.068V103.9c-1.273,3.075-3.512,4.217-6.455,4.682-4.826-1.511-4.327-2.119-5.916-4.285" transform="translate(-17.864 -32.756)" fill="#080707"/>
    <path id="Trazado_618478" data-name="Trazado 618478" d="M123.194,125.3c.3-.882.075-1.728.468-2.659.507-1.2-.548-2.589-.737-3.907-.274-1.9-1.552-3-2.758-4.212a7.7,7.7,0,0,0-4.068-2.481c-3.355-.56-6.753-.883-9.463,1.815-.406.4-1.171.15-1.3.93-.161,1.014-1.217,1.418-1.664,2.354-1.226,2.567-1.893,5.1-.874,7.854,1.13,3.054,2.892,5.641,6.1,6.763a10.613,10.613,0,0,0,6.391.531,12.934,12.934,0,0,0,5.6-3.163c.94-.838,1.213-2.049,1.82-3.07a8.6,8.6,0,0,1,.478-.755" transform="translate(-32.604 -35.841)" fill="#050606"/>
    <path id="Trazado_618479" data-name="Trazado 618479" d="M44.52,65.323c-1.75.054-3.835-.362-5.636.581a6.5,6.5,0,0,0-2.359,1.675,9.469,9.469,0,0,0-1.91,2.994c-.36,1.534-1.147,3.085-.566,4.841h4.338V72.572c.751-1.5,1.459-2.654,3.453-3.139,2.845-.076,3.182.094,4.924,2.872v3.14h3.884c.929-4.932-1.165-8.161-6.127-10.121" transform="translate(-10.785 -20.954)" fill="#040607"/>
    <path id="Trazado_618480" data-name="Trazado 618480" d="M83.62,75.519H88.05c-.013-2.45-.116-5.027,3.323-6.114a4.5,4.5,0,0,1,4.058,1.431c1.2,1.338.76,2.948.884,4.579h4.58a12.942,12.942,0,0,0-2.24-7.434c-.692-1.056-3.984-2.642-5.284-2.618a11.224,11.224,0,0,0-5.017.852,6.932,6.932,0,0,0-4.019,4.7c-.394,1.449-1.134,2.865-.715,4.607" transform="translate(-26.609 -20.981)" fill="#040708"/>
    <path id="Trazado_618481" data-name="Trazado 618481" d="M109.09,126.232c3.2,5.533,8.954,5.5,12.067.1.759-4-.518-6.891-4.4-8.545a6.878,6.878,0,0,0-6,1.583c-1.887,1.81-1.945,4.2-1.663,6.861" transform="translate(-34.727 -37.774)" fill="#5ec1e5"/>
  </g>
</svg>
