<svg xmlns="http://www.w3.org/2000/svg" xmlns:xlink="http://www.w3.org/1999/xlink" width="85" height="85" viewBox="0 0 85 85">
  <defs>
    <clipPath id="clip-path">
      <rect id="Rectángulo_326257" data-name="Rectángulo 326257" width="39.678" height="44.554" fill="none"/>
    </clipPath>
  </defs>
  <g id="Grupo_878178" data-name="Grupo 878178" transform="translate(-810 -5698)">
    <circle id="Elipse_5184" data-name="Elipse 5184" cx="42.5" cy="42.5" r="42.5" transform="translate(810 5698)" fill="#ced371"/>
    <g id="Grupo_877434" data-name="Grupo 877434" transform="translate(833 5718)">
      <g id="Grupo_877433" data-name="Grupo 877433" clip-path="url(#clip-path)">
        <path id="Trazado_617254" data-name="Trazado 617254" d="M14.447,42.986h.975l.233.233v.653l.365.6c.476.219.624-.18.869-.388v-.857c.1-.177.41.038.382-.258h.794a2.238,2.238,0,0,0,.258,1A1.3,1.3,0,0,0,18.9,44l.4-.4v-.7c.051-.051.077-.093.091-.089.38.093.682-.246,1.114-.181a.9.9,0,0,0,.515.867c.2-.119.465-.144.631-.339a11.466,11.466,0,0,0,2.7,1.03c.4.128.853.083,1.221.207a4.583,4.583,0,0,0,1.331.135,8.456,8.456,0,0,0,1.3,0,13.48,13.48,0,0,0,3.255-.745,11.129,11.129,0,0,0,4.275-2.7A11.487,11.487,0,0,0,37.5,39.12a11.77,11.77,0,0,0,1.463-2.955,17.232,17.232,0,0,0,.571-2.647,8.5,8.5,0,0,0,.123-1.756,16.624,16.624,0,0,0-.935-4.3,12.921,12.921,0,0,0-3.483-4.808,10.964,10.964,0,0,0-1.812-1.268,12.732,12.732,0,0,0-2.42-1.094,1.126,1.126,0,0,0-.3-.111A1.907,1.907,0,0,1,29.056,19.1a1.6,1.6,0,0,0-.336-.383,21.749,21.749,0,0,0-2.746-2.184c-.9-.611-1.857-1.129-2.766-1.726a4.407,4.407,0,0,1-1.973-3.187c-.043-.3-.255-.55-.181-.885a7.1,7.1,0,0,1,1.882-4.009,5.673,5.673,0,0,1,1.807-1.314c.3-.11.263-.411.448-.586.02-.153-.216-.226-.166-.372a5.091,5.091,0,0,0-2.2-.767,5.2,5.2,0,0,0-2.314.251,17.788,17.788,0,0,0-2.152,1.022c-.415-1.574-1.05-3-1.55-4.569-.127-.109-.245-.417-.663-.386-.227.172-.529.336-.478.755A22.081,22.081,0,0,0,14.44,4.162a1.412,1.412,0,0,1-.425.708,6.738,6.738,0,0,0-2.959-1.2A4.071,4.071,0,0,0,8.9,3.91c-.47.192-1.054.166-1.4.727v.519c.065.065.116.161.19.182a4.762,4.762,0,0,1,1.839,1.2A6.171,6.171,0,0,1,11.13,9.078a6,6,0,0,1,.351,2.633,4.51,4.51,0,0,1-1.133,2.4,5.547,5.547,0,0,1-1.955,1.371,13.091,13.091,0,0,0-3.907,2.745,16.8,16.8,0,0,0-2.162,2.494A12.773,12.773,0,0,0,.7,24.049,16.15,16.15,0,0,0,.143,26.7a6.6,6.6,0,0,0-.115,1.755c.138.919.222,1.844.437,2.762a14.289,14.289,0,0,0,1.348,3.36,8.363,8.363,0,0,0,1.711,2.419c.279.251.386.609.665.863a18.837,18.837,0,0,0,5.5,3.745c.422.171.834.367,1.266.558v.908l.462.337c.2.151.391.085.576-.166v-.6a2.028,2.028,0,0,1,1.412.234V43.9c.218.367.517.288.8.271l.246-.246c0-.29,0-.58,0-.94" transform="translate(0 0)" fill="#272727"/>
        <path id="Trazado_617255" data-name="Trazado 617255" d="M143.26,68.406c.031.871-.11,1.676.63,2.4a2.981,2.981,0,0,0,2.351.619,2.5,2.5,0,0,0,1.726-2.7,3.037,3.037,0,0,0-1.967-2,2.476,2.476,0,0,0-2.74,1.679" transform="translate(-110.026 -51.244)" fill="#282828"/>
        <path id="Trazado_617256" data-name="Trazado 617256" d="M11.753,39.185a3.394,3.394,0,0,0-1.17-.925c-.25,0-.6.006-.941,0A2.266,2.266,0,0,0,7.454,40.3a2.209,2.209,0,0,0,.6,1.908,1.881,1.881,0,0,0,1.591.749c.283-.034.575-.006.842-.034a2.528,2.528,0,0,0,1.654-1.771,3.208,3.208,0,0,0-.386-1.972" transform="translate(-5.699 -29.383)" fill="#282828"/>
        <path id="Trazado_617257" data-name="Trazado 617257" d="M121,14.272c-.393.449-.249.921-.3,1.376-.459.055-.931-.088-1.34.268l-.248.536.574.336-.091.1h1.08V17.95c.252.248.394.574.8.493.546-.369.458-.956.454-1.535h1.107l.282-.282v-.692c-.123-.168-.536-.264-1.361-.3v-.9l-.459-.461Z" transform="translate(-91.477 -10.961)" fill="#2a2929"/>
        <path id="Trazado_617258" data-name="Trazado 617258" d="M45.422,51.777a1.671,1.671,0,0,1,.629-1.219c.238-.039.338.274.553.254.207.745-.2,1.446-.138,2.183a2.417,2.417,0,0,0,1.578,2.179c.359-.086.463-.407.615-.68a13.31,13.31,0,0,1,10.57-7.2c.252-.029.623.066.633-.388a17.267,17.267,0,0,0-3.051-1.925,6.662,6.662,0,0,1-2.851-2.757A3.967,3.967,0,0,1,53.432,40c-.61.448-.8,1.154-1.471,1.354-.347-.381-.824-.678-.8-1.3l-1.442-2.774a13.93,13.93,0,0,0-1.168,2.662,2.242,2.242,0,0,0-.218.913,4.887,4.887,0,0,1-2.942,4.244c-.675.351-1.478.541-1.877,1.3a9.324,9.324,0,0,0,1.536,5.213.314.314,0,0,0,.368.156" transform="translate(-33.41 -28.637)" fill="#a34a92"/>
        <path id="Trazado_617259" data-name="Trazado 617259" d="M28.141,81.71a7.3,7.3,0,0,1-.879-1.668,18.5,18.5,0,0,1-.8-2.534,5.1,5.1,0,0,1-.06-1.191.377.377,0,0,0-.41.01,8.168,8.168,0,0,0-3.243,3.121,13.323,13.323,0,0,0-1.356,3.52,8.283,8.283,0,0,0-.383,2.107c0,.754-.017,1.508,0,2.261a14.565,14.565,0,0,0,1.129,5.008,21.118,21.118,0,0,0,1.629,3.068c.185.309.433.565.627.86a9.546,9.546,0,0,0,2.081,2.26,12.829,12.829,0,0,0,1.492,1.2,3.675,3.675,0,0,0,1.315.376c.3.045.586.434.949.121-.346-.283-.642-.6-1.017-.868a18.254,18.254,0,0,1-1.772-1.947c-.046-.392-.554-.485-.578-.891A13.862,13.862,0,0,1,24.5,91.942a22.142,22.142,0,0,1-.741-3.18,18.762,18.762,0,0,1-.107-3.846,11.791,11.791,0,0,1,.58-3.05c.154-.505.21-1.036.69-1.353.53-.175.556.328.763.589-.241.2-.237.541-.3.8a8.913,8.913,0,0,1-.306,1.183c-.154.4.093.847-.231,1.214-.086.1-.013.336-.013.51,0,.956,0,1.913,0,2.869,0,.371-.1.815.071,1.095.2.341-.112.775.275,1.022a7.106,7.106,0,0,0,.723,2.659,20.154,20.154,0,0,0,1.181,2.378,15.3,15.3,0,0,0,1.438,2.093,7.953,7.953,0,0,0,1.721,1.6c-.21-.505-.415-1.013-.631-1.516a19.387,19.387,0,0,1-.95-2.823,3.84,3.84,0,0,1-.35-1.594c-.3-.246-.038-.657-.2-.867-.213-.282-.067-.56-.158-.812a14.367,14.367,0,0,1-.189-1.838,16.954,16.954,0,0,1-.13-3.672,13.275,13.275,0,0,0,.152-1.493c-.063-.512.255-.968.2-1.5-.02-.2.181-.449.148-.708" transform="translate(-16.129 -58.57)" fill="#9a4790"/>
        <path id="Trazado_617260" data-name="Trazado 617260" d="M10.518,57.918c.41-.1.371-.58.682-.788.279-.187.471-.5.739-.71a10.423,10.423,0,0,1,2.233-1.633A7.164,7.164,0,0,1,16.3,53.575a6.53,6.53,0,0,0,1.261-.911,5.168,5.168,0,0,0,.782-1.049,4.063,4.063,0,0,0,.664-1.452,8.156,8.156,0,0,0,.031-1.812c-.312.2-.348.577-.508.871-.072.132-.184.209-.256.337h-.526a4.426,4.426,0,0,1-1.1-1.332,6.226,6.226,0,0,1-.254,1.289,4.117,4.117,0,0,1-.777,1.677,6.011,6.011,0,0,1-2.215,2,15.9,15.9,0,0,0-2.8,1.63,14.471,14.471,0,0,0-3.588,3.784c-.537.851-.884,1.782-1.339,2.666,0,.669-.5,1.236-.387,1.927a6.4,6.4,0,0,0-.152,2.709,11.342,11.342,0,0,0,.984,3.933,15.352,15.352,0,0,0,2.028,3.323,8.436,8.436,0,0,0,2.106,2c.349.22.58.61.978.794a.548.548,0,0,0,.241.043c.128-.129.1-.242-.024-.36a8.478,8.478,0,0,1-1.05-1.39,16.974,16.974,0,0,1-1.988-4.048c-.289-.819-.386-1.685-.685-2.5a.325.325,0,0,1,0-.087,20.478,20.478,0,0,1-.16-3.752,17.175,17.175,0,0,1,1.3-5.11c.179-.385.3-.806.512-1.178a1.886,1.886,0,0,1,.34-.35h.537l.254.253v.435" transform="translate(-3.9 -37.04)" fill="#893e85"/>
        <path id="Trazado_617261" data-name="Trazado 617261" d="M91.416,100.942a8.975,8.975,0,0,0-.714-3.964,9.211,9.211,0,0,0-1.652-2.886,12.331,12.331,0,0,0-1.193-1.317,13.23,13.23,0,0,0-1.843-1.416,13.387,13.387,0,0,0-2.716-1.2,12.155,12.155,0,0,0-4.455-.344,10.9,10.9,0,0,0-4.872,1.863,10.575,10.575,0,0,0-1.7,1.349,10.214,10.214,0,0,0-2.457,3.848,10.384,10.384,0,0,0-.83,2.7,1.364,1.364,0,0,0-.006.432c0,.521.024,1.044-.005,1.564a10.169,10.169,0,0,0,.641,3.213,10.876,10.876,0,0,0,3.326,4.872,12.1,12.1,0,0,0,2.317,1.531,11.051,11.051,0,0,0,2.5.875,20.842,20.842,0,0,0,4.186.176c.761-.271,1.557-.416,2.327-.673a10.617,10.617,0,0,0,2.875-1.639,10.1,10.1,0,0,0,1.9-1.96,11.337,11.337,0,0,0,1.43-2.373,9.8,9.8,0,0,0,.808-2.629c.1-.679.089-1.347.135-2.017" transform="translate(-52.961 -68.917)" fill="#c790c0"/>
        <path id="Trazado_617262" data-name="Trazado 617262" d="M70.238,78.753c-.061.339-.328.168-.485.164a14.355,14.355,0,0,0-3.616.717c-.866.6-1.912.87-2.762,1.52a12.438,12.438,0,0,0-1.381,1.057c-.244.247-.481.5-.738.735a11.291,11.291,0,0,0-2.672,3.844c-.037.083-.066.157-.176.137a1.441,1.441,0,0,0-.528.866,12.171,12.171,0,0,0-.605,6.871,13.123,13.123,0,0,0,.437,1.655c.042.221-.08.457.06.669.29.438.183,1.054.636,1.419.2.148.16.421.3.6.485.821.745,1.8,1.609,2.358a3.932,3.932,0,0,0,.718-1.371,12.974,12.974,0,0,1-1.908-3.762,22.259,22.259,0,0,1-.415-2.2c-.018-.485-.081-1-.146-1.493-.073-.554.226-1.04.192-1.582a5.747,5.747,0,0,1,.309-1.515,10.036,10.036,0,0,1,.889-2.421A12.013,12.013,0,0,1,63.05,83.1a10.623,10.623,0,0,1,2.812-1.8,16.675,16.675,0,0,1,2.53-.83,6.145,6.145,0,0,1,1.324-.152,5.775,5.775,0,0,1,1.507-.093c.169-.017.435.089.406-.255-.558-.3-.834-.919-1.392-1.217" transform="translate(-43.787 -60.483)" fill="#893e85"/>
        <path id="Trazado_617263" data-name="Trazado 617263" d="M55.583,114.9a6.3,6.3,0,0,0-.145-1.759,1.114,1.114,0,0,1,.1-1.063c.1-.129.046-.277.045-.413a11.552,11.552,0,0,1,.793-3.744,2.269,2.269,0,0,0,.254-.849,2.853,2.853,0,0,1-.888-.93,2.88,2.88,0,0,0-.678-.629v-.529c-.109-.02-.18.052-.169.136.109.856-.25,1.671-.191,2.529s-.01,1.733.022,2.6a3.751,3.751,0,0,0,.139,1.5c.18.411-.084.936.184,1.4.1.173.016.453.016.684,0,.2.256.3.176.535-.092.267.254.437.172.707.155.039.241.009.174-.174" transform="translate(-42.006 -80.626)" fill="#9a478f"/>
        <path id="Trazado_617264" data-name="Trazado 617264" d="M42.779,22.238a6.711,6.711,0,0,1,2.244,3.25c.087.234.339.314.358.541a.454.454,0,0,0,.229.336c.475.349.656.971,1.236,1.351.137-.425.457-.7.456-1.129.363-.668.027-1.236-.292-1.78a5.389,5.389,0,0,0-3.477-2.78c-.254-.058-.624-.278-.754.212" transform="translate(-32.855 -16.84)" fill="#8fb740"/>
        <path id="Trazado_617265" data-name="Trazado 617265" d="M78,27.1a1.12,1.12,0,0,0,.171.71c.159.277.292.569.436.853.67-.575,1.014-1.412,1.582-1.938a11.161,11.161,0,0,1,.927-1.97c.306-.592.9-.924,1.234-1.482.028-.212-.118-.228-.264-.223A5,5,0,0,0,78,27.1" transform="translate(-59.901 -17.706)" fill="#8fb740"/>
        <path id="Trazado_617266" data-name="Trazado 617266" d="M76.215,25.451c.143-.346.271-.7.433-1.037A5.552,5.552,0,0,1,78.256,22.5a7.711,7.711,0,0,1,2.248-1.02c.011,0,.048.035.058.059a.236.236,0,0,1,0,.086c.305-.12.452-.419.743-.633a5.348,5.348,0,0,0-3.133.345,4.557,4.557,0,0,0-2.055,1.878,1.794,1.794,0,0,0-.4,1.474c.253.182.176.6.5.763" transform="translate(-58.114 -16.052)" fill="#76a425"/>
        <path id="Trazado_617267" data-name="Trazado 617267" d="M40.691,21.539c-.02-.11.065-.194.135-.167a9.6,9.6,0,0,1,1.755.586,8.6,8.6,0,0,1,1.883,1.728,3.971,3.971,0,0,1,.566,1.149,1.374,1.374,0,0,0,.185.274v.779c.253-.069.309-.344.325-.5.035-.35.272-.586.363-.868a5.314,5.314,0,0,0-2.447-2.993,6.387,6.387,0,0,0-3.4-.511c.281.232.388.442.631.522" transform="translate(-30.767 -16.141)" fill="#76a325"/>
        <path id="Trazado_617268" data-name="Trazado 617268" d="M66.026,17.516c.1.308.351.541.379.888a.9.9,0,0,1,1.115-.028,1.3,1.3,0,0,0,.42-.861,7.7,7.7,0,0,0-.928-2.643,5.185,5.185,0,0,0-.986,2.643" transform="translate(-50.709 -11.423)" fill="#b0c86a"/>
        <path id="Trazado_617269" data-name="Trazado 617269" d="M65.305,13.964c.332-.363.329-.862.515-1.285.16-.363.262-.751.444-1.29.16.982.694,1.672.813,2.513,0,.026.093.041.142.061.337-.1.206-.417.158-.565-.338-1.041-.721-2.067-1.109-3.152-.382,1-.761,1.946-1.091,2.9-.087.253-.193.587.129.812" transform="translate(-49.988 -7.871)" fill="#8eb540"/>
        <path id="Trazado_617270" data-name="Trazado 617270" d="M65.844,168.162a2.889,2.889,0,0,0-.711-1.055c-.343-.432-.456-.993-.854-1.38a.239.239,0,0,0,0,.348,8.22,8.22,0,0,0,1.093,2.207c.08.119.1.247.177.386a.446.446,0,0,0,.3-.506" transform="translate(-49.309 -127.281)" fill="#94458b"/>
        <path id="Trazado_617271" data-name="Trazado 617271" d="M57.951,147.728a.147.147,0,0,1-.174.174c.116.422.231.844.349,1.265.023.082.071.145.173.126a8.774,8.774,0,0,0-.267-1.565.521.521,0,0,0-.08,0" transform="translate(-44.373 -113.456)" fill="#99468f"/>
        <path id="Trazado_617272" data-name="Trazado 617272" d="M113.682,84c.013.17-.1.174-.222.174h-1.469c-.118,0-.236,0-.222.174h2.044c.054-.194.094-.334-.13-.348" transform="translate(-85.839 -64.514)" fill="#4b304a"/>
        <path id="Trazado_617273" data-name="Trazado 617273" d="M63.363,163.882v-.348c.09-.279-.289-.4-.161-.66-.178-.014-.193.054-.187.139a.85.85,0,0,0,.348.87" transform="translate(-48.394 -125.087)" fill="#99468f"/>
        <path id="Trazado_617274" data-name="Trazado 617274" d="M80.277,178.817V178.5a.462.462,0,0,0-.66.248c.223.122.434.013.66.072" transform="translate(-61.147 -137.05)" fill="#893e85"/>
        <path id="Trazado_617275" data-name="Trazado 617275" d="M150.129,73.653V72.588l-.7-.592a2.227,2.227,0,0,0-1.338.216c-.109.413-.53.748-.378,1.215a1.54,1.54,0,0,0,.569.8c.576.4,1.017.259,1.847-.571" transform="translate(-113.42 -55.289)" fill="#f5f7f8"/>
        <path id="Trazado_617276" data-name="Trazado 617276" d="M12.814,43.524v1.062c1.1,1.1,1.663,1.056,2.413-.167.016-.893-.226-1.359-.882-1.6-.7-.26-1.074.271-1.531.706" transform="translate(-9.841 -32.832)" fill="#f5f7f8"/>
        <path id="Trazado_617277" data-name="Trazado 617277" d="M82.081,67.094c-.092.2-.349.028-.51.137a2.1,2.1,0,0,0,.216,3.09h.455a1.956,1.956,0,0,0,.829-2.18c-.316-.357-.272-1.01-.99-1.047" transform="translate(-62.207 -51.529)" fill="#fefdfe"/>
        <path id="Trazado_617278" data-name="Trazado 617278" d="M66.015,80a1.467,1.467,0,0,1,.367.714c.649.075.649.075,1.006-.173V79.387l-.7-.71c-.138-.028-.222.269-.44.216A1.553,1.553,0,0,0,66.015,80" transform="translate(-50.695 -60.424)" fill="#fdfafd"/>
        <path id="Trazado_617279" data-name="Trazado 617279" d="M93.091,103.6c0-.231-.007-.376,0-.521a7.972,7.972,0,0,0-.615-3.137,10.149,10.149,0,0,0-2.327-3.737,10.616,10.616,0,0,0-3.156-2.263,13.193,13.193,0,0,0-2.629-.8A9.054,9.054,0,0,0,82.084,93a9.768,9.768,0,0,0-5.433,1.767,10.25,10.25,0,0,0-3.739,4.507,14.3,14.3,0,0,0-.731,2.486,10.8,10.8,0,0,0-.136,2.109,9.771,9.771,0,0,0,1.854,5.661A10.879,10.879,0,0,0,76.326,112a9.863,9.863,0,0,0,3.007,1.569,6.5,6.5,0,0,0,2.417.473c.607-.034,1.218.007,1.826-.01a9.786,9.786,0,0,0,2.847-.68,10.448,10.448,0,0,0,2.283-1.216,2.076,2.076,0,0,0,.335-.23,3.6,3.6,0,0,1,.75-.715c.3-.15.364-.45.592-.628a6.431,6.431,0,0,0,1.649-2.36,6.565,6.565,0,0,0,.884-2.85c.345-.586.088-1.23.174-1.755" transform="translate(-55.331 -71.419)" fill="#f7d5e8"/>
        <path id="Trazado_617280" data-name="Trazado 617280" d="M95.949,107.609a9.428,9.428,0,0,0-2.885-6.705A8.95,8.95,0,0,0,86.331,98.3,9.311,9.311,0,1,0,93.5,113.831a9.241,9.241,0,0,0,2.448-6.222" transform="translate(-59.383 -75.489)" fill="#272727"/>
        <path id="Trazado_617281" data-name="Trazado 617281" d="M98.674,111.538c0-.319,0-.637,0-.956a5.5,5.5,0,0,0-.484-1.972,9.615,9.615,0,0,0-1.554-2.568,6.491,6.491,0,0,0-1.967-1.533,4.712,4.712,0,0,0-1.686-.753c-.073-.01-.151-.139-.2-.125-.386.106-.7-.177-1.06-.18-.753-.007-1.507,0-2.26,0-.087,0-.2-.035-.257.006-.467.318-1.072.128-1.551.465-.412.29-.923.434-1.357.7a8.12,8.12,0,0,0-1.268.921,8.4,8.4,0,0,0-1.665,2.26,6.9,6.9,0,0,0-.873,3.637,10.534,10.534,0,0,1,0,1.129,3.237,3.237,0,0,0,.255,1.288,8.21,8.21,0,0,0,2.078,3.479,7.589,7.589,0,0,0,3.638,2.121,1.887,1.887,0,0,0,1.056.167c.338-.091.551.229.887.191a10.093,10.093,0,0,0,4.008-1.037,8.053,8.053,0,0,0,3.235-3.14c.222-.4.34-.851.6-1.232a4.758,4.758,0,0,0,.395-1.311,5.226,5.226,0,0,0,.035-1.553" transform="translate(-63.35 -79.439)" fill="#c790bf"/>
        <path id="Trazado_617282" data-name="Trazado 617282" d="M92.005,120.875a7.39,7.39,0,0,0,5.881-2.459,7.575,7.575,0,1,0-13.146-4.6,7.212,7.212,0,0,0,2.516,5.126,6.8,6.8,0,0,0,4.749,1.933" transform="translate(-65.069 -81.19)" fill="#f7d5e8"/>
        <path id="Trazado_617283" data-name="Trazado 617283" d="M103.1,118.21a6.2,6.2,0,0,0-1.829-4.734,6.212,6.212,0,0,0-8.761.042,6.236,6.236,0,0,0,.035,8.766,6.1,6.1,0,0,0,4.831,1.781,6.2,6.2,0,0,0,5.724-5.854" transform="translate(-69.678 -85.779)" fill="#272727"/>
        <path id="Trazado_617284" data-name="Trazado 617284" d="M100.57,116.489a12.7,12.7,0,0,0-2.05.435,7.661,7.661,0,0,0-1.735,1.275,4.126,4.126,0,0,0-1.067,1.736,4.028,4.028,0,0,0-.307,2,5.126,5.126,0,0,0,.6,2,4.479,4.479,0,0,0,1.1,1.449,5.287,5.287,0,0,0,1.6.955,7.872,7.872,0,0,0,2.03.35,6.789,6.789,0,0,0,2.933-1.108,7.14,7.14,0,0,0,1.764-2.66,5.683,5.683,0,0,0-.187-3.081,5.5,5.5,0,0,0-1.8-2.373,6.048,6.048,0,0,0-2.882-.986" transform="translate(-73.25 -89.465)" fill="#c68fbf"/>
        <path id="Trazado_617285" data-name="Trazado 617285" d="M102.23,127.689a4.44,4.44,0,0,0,3.181-1.337,4.571,4.571,0,0,0,1.359-3.172,4.971,4.971,0,0,0-.537-2.3,3.841,3.841,0,0,0-1.666-1.707,5.239,5.239,0,0,0-2.4-.712,4.734,4.734,0,0,0-4.616,4.6,4.458,4.458,0,0,0,1.331,3.266,4.337,4.337,0,0,0,3.346,1.356" transform="translate(-74.922 -90.982)" fill="#f7d5e8"/>
        <path id="Trazado_617286" data-name="Trazado 617286" d="M108.107,125.241a10.226,10.226,0,0,0-1.618.086,3.819,3.819,0,0,0-1.333.775,4.553,4.553,0,0,0-.906,1.362c0,.308.016.683,0,1.056a2.657,2.657,0,0,0,.8,1.922,2.415,2.415,0,0,0,2.055.883,3.679,3.679,0,0,0,1.326-.151,3.262,3.262,0,0,0,1.405-1.079,3.348,3.348,0,0,0,.532-1.786,3.253,3.253,0,0,0-.817-2.184,2.533,2.533,0,0,0-.808-.536c-.184-.112-.378-.21-.628-.349" transform="translate(-80.06 -96.187)" fill="#282728"/>
        <path id="Trazado_617287" data-name="Trazado 617287" d="M110.356,133.652a1.96,1.96,0,0,0,1.92-.744,1.91,1.91,0,0,0,.234-2.156l-.919-.919c-.323.092-.549-.2-.87-.216-.34-.021-.544.368-.823.2l-1.023.969c.084.338-.215.565-.188.9a3.22,3.22,0,0,0,.259.852,1.225,1.225,0,0,0,.487.6,3.249,3.249,0,0,0,.923.52" transform="translate(-83.472 -99.547)" fill="#c58ebd"/>
        <path id="Trazado_617288" data-name="Trazado 617288" d="M112.457,135.078a1.5,1.5,0,0,0,1.355-.668,1.288,1.288,0,0,0,.122-1.52l-.593-.61c-.247-.053-.535.129-.669-.143-.51.187-1.049.28-1.316.777a1.512,1.512,0,0,0,0,1.324,2.186,2.186,0,0,0,1.1.839" transform="translate(-85.405 -101.483)" fill="#f6d4e8"/>
      </g>
    </g>
  </g>
</svg>
