<svg xmlns="http://www.w3.org/2000/svg" xmlns:xlink="http://www.w3.org/1999/xlink" width="85" height="85" viewBox="0 0 85 85">
  <defs>
    <clipPath id="clip-path">
      <rect id="Rectángulo_326254" data-name="Rectángulo 326254" width="46.883" height="50.886" fill="none"/>
    </clipPath>
  </defs>
  <g id="Grupo_878175" data-name="Grupo 878175" transform="translate(-285 -5493)">
    <circle id="Elipse_5182" data-name="Elipse 5182" cx="42.5" cy="42.5" r="42.5" transform="translate(285 5493)" fill="#ced371"/>
    <g id="Grupo_877428" data-name="Grupo 877428" transform="translate(304 5510)">
      <g id="Grupo_877427" data-name="Grupo 877427" clip-path="url(#clip-path)">
        <path id="Trazado_617193" data-name="Trazado 617193" d="M80.931,68.325c-.023-.541.341-1.033.2-1.588-.781-.947-.644-2.1-.72-3.207-.268-3.907-.673-7.814-2.517-11.335A13.08,13.08,0,0,0,67.14,44.872a10.206,10.206,0,0,0-7.009,2.007c-3.541,2.492-7.05,5.031-10.559,7.567a3.974,3.974,0,0,0-1.393,1.518,14.1,14.1,0,0,0,1.583,12.323,14.311,14.311,0,0,0,4.214,4.258.839.839,0,0,0,.283.095,1.693,1.693,0,0,1,1.946.97,1.831,1.831,0,0,0,.559.677,45.54,45.54,0,0,0,16.029,5.926,9.3,9.3,0,0,0,4.2.017,2.843,2.843,0,0,0,1.45-1.9,32.679,32.679,0,0,0,1.916-8.354,3.682,3.682,0,0,1,.568-1.653" transform="translate(-34.877 -32.958)" fill="#dc0830"/>
        <path id="Trazado_617194" data-name="Trazado 617194" d="M13.5,23.058a6.144,6.144,0,0,1,1.89-1.765c.863-.566,1.7-1.168,2.523-1.782.731-.545,1.487-1.052,2.22-1.593.933-.689,1.879-1.36,2.824-2.033.892-.635,1.766-1.3,2.69-1.882a10.1,10.1,0,0,1,3.348-1.5,10.142,10.142,0,0,1,3.307-.349,14.335,14.335,0,0,1,4.271,1.159,13.909,13.909,0,0,1,4.77,3.767,12.524,12.524,0,0,1,2.527,4.891c.217.8.426,1.613.592,2.43s.309,1.666.438,2.5a7.646,7.646,0,0,1,.159,1.508c-.024.518.289.969.219,1.505-.067.52.032,1.061-.03,1.582-.045.383.309.625.227,1.012a4.687,4.687,0,0,0-.014.963l.239.239c.164.12.367.032.555.058.276.078.423-.109.6-.3,0-1.035-.008-2.091,0-3.146.005-.481-.284-.9-.219-1.407a1.651,1.651,0,0,0-.182-1.3,5.979,5.979,0,0,0-.215-1.9,7.809,7.809,0,0,0-.452-2.188c-.172-.421.061-.918-.326-1.253a14.5,14.5,0,0,0-2.845-5.968,14.455,14.455,0,0,0-3.723-3.458,14.7,14.7,0,0,0-3.848-1.713,7.708,7.708,0,0,0-2.792-.38.514.514,0,0,1,.028-.646,4.134,4.134,0,0,0,.638-1.708c.1-.551.477-1.092.256-1.51-.085-.515-.546-.4-.618-.716-.8-.267-.949.387-1.137.868-.213.545-.284,1.143-.495,1.7a7.857,7.857,0,0,1-.44.987c-.346.632-3.313,1.655-4.047,1.4a1.116,1.116,0,0,0-.981-.976,1.027,1.027,0,0,0-1.025,1,4.011,4.011,0,0,1-2.265,3.109c-.561.33-1.046.784-1.615,1.106-.632.386-.823-.136-1.028-.53a9.247,9.247,0,0,1,.088-9.433c.082-.143.17-.283.247-.428a6.043,6.043,0,0,1,1.431-1.807c.611-.006.834.432,1.084.807a13.013,13.013,0,0,1,1.684,3.554c.166.562.3,1.168.956,1.407,1.026-.031,1.3-.337,1.168-1.294-.019-.131.033.02-.022-.094-.881-1.819.222-2.873,1.486-3.859a10.043,10.043,0,0,1,1.614-1.112,3.116,3.116,0,0,1,1.571-.575c.653.461.427,1.251.665,1.869.19.494.222,1.174,1.062.914l.6-.286c0-.521.034-1.051-.01-1.574a5.827,5.827,0,0,0-.27-1.474A2.32,2.32,0,0,0,31.725.225c-.083-.044-.159-.1-.265-.169a2.972,2.972,0,0,0-2.047.423,14.715,14.715,0,0,0-4.877,3.738A10.057,10.057,0,0,0,22.6,1.482a3.367,3.367,0,0,0-1.656-.254c-.317.3-.827.307-1.1.691-.256.359-.524.709-.787,1.064A24.47,24.47,0,0,0,17.7,5.1a10.066,10.066,0,0,0-.818,2.236,10.858,10.858,0,0,0-.394,3.869c-1.31-1.634-2.265-3.384-3.667-4.841a1.485,1.485,0,0,0-.878.479c-.133.429.129.685.337,1.03.84,1.394,1.921,2.614,2.763,4.006-.237.135-.429-.061-.661-.111a5.209,5.209,0,0,0-2.211-.427,3.621,3.621,0,0,0-2-.182,9.656,9.656,0,0,0-2.578.477c-.295.1-.6.084-.9.213a7.256,7.256,0,0,0-2.02.879l-.5.972a1.844,1.844,0,0,1,0,.4,2.418,2.418,0,0,0,.78,2.054c.351.408.65.849,1.033,1.323A13.985,13.985,0,0,0,0,21.986v1.259a2.588,2.588,0,0,0,1.439,1.6c.734.305,1.353.933,2.252.774.074-.14.285-.18.276-.382.6-.7-.031-.978-.468-1.272-.564-.378-1.267-.559-1.713-1.187a4.7,4.7,0,0,1,1.682-1.8A9.748,9.748,0,0,1,7.2,19.042a12.878,12.878,0,0,0,4.939,2.492c-.141.525-.528.73-.712,1.075a2.722,2.722,0,0,0-.413.551c-.718,1.891-2.242,1.969-3.9,1.759a3.406,3.406,0,0,0-.88-.09c-.47.064-.928.168-.878.809-.086.281.22.446.212.707a1.594,1.594,0,0,0,1.162.281c.373-.08.651.221,1.007.206a3.136,3.136,0,0,0,1.929-.348c-.119.844-.251,1.541-.386,2.213a14.972,14.972,0,0,0-.141,2.6A1.758,1.758,0,0,0,9.75,32.72c.124.108.249.039.37.065.813,0,.818-.623.862-1.168.071-.883-.049-1.776.077-2.657a10.471,10.471,0,0,1,1.125-3.652,6.632,6.632,0,0,1,.637-1.111c.249-.365.417-.778.673-1.141" transform="translate(0 0)" fill="#040506"/>
        <path id="Trazado_617195" data-name="Trazado 617195" d="M41.608,87.107c-.452.181-.607.6-.794.993-.105.169.033.385-.057.472-.171.27-.394.352-.539.52a4.818,4.818,0,0,0-.988,2.2,9.985,9.985,0,0,0-.409,2.5c.033.853.007,1.707.007,2.558-.222.144-.309.437-.6.491-.014.4.281.725.242,1.129,0,.016.1.041.155.062a5.413,5.413,0,0,0,.96,1.1c.151.109.345.154.463.3.1.3-.076.57-.035.852a5.636,5.636,0,0,0,1.854,2.82c.178.081.393,0,.565.119.143.194.118.439.2.651a2.073,2.073,0,0,0,1.069,1.069c.242.081.5.074.749.146.258.127.128.4.224.591a3.772,3.772,0,0,0,2,1.263c.22.023.439-.1.662-.011.183.154.183.4.308.589a10.509,10.509,0,0,0,3.308,1.92A42.249,42.249,0,0,0,57.1,111.9a2,2,0,0,0,1.058.168c.152-.033.275-.142.456-.182.342.123.478.55.849.667a23.916,23.916,0,0,0,5.717,1.024,5.5,5.5,0,0,0,3.734-1c.213-.174.183-.462.3-.679.245-.175.564-.121.807-.284.147-.13.266-.271.171-.486a4.36,4.36,0,0,0-1.127.152,1.393,1.393,0,0,1-1.31-.1.653.653,0,0,0-.37-.054,17.815,17.815,0,0,1-2.515-.355,22.393,22.393,0,0,1-3.109-.669,13.852,13.852,0,0,1-3.062-.966c-.6-.309-1.258-.47-1.881-.72-1.335-.537-2.635-1.135-3.921-1.774a26.066,26.066,0,0,1-2.51-1.346.742.742,0,0,0-.445-.128.5.5,0,0,0-.129.519c.032.145.156.266.123.44-.3.212-.517-.057-.767-.114a2.3,2.3,0,0,1-1.457-1.625c-.1-.276-.343-.491-.352-.808-.334-.667-1.058-.9-1.566-1.372a6.794,6.794,0,0,1-1.236-1.3c-.3-.481-.785-.833-1.119-1.324a25.39,25.39,0,0,1-1.81-3.423,9.419,9.419,0,0,0-.466-2,12.077,12.077,0,0,1-.147-1.81c0-.2-.131-.281-.217-.425a2.338,2.338,0,0,0,.219-.8A7.808,7.808,0,0,1,41.6,87.5a1.1,1.1,0,0,0,.006-.394" transform="translate(-28.112 -64.05)" fill="#b8001c"/>
        <path id="Trazado_617196" data-name="Trazado 617196" d="M43.239,135.109a2.849,2.849,0,0,1-.993-.993c-.2-.329-.374-.685-.794-.794-.478-.14-.595-.64-.811-.969a4.385,4.385,0,0,1-.976-1.811c-.193-.4-.062-.961-.6-1.191a1.484,1.484,0,0,0-.993-.993c-.084.308-.389.428-.564.673a1.153,1.153,0,0,0,.154.89c.211.366.306.8.484,1.186a15.994,15.994,0,0,0,4.219,5.384,20.95,20.95,0,0,0,2.625,1.788,58.655,58.655,0,0,0,6.6,3.465,39.449,39.449,0,0,0,4.8,1.818c1.114.349,2.254.647,3.4.906a9.041,9.041,0,0,1,2.439.564.21.21,0,0,0,.1,0c1.137-.052,2.247.347,3.389.2a18.417,18.417,0,0,0,2.139-.574,11.521,11.521,0,0,0,2.559-1.493c.32-.715,1.064-1.109,1.393-1.8a14.338,14.338,0,0,0,.768-1.961c.178-.588.37-1.169.564-1.751.185-.554.233-1.142.447-1.7a4.7,4.7,0,0,0,.178-1.1c.063-.536.2-1.069.286-1.592a13.053,13.053,0,0,0,.149-2.009c0-.351.435-.613.125-1.021-.182-.164-.3-.565-.717-.477-.42-.088-.535.313-.817.509a8.568,8.568,0,0,1-.223,2.769,21.18,21.18,0,0,1-.559,3.029c-.241.95-.568,1.878-.872,2.811-.152.465-.331.921-.507,1.377a2.155,2.155,0,0,1-.991,1.218l-.2.4c-.351.239-.867.273-.993.794a7.4,7.4,0,0,1-4.42.991c-.341-.027-.624-.277-1-.21a1.635,1.635,0,0,1-.913-.158,5.87,5.87,0,0,0-1.2-.183c-.645-.113-1.264-.3-1.9-.438a1.445,1.445,0,0,0-.3,0c-.3-.2-.566-.5-.993-.4a4.1,4.1,0,0,1-1.7-.444c-1.357-.453-2.666-1.047-4-1.577-1.252-.5-2.416-1.175-3.632-1.746a4.4,4.4,0,0,1-1.194-.8,1.945,1.945,0,0,0-.993-.6c-.555-.032-.854-.582-1.376-.682-.091-.3-.535-.186-.609-.51-.127-.52-.641-.555-.993-.794" transform="translate(-27.56 -94.382)" fill="#050506"/>
        <path id="Trazado_617197" data-name="Trazado 617197" d="M98.488,15.889c.04.165-.163.183-.178.364a1.877,1.877,0,0,0,.875-.129,8.055,8.055,0,0,1,3.388-.825,18.361,18.361,0,0,0,1.162-2.734,6.6,6.6,0,0,0,.111-.74,1.234,1.234,0,0,1,.994-1.1V9.338c-.419.089-.534-.312-.808-.5.152-.673-.352-1.292-.178-1.922l-.358-.607c-.309-.309-1.1-.018-2.03.65a1.661,1.661,0,0,0-.27,1.315,9.284,9.284,0,0,1-2.159,6.686,10.489,10.489,0,0,0-.548.933" transform="translate(-72.287 -4.546)" fill="#387a3a"/>
        <path id="Trazado_617198" data-name="Trazado 617198" d="M7.274,78.768c-.1,0-.242-.043-.288.006a9.267,9.267,0,0,0-1.677,1.857,2.112,2.112,0,0,0,.943.91,3.8,3.8,0,0,0,.816.4,1.375,1.375,0,0,1,.964.958c-.016.046-.194.078-.163.238l1.39.4c.056-.287.361-.366.488-.641a9.283,9.283,0,0,0,4.413-.013,14.2,14.2,0,0,1,1.452-2.325A1.167,1.167,0,0,0,14.6,80.29,12.219,12.219,0,0,1,8.2,79c-.29-.137-.574-.342-.93-.231" transform="translate(-3.904 -57.895)" fill="#387a3a"/>
        <path id="Trazado_617199" data-name="Trazado 617199" d="M73.127,149.574a1.329,1.329,0,0,0,.408,1.1c.223.236.458.461.684.686h.5c.438.215.722.121.794-.4v-.6a3.66,3.66,0,0,0-.955-1.448,1.1,1.1,0,0,0-1.427-.14.681.681,0,0,0,0,.794" transform="translate(-53.675 -109.245)" fill="#110403"/>
        <path id="Trazado_617200" data-name="Trazado 617200" d="M100.5,108.273c-.377,1.256.52,1.821,1.224,2.556.316-.08.726.165,1.043-.264.23-.573-.1-1.06-.358-1.547a2.027,2.027,0,0,0-.968-.867c-.359-.171-.667-.212-.941.122" transform="translate(-73.829 -79.428)" fill="#170400"/>
        <path id="Trazado_617201" data-name="Trazado 617201" d="M113.481,150.865l.577-.29V149.7a2.4,2.4,0,0,0-1.83-1.822c-.2.056-.308.332-.476.448-.237.473.259.806.129,1.226a5.464,5.464,0,0,0,1.6,1.315" transform="translate(-82.123 -108.734)" fill="#120403"/>
        <path id="Trazado_617202" data-name="Trazado 617202" d="M153.753,131.649v1.019c.522.762,1,1.569,2.106,1.481.1-.353.408-.661.257-1a3.426,3.426,0,0,0-.9-1.4,1.012,1.012,0,0,0-1.467-.1" transform="translate(-113.054 -96.604)" fill="#130403"/>
        <path id="Trazado_617203" data-name="Trazado 617203" d="M142.742,166.411l.586-.3a2.427,2.427,0,0,0-.368-1.731c-.3-.6-.951-.659-1.458-1.038l-.533.716a2.887,2.887,0,0,0,1.773,2.352" transform="translate(-103.654 -120.106)" fill="#140402"/>
        <path id="Trazado_617204" data-name="Trazado 617204" d="M71.012,87.961c-.273.072-.485-.081-.752-.237l-.547.76A2.6,2.6,0,0,0,71.6,90.7l.481-.232a2.658,2.658,0,0,0-1.064-2.5" transform="translate(-51.26 -64.503)" fill="#110403"/>
        <path id="Trazado_617205" data-name="Trazado 617205" d="M109.59,68.417a5.155,5.155,0,0,0-1.229-1.483h-.849c-.084.312-.392.539-.214.948a3.183,3.183,0,0,0,.95,1.4,3.157,3.157,0,0,1,.458.378c.3.039.616.114.884-.248Z" transform="translate(-78.856 -49.217)" fill="#100403"/>
        <path id="Trazado_617206" data-name="Trazado 617206" d="M57.8,119.628v.992a2.929,2.929,0,0,0,1.694,1.556,1.758,1.758,0,0,0,.693-.6,3.158,3.158,0,0,0-1.026-1.937.962.962,0,0,0-1.362-.014" transform="translate(-42.503 -87.76)" fill="#130403"/>
        <path id="Trazado_617207" data-name="Trazado 617207" d="M136.62,101.077c-.4-.316-.5-.95-1.122-1.173-.334-.12-.634-.005-.913-.117-.219.21.016.569-.3.7.034.124.173.159.192.311a2.412,2.412,0,0,0,1.439,1.742c.258.152.494.056.7-.229Z" transform="translate(-98.74 -73.373)" fill="#110404"/>
        <path id="Trazado_617208" data-name="Trazado 617208" d="M144.012,61.75a2.32,2.32,0,0,0,1.732,2.755c.317-.048.505-.36.633-.731-.721-1.719-.861-1.644-1.771-2.178-.259-.051-.263.452-.595.155" transform="translate(-105.882 -45.289)" fill="#0f0404"/>
        <path id="Trazado_617209" data-name="Trazado 617209" d="M71.828,150.139v-.794h-.2c-.12.024-.259-.058-.363.064-.092.251,0,.327.259.344.189.013,0,.409.3.386" transform="translate(-52.376 -109.809)" fill="#b8001c"/>
        <path id="Trazado_617210" data-name="Trazado 617210" d="M79.594,16.62c-.628-.3-.593-.971-.767-1.5a6.662,6.662,0,0,0-.226-.7,17.378,17.378,0,0,0-1.561-2.917c-.209-.294-.511-.485-.645-.82h-.7a13.089,13.089,0,0,0-1.466,1.963,5.583,5.583,0,0,0,.538,1.265,9.334,9.334,0,0,1,.578,8.7.908.908,0,0,0-.124.753c.454.1.57-.487.978-.482a20.321,20.321,0,0,1,2.185-1.594,4.1,4.1,0,0,0,.4-.367c.019-.74.594-1.312.4-1.994.266-.292.263-.82.8-.726.616-.738.523-1.11-.4-1.588" transform="translate(-54.584 -7.857)" fill="#54a553"/>
        <path id="Trazado_617211" data-name="Trazado 617211" d="M23.574,49.591a6.724,6.724,0,0,0-2.31.622c-.108.188-.089.432-.267.5a10.981,10.981,0,0,0,2.669,3.226,9.31,9.31,0,0,0,3.4,2.06,8.594,8.594,0,0,0,3.018.334,1,1,0,0,0,.584-.243c.926-.806,1.981-1.433,2.963-2.161.042-.031.049-.11.072-.166-.5-.3-1.036-.082-1.541-.053a9.018,9.018,0,0,1-7.082-2.882c-.461-.453-.819-1.046-1.5-1.234" transform="translate(-15.439 -36.461)" fill="#54a553"/>
        <path id="Trazado_617212" data-name="Trazado 617212" d="M70.8,28.824a7.88,7.88,0,0,0,.975-2.17,10.409,10.409,0,0,0,.195-3.566c-.194-.567-.177-1.167-.386-1.719a5.63,5.63,0,0,1-.584-1.54c-.578-.45-.51-1.347-1.191-1.726a10.683,10.683,0,0,0-1.256,2.742,5.647,5.647,0,0,0-.335,1.542c.01.593.02,1.187,0,1.779a8.669,8.669,0,0,0,.847,3.407,7.023,7.023,0,0,0,.628,1.22,4.685,4.685,0,0,0,.6.652c.16-.246.453-.334.507-.62" transform="translate(-50.154 -13.311)" fill="#65ae68"/>
        <path id="Trazado_617213" data-name="Trazado 617213" d="M30.728,48.468a12.407,12.407,0,0,0,3.019,2.864,9.888,9.888,0,0,0,3.008,1.332,22.47,22.47,0,0,0,3.388.177c.274.023.428-.3.71-.2a.6.6,0,0,0,.411-.4,9.441,9.441,0,0,0-4.629-3.674,5.689,5.689,0,0,0-2.268-.5c-.66.009-1.323-.037-1.979.014a15.476,15.476,0,0,0-1.658.29.445.445,0,0,0,0,.1" transform="translate(-22.593 -35.337)" fill="#65ae68"/>
        <path id="Trazado_617214" data-name="Trazado 617214" d="M94.484,15.419a1.361,1.361,0,0,1,.612,1.09c-.011.223-.23.3-.215.5.425-.067.557.309.794.508V18a8.4,8.4,0,0,0,2.565-3.991,7.259,7.259,0,0,0,.42-2.486c-.032-.818-.007-1.638-.007-2.458-.271-.07-.394.15-.581.271A10.407,10.407,0,0,0,95.026,12.2c-.052.077-.169.114-.158.24a8.313,8.313,0,0,1,.6,2.684l-.29.3Z" transform="translate(-69.474 -6.656)" fill="#429446"/>
        <path id="Trazado_617215" data-name="Trazado 617215" d="M12.734,72.819a16.889,16.889,0,0,0,3.254,1.407,8.076,8.076,0,0,0,2.693.39c.131-.005.268.13.395.2.644-.384,1.336-.132,2-.206.213-.514.831-.709,1.039-1.312a10.489,10.489,0,0,1-5.51-2.648c-.069.061-.134.166-.216.182a8.763,8.763,0,0,0-3.58,1.825.512.512,0,0,0-.071.166" transform="translate(-9.363 -51.946)" fill="#429446"/>
        <path id="Trazado_617216" data-name="Trazado 617216" d="M45.734,91.85c.853-.059.962-.241.6-.993-.228.313-.6.54-.6.993" transform="translate(-33.628 -66.807)" fill="#b8001c"/>
        <path id="Trazado_617217" data-name="Trazado 617217" d="M80.278,157.594c-.32-.036-.1.344-.311.4h-.483a1.018,1.018,0,0,0,.733.414c.44-.109.516-.381.428-.745-.1-.128-.245-.041-.366-.066" transform="translate(-58.445 -115.875)" fill="#b8001c"/>
        <path id="Trazado_617218" data-name="Trazado 617218" d="M153.924,180.155c.307-.294.8-.352.993-.794h-.852c-.145.107-.316.193-.342.426l.2.368" transform="translate(-113.032 -131.884)" fill="#b8001c"/>
        <path id="Trazado_617219" data-name="Trazado 617219" d="M70.484,160.809c.18.45.585.525.993.6-.059-.853-.241-.962-.993-.6" transform="translate(-51.827 -118.097)" fill="#b8001c"/>
        <path id="Trazado_617220" data-name="Trazado 617220" d="M59.234,153.86c.189.442.685.5.993.794l.2-.361c.02-.227-.2-.258-.252-.433Z" transform="translate(-43.555 -113.133)" fill="#b8001c"/>
        <path id="Trazado_617221" data-name="Trazado 617221" d="M43.484,132.1q.2.526.4,1.051c.034.09.083.163.2.14-.092-.3.292-.472.209-.735-.1-.512-.465-.457-.8-.456" transform="translate(-31.974 -97.133)" fill="#b8001c"/>
        <path id="Trazado_617222" data-name="Trazado 617222" d="M113.978,179.809a.538.538,0,0,0,0,.09c.346.052.622.334.992.307-.163-.253-.215-.574-.48-.776h-.431c-.138.122-.059.259-.082.379" transform="translate(-83.806 -131.935)" fill="#b8001c"/>
        <path id="Trazado_617223" data-name="Trazado 617223" d="M52.484,146.546a2.01,2.01,0,0,0,.794.794v-.661c-.113-.136-.195-.312-.424-.335l-.37.2" transform="translate(-38.591 -107.607)" fill="#b8001c"/>
      </g>
    </g>
  </g>
</svg>
