<svg xmlns="http://www.w3.org/2000/svg" xmlns:xlink="http://www.w3.org/1999/xlink" width="85" height="85" viewBox="0 0 85 85">
  <defs>
    <clipPath id="clip-path">
      <rect id="Rectángulo_326256" data-name="Rectángulo 326256" width="42.071" height="45.279" fill="none"/>
    </clipPath>
  </defs>
  <g id="Grupo_878177" data-name="Grupo 878177" transform="translate(-285 -5698)">
    <circle id="Elipse_5183" data-name="Elipse 5183" cx="42.5" cy="42.5" r="42.5" transform="translate(285 5698)" fill="#ced371"/>
    <g id="Grupo_877432" data-name="Grupo 877432" transform="translate(306 5718)">
      <g id="Grupo_877431" data-name="Grupo 877431" clip-path="url(#clip-path)">
        <path id="Trazado_617245" data-name="Trazado 617245" d="M39.661,17.971a8.817,8.817,0,0,0,1.15-2.676,12.291,12.291,0,0,0,.355-4.086A14.712,14.712,0,0,0,40.6,8.364a10.188,10.188,0,0,0-1.381-2.843,11.931,11.931,0,0,0-4.2-3.87A11.392,11.392,0,0,0,29.684.366a10.756,10.756,0,0,0-5.285,1.5A5.308,5.308,0,0,0,19.681.035a5.582,5.582,0,0,0-3.477,1.9c-.64-.316-1.156-.848-1.816-1.128A8.055,8.055,0,0,0,12.346.162,12.9,12.9,0,0,0,10.8.019a7.56,7.56,0,0,0-3.326.8A3.9,3.9,0,0,0,5.946,1.86c-.2.258-.512.306-.723.55A10.118,10.118,0,0,0,3.2,5.869a8.687,8.687,0,0,0-.287,4,7.182,7.182,0,0,0,1.778,4c.334.353.475.906,1.072.952a7.211,7.211,0,0,0,.176,2.468A6.425,6.425,0,0,0,6.776,19.4a8.061,8.061,0,0,0,1.394,1.774c.581.46,1.233.821,1.852,1.225-.486.835-.892,1.648-1.406,2.377-.414.588-.816,1.189-1.241,1.771C5.5,29.117,3.114,31.173,1.019,33.52a4.155,4.155,0,0,0-.9,1.555,2.591,2.591,0,0,0,.159,1.933,3.666,3.666,0,0,0,.716,1.105C2.955,40.151,4.9,42.2,6.874,44.228A3.031,3.031,0,0,0,9,45.28a3.051,3.051,0,0,0,2.215-1.027c.945-.93,1.839-1.914,2.764-2.865a25.6,25.6,0,0,1,3.266-2.653,11.1,11.1,0,0,1,1.713-1.026,23.545,23.545,0,0,1,2.639-1.242c.572-.195,1.144-.4,1.722-.58a9.885,9.885,0,0,0,1.672-.482c.2-.1.485-.017.737-.017a9.14,9.14,0,0,0,1.744,4.668,8.011,8.011,0,0,0,4,2.917,7.664,7.664,0,0,0,6.037-.507A8.429,8.429,0,0,0,40.9,39.125a8.291,8.291,0,0,0,1.093-5.339,8.058,8.058,0,0,0-2.7-5.235c.345-.344.7-.678,1.027-1.031a6.724,6.724,0,0,0,1.565-3.04,5.836,5.836,0,0,0,.111-2.139,5.355,5.355,0,0,0-.483-1.9,6.543,6.543,0,0,0-1.371-1.973c-.173-.151-.321-.331-.479-.5" transform="translate(0 -0.001)" fill="#040506"/>
        <path id="Trazado_617246" data-name="Trazado 617246" d="M29.981,7.66c-.1.441.15.543.27.727a8.544,8.544,0,0,1,1.043,2.464c.152.558.247,1.135.343,1.708a1.471,1.471,0,0,1-.583,1.411,1.227,1.227,0,0,1-1.1-.4,4.962,4.962,0,0,0-.206-1.794,6.359,6.359,0,0,0-.987-2.483,5.512,5.512,0,0,0-1.55-1.613,5.347,5.347,0,0,0-2.523-1.1c-.258-.018-.423-.245-.693-.2a4.8,4.8,0,0,1-.761.009A6.7,6.7,0,0,0,19.6,7.71a7.631,7.631,0,0,0-2.381,3.657,8.587,8.587,0,0,0-.166,1.962,7.568,7.568,0,0,0,1.06,3.611,7.519,7.519,0,0,0,3.4,2.533A6.086,6.086,0,0,0,24,19.8a4.232,4.232,0,0,0,1.893-.54c.27-.192.654.055.751-.352a2.35,2.35,0,0,1,1,.856,6.319,6.319,0,0,0,3.333,2.449,4.234,4.234,0,0,0,1.341.264c.7-.033,1.411-.008,2.115-.008.3.315.61.62.9.941a8.573,8.573,0,0,0,2.207,1.919,1.608,1.608,0,0,1,.726.884,7.71,7.71,0,0,0-.337,3.345,6.071,6.071,0,0,0,.955,2.673,5.759,5.759,0,0,0,1.718,1.815,4.287,4.287,0,0,1,.681.693v.64a8.3,8.3,0,0,0-1.2,2.879,5.581,5.581,0,0,0-.13,1.52,8.2,8.2,0,0,0,.906,3.058A7.437,7.437,0,0,0,42.284,44.6a5.154,5.154,0,0,0,2.832,1.407,9.08,9.08,0,0,0,.949.157,6.547,6.547,0,0,0,6.14-3.857,6.9,6.9,0,0,0,.6-3.7,6.427,6.427,0,0,0-.666-2.179,7.39,7.39,0,0,0-1.685-2.185c-.163-.135-.358-.234-.529-.375a1.5,1.5,0,0,1-.655-.857,1.09,1.09,0,0,1,.76-.972,4.42,4.42,0,0,0,2.132-1.869,4.107,4.107,0,0,0,.362-.907A4.448,4.448,0,0,0,51.954,25a3.038,3.038,0,0,0-.754-.915,25.022,25.022,0,0,1-1.84,1.891,10.293,10.293,0,0,1-2.219,1.44,8.8,8.8,0,0,1-1.235.506,6.633,6.633,0,0,1-1.209.361,8.224,8.224,0,0,1-2.452.176l-.6-.63a1.484,1.484,0,0,1,.6-1.113,6.015,6.015,0,0,0,.786,0,10.965,10.965,0,0,0,3.072-.8,10.483,10.483,0,0,0,2.244-1.368A7.4,7.4,0,0,0,50,22.72a9.21,9.21,0,0,0,.869-1.31,9.216,9.216,0,0,0,.958-3.215c.016-.386.163-.758.167-1.165a10.616,10.616,0,0,0-1.24-5.126A9.159,9.159,0,0,0,47.74,8.5,9.763,9.763,0,0,0,45.208,7.2a7,7,0,0,0-1.243-.3,8.714,8.714,0,0,0-1.627-.165,9.058,9.058,0,0,0-3.652.841,7.9,7.9,0,0,0-1.334.7c-.553.428-1.069.274-1.476-.336a3.205,3.205,0,0,0-2.053-1.363,3.405,3.405,0,0,0-.774-.21A4.3,4.3,0,0,0,29.981,7.66" transform="translate(-12.499 -4.597)" fill="#a1c154"/>
        <path id="Trazado_617247" data-name="Trazado 617247" d="M29.922,74.8v.612c-.119.266-.433.239-.593.448q-1.9,0-3.809,0c-.718,0-.78-.03-1.362-.621,0-.177,0-.353,0-.381a2.3,2.3,0,0,1,.72-1.075l3.715-3.875a11.828,11.828,0,0,1-.2-3.21c-.013-.175.179-.216.177-.463-.59-.7-1.457-1.165-2.128-1.861l-6.076,6.337H19.64l-.4-.511a8.174,8.174,0,0,1,.565-2.781c.209-.988.52-1.953.791-2.926.161-.578.331-1.153.516-1.8a22.85,22.85,0,0,1-2.267-1.743,4.009,4.009,0,0,0-.279.586,26.068,26.068,0,0,1-1.179,3.116c-.237.544-.406,1.122-.692,1.645a42.166,42.166,0,0,1-2.736,4.568c-.86,1.193-1.816,2.289-2.748,3.415-1.51,1.823-3.256,3.393-4.836,5.216v.575l.959,1,4.3-4.484h.9l.423.441V77.9L8.608,82.447l4.877,5.086h.587c.18-.188.368-.368.538-.564,1.131-1.3,2.437-2.41,3.663-3.606a12.987,12.987,0,0,1,1.662-1.33,11,11,0,0,0,1.357-1.309l-1.435-1.5H19.5l-2.688,2.814h-.7a1.931,1.931,0,0,1-.6-.849,1.986,1.986,0,0,1,.642-.961c.741-.768,1.488-1.532,2.214-2.316a2.067,2.067,0,0,1,1.278-.611,1.711,1.711,0,0,1,1.386.525c.477.46.913.965,1.387,1.428.246.241.278.593.491.866.4-.195.8-.387,1.2-.59a24.755,24.755,0,0,1,3.772-1.393,12.08,12.08,0,0,1,2.252-.518c.144-.013.278-.145.424-.227a6.3,6.3,0,0,1,.664-2.082c.066-.12.031-.224.054-.333a1.369,1.369,0,0,0-1.356-.177" transform="translate(-4.677 -44.025)" fill="#55a75d"/>
        <path id="Trazado_617248" data-name="Trazado 617248" d="M28.135,58.386a5.309,5.309,0,0,0,1.019,2.668A6.017,6.017,0,0,0,31.3,62.868c.489-.469.6-.724,1.632-3.865a7.776,7.776,0,0,1-4.8-.618" transform="translate(-20.633 -42.166)" fill="#a1c054"/>
        <path id="Trazado_617249" data-name="Trazado 617249" d="M87.1,103.445a.97.97,0,0,0,.6.185,4.941,4.941,0,0,1,.754-.009c.107.02.147-.048.194-.239-.254-.264-.564-.552-.831-.878a6.541,6.541,0,0,1-.753-.9,2.178,2.178,0,0,0-.757-.986,9.386,9.386,0,0,0-1.96,2.053c.8.148,1.569.014,2.342.084.143.214.486.317.41.69" transform="translate(-61.86 -72.665)" fill="#f0f2f3"/>
        <path id="Trazado_617250" data-name="Trazado 617250" d="M65.523,70.126a20.293,20.293,0,0,0-.677,2.8c.1,0,.142.013.159,0,.922-.764,1.665-1.721,2.584-2.589-.39-.109-.787.056-1.078-.086a1.72,1.72,0,0,0-.987-.122" transform="translate(-47.555 -50.63)" fill="#f4f6f7"/>
        <path id="Trazado_617251" data-name="Trazado 617251" d="M121.69,20.074c-.408.351-.313.708-.331,1.078a20.009,20.009,0,0,0,1.583,1.473,5.294,5.294,0,0,1,1.284,2.718c.046.251.242.439.2.72a4.381,4.381,0,0,0-.008.706c.134.345.449.471.763.639.116-.189.347-.1.533-.157a1.331,1.331,0,0,0,.4-1.159,8.271,8.271,0,0,0-1.032-3.44,7.53,7.53,0,0,0-2.719-2.744c-.429-.129-.549.179-.668.167" transform="translate(-88.999 -14.354)" fill="#050606"/>
        <path id="Trazado_617252" data-name="Trazado 617252" d="M109.9,16.609H109.3a1.89,1.89,0,0,0-.631.854,1.65,1.65,0,0,0,.587.9h.666a1.94,1.94,0,0,0,.61-.832,1.728,1.728,0,0,0-.627-.923" transform="translate(-79.689 -11.995)" fill="#0a1007"/>
        <path id="Trazado_617253" data-name="Trazado 617253" d="M34.28,110.021h.639l.392-.408v-.932a1.129,1.129,0,0,0-1.1-.392c-.112.036-.223.216-.346.365a2.326,2.326,0,0,0-.232.475,1.623,1.623,0,0,0,.644.893" transform="translate(-24.667 -78.19)" fill="#020f08"/>
      </g>
    </g>
  </g>
</svg>
