<svg xmlns="http://www.w3.org/2000/svg" xmlns:xlink="http://www.w3.org/1999/xlink" width="99.745" height="99.559" viewBox="0 0 99.745 99.559">
  <defs>
    <clipPath id="clip-path">
      <rect id="Rectángulo_326406" data-name="Rectángulo 326406" width="99.745" height="99.559" fill="none"/>
    </clipPath>
  </defs>
  <g id="Grupo_877641" data-name="Grupo 877641" clip-path="url(#clip-path)">
    <path id="Trazado_618090" data-name="Trazado 618090" d="M97.353,98.945l1.922-1.918c1.9-5.665-3.075-10.337-7.9-10.412a8.245,8.245,0,0,0,2.254-2.962,7.447,7.447,0,0,0,.989-3.473,11.12,11.12,0,0,0,3.011-2.493c.728-1.734.47-3.459.491-5.157.026-2.137-.039-4.275.017-6.41a17.857,17.857,0,0,0-2.778-9.728,14.893,14.893,0,0,0-3.878-4.307,26.228,26.228,0,0,0-4.9-2.756c-.166-.076-.279-.266-.508-.5.751-.973,1.922-1.479,2.769-2.359a21.66,21.66,0,0,0,3.8-6.214c.243-.525-.142-1.3.611-1.7,3.335-.021,5.255-1.945,6.446-5.306a7.124,7.124,0,0,0-.963-4.408,2.031,2.031,0,0,1-.141-1.825,20.994,20.994,0,0,0,1.013-9.643,14.241,14.241,0,0,0-1.048-4.4,23.607,23.607,0,0,0-1.985-4.036,19.481,19.481,0,0,0-8.06-7.024A8.476,8.476,0,0,0,86.041.887C85.162.807,84.4.165,83.483.436,82.16-.237,80.739.073,79.361.06,75.532.024,71.7.071,67.875.04a22.12,22.12,0,0,0-9.727,2.372,11.105,11.105,0,0,0-2.514,1.856c-2.436,2.145-4.8,4.4-5.846,7.655-.407,1.262-.847,2.5-1.181,3.794a19.67,19.67,0,0,0-.281,5.681,10.991,10.991,0,0,0,1.138,4.561,2.634,2.634,0,0,1-.242,2.9,6.3,6.3,0,0,0,2.665,9.125,4.244,4.244,0,0,0,2.961.476c.76,1.763,1.075,3.605,2.176,5.215a36.9,36.9,0,0,0,3.839,4.5H49.131a4.323,4.323,0,0,0-2.089,1.558H38.632c.124-7.62-2.615-10.628-6.512-13.126a13.153,13.153,0,0,0-6.4,13.033A3.594,3.594,0,0,0,22.77,51.68a2.98,2.98,0,0,0-.182,1.28c-.023,2.461-.011,4.922-.011,7.382a3.948,3.948,0,0,0,2.082,2.282h2.628a6.277,6.277,0,0,0,1.244,4.924c.764,1.016,2.124,1.109,3.2,1.631.687.332,1.419-.293,2.142-.42A4.086,4.086,0,0,0,35.82,67.42a10.837,10.837,0,0,0,1.2-2.009V62.662h9.953a5,5,0,0,0,2.153,1.5H59.514a25.853,25.853,0,0,1,.055,3.022,29.541,29.541,0,0,1-.024,3.106,2.52,2.52,0,0,1-.61,1.288,9.044,9.044,0,0,0-2.471,6.169c.009.323-.276.4-.424.677.678.913.216,2.05.481,3.06a7.847,7.847,0,0,0,1.142,2.62,6.667,6.667,0,0,0,2.276,2.545H46.807c.144-.347.191-.815.449-1.025a7.327,7.327,0,0,0,2.137-3.787,10.6,10.6,0,0,0-.614-7.74c-1.2-2.657-3.245-4.367-5.439-6.023-.16-.12-.483-.12-.626-.34a2.1,2.1,0,0,1-.215-.416c-1.436-.17-2.061.643-2.8,1.138A14.6,14.6,0,0,0,34.454,74.7a9.682,9.682,0,0,0-.569,2.479,14.453,14.453,0,0,0-.018,1.552,10.542,10.542,0,0,0,3.156,7.9H17.552V82.909a14.682,14.682,0,0,0,4.218-3.839,10.483,10.483,0,0,0,2.019-4.2,15.608,15.608,0,0,0,.361-2.374,8.441,8.441,0,0,0-.871-4.5c-.943-1.879-1.914-3.869-3.928-5.013a18.746,18.746,0,0,1-2.319-1.819c-1.664-.55-2.813.523-3.844,1.385a14.686,14.686,0,0,0-3.365,3.626A9.9,9.9,0,0,0,8.17,71.126c-.012.712.013,1.425,0,2.137a9.131,9.131,0,0,0,2.184,5.7,9.042,9.042,0,0,0,1.787,2.174,8.883,8.883,0,0,1,2.218,1.893v3.678c-2.124,0-4.247.01-6.37,0a7.525,7.525,0,0,0-5.333,2.179A8.372,8.372,0,0,0,.177,92.921,5.54,5.54,0,0,0,.334,96.2a3.4,3.4,0,0,1,.061.822L2.633,99.1c1.271.621,2.865.427,4.434.428q43.413,0,86.826.019a8.4,8.4,0,0,0,3.46-.6" transform="translate(0 0)" fill="#040506"/>
    <path id="Trazado_618091" data-name="Trazado 618091" d="M28.4,37.8a7.867,7.867,0,0,0,6.457-2.446,9.728,9.728,0,0,0,2.951-7.709,9.123,9.123,0,0,0-2.771-6.219A9.693,9.693,0,0,0,27.814,18.7c-4.477.024-9.567,4.454-9.241,10.349.224,4.059,4.653,9.4,9.829,8.752" transform="translate(-8.937 -9.006)" fill="#050606"/>
    <path id="Trazado_618092" data-name="Trazado 618092" d="M6.6,34.376l-.486-.485H.1V37.3a25.966,25.966,0,0,0,2.942.047c1.025.019,2.051,0,3.031,0l.519-.518Z" transform="translate(-0.05 -16.322)" fill="#121313"/>
    <path id="Trazado_618093" data-name="Trazado 618093" d="M33.907,6.266l.486.485H36.8l.5-.5V.274H33.907Z" transform="translate(-16.33 -0.132)" fill="#121313"/>
    <path id="Trazado_618094" data-name="Trazado 618094" d="M37.246,68.526V62.441H33.821a26.921,26.921,0,0,0-.045,2.946c-.019,1.024,0,2.049,0,3.139Z" transform="translate(-16.257 -30.072)" fill="#101010"/>
    <path id="Trazado_618095" data-name="Trazado 618095" d="M62.4,33.945v3.374h6.161c.077-1.056.013-2.185.04-3.374Z" transform="translate(-30.053 -16.348)" fill="#101010"/>
    <path id="Trazado_618096" data-name="Trazado 618096" d="M15.752,54.855,13.773,52.88,9.279,57.365l1.839,1.729-.231.231c.129,0,.313.056.378-.008,1.5-1.478,2.994-2.971,4.487-4.461" transform="translate(-4.469 -25.467)" fill="#080809"/>
    <path id="Trazado_618097" data-name="Trazado 618097" d="M54.764,52.539l-2.112,2.108,4.577,4.566c.841-.388,1.318-1.25,2.141-1.9-1.423-1.738-3.094-3.133-4.605-4.773" transform="translate(-25.358 -25.303)" fill="#080809"/>
    <path id="Trazado_618098" data-name="Trazado 618098" d="M13.327,15.659l2.112-2.107L10.865,8.984c-.842.389-1.32,1.251-2.143,1.9,1.423,1.738,3.094,3.133,4.605,4.773" transform="translate(-4.201 -4.327)" fill="#080809"/>
    <path id="Trazado_618099" data-name="Trazado 618099" d="M53.174,13.838l1.8,1.769,4.551-4.542A15.3,15.3,0,0,0,57.8,9.225l-4.623,4.613" transform="translate(-25.609 -4.443)" fill="#080809"/>
    <path id="Trazado_618100" data-name="Trazado 618100" d="M143.835,40.084c-.287.287-.374.453-.471.458-1.569.1-3.148.408-4.7-.167a1.4,1.4,0,0,0-.543-.092c-2.148.1-4.057-.782-6.031-1.412a9.545,9.545,0,0,1-2.159-.9,3.626,3.626,0,0,0-1.967-.426c-4.345.034-8.69.017-13.163.017-.362.687-1.33.755-1.8,1.44-.407.6-.716,1.258-1.108,1.962,0,4.307.034,8.708-.011,13.109a11.426,11.426,0,0,0,3.312,7.953,19.163,19.163,0,0,0,1.792,1.78,18.136,18.136,0,0,0,4.941,2.155,14.221,14.221,0,0,0,3.934.357c1.815.008,3.632,0,5.448,0a14.2,14.2,0,0,0,6.038-1.864A11.661,11.661,0,0,0,142.8,58.6a9.223,9.223,0,0,0,1-3.647c.1-4.844.041-9.691.041-14.868" transform="translate(-53.887 -18.08)" fill="#efc5a5"/>
    <path id="Trazado_618101" data-name="Trazado 618101" d="M98,179.754l1.351-1.312a6.837,6.837,0,0,0-1.172-3.224,5.354,5.354,0,0,0-2.458-1.661c-1.486-.537-2.975-.291-4.539-.375v3.44H88.116v-3.368H69.106l-.567.566v2.83h-3V173.41c-1.69-.3-13.424-.391-19.091-.15v2.785l-.593.591H43.409l-.534-.533v-2.849H20.735v2.915c-1.126.911-2.318.34-3.485.565v-3.317a26.816,26.816,0,0,0-8.183.165c-1.065.272-2.723,2-2.751,3.124-.015.611-.722.954-.507,1.658l.657.657.734.732Z" transform="translate(-2.778 -83.376)" fill="#c58b61"/>
    <path id="Trazado_618102" data-name="Trazado 618102" d="M109.065,115.857c.559-.438,1.19-.358,1.4-.886a13.73,13.73,0,0,1,5.084,3.607,13.927,13.927,0,0,1,2.929,5.593c.692,2.321.086,4.4-.5,6.514a7.141,7.141,0,0,1-1.442,2.3,5.7,5.7,0,0,0-.786,1.388h12.463c-.244-1.057-1.275-1.45-1.571-2.361a25.068,25.068,0,0,0-1.217-2.644c-.066-5.872-.027-5.855.764-7.663,1.149-2.626,3.239-4.387,5.5-6.047v-9.916h3.064v6.134h6.11c.1-3.857-3.219-9.943-9.87-12.047-.3,1.267-.149,2.576-.419,3.849a21.764,21.764,0,0,0-.431,3.9,24.073,24.073,0,0,1-.583,4.034,37.612,37.612,0,0,1-4.006-2.91,23.844,23.844,0,0,1-3.816-3H119.08l-8.223,6.11c.4-1.009-.262-1.431-.238-2.074s-.021-1.3.012-1.941c.042-.822-.517-1.5-.433-2.367a3.268,3.268,0,0,0-.312-2.387c-.242-.351-.03-1.008-.043-1.525-.02-.8.213-1.659-.914-2.376H96.3v9.617h9.633v-3.024h3.133Z" transform="translate(-46.378 -47.749)" fill="#ffcd58"/>
    <path id="Trazado_618103" data-name="Trazado 618103" d="M117.123,18.869c-1.64-1.875-3.514-3.244-4.709-5.226a5.4,5.4,0,0,1,2.713-1.753c5.656,7.061,12.808,10.7,21.968,10.051l.534-.533V19.868c-.229-.587-.962-.516-1.368-1.031h-1.688V15.778c1.475-.015,2.938-.217,4.289.745a5.37,5.37,0,0,1,1.918,2.819c.591,1.682.3,3.392.358,5.09.047,1.347.009,2.7.009,4.031.624.288,1.349-.145,1.77.471.823-.342.32-1.351.956-1.764-.136-1.65.738-3.245.365-4.882-.328-1.44-.262-2.925-.726-4.353a15.545,15.545,0,0,0-1.616-3.793A16.845,16.845,0,0,0,132.413,6.8c-.793-.23-1.6-.222-2.365-.4-2.342-.56-4.7-.3-7.048-.341-2.4-.046-4.8-.112-7.2.017a18.077,18.077,0,0,0-8.086,2.057,7.472,7.472,0,0,0-2.274,1.522c-.578.707-1.625.914-1.923,1.882-1.7,1.216-2.22,3.212-3.268,4.861-.47.74-.2,1.7-.773,2.4.038,1.835-1.027,3.669,0,5.5-.266,1.482.607,2.74.872,4.208h1.8a23.5,23.5,0,0,1,.382-3.161,8.709,8.709,0,0,1,2.352-4.269,9.541,9.541,0,0,1,3.7-1.857c1.769-.54,3.535-.251,5.3-.34,1.019-.051,2.042-.009,3.236-.009" transform="translate(-47.693 -2.888)" fill="#525a66"/>
    <path id="Trazado_618104" data-name="Trazado 618104" d="M24.806,132.544l-1.2-2.516c.6-1.174,1.844-.951,2.4-1.795,1.159.853,1.182,2.176,2.013,3.125v7.323a34.483,34.483,0,0,0,2.3-2.634c.721-.961.539-2.1,1.035-3.077.565-1.109-.658-2.125-.23-3.162-2.09-3.592-2.743-4.313-4.854-5.343-.935.933-1.968,1.82-2.823,2.854a7.023,7.023,0,0,0-1.691,4.138c-.15,2.811,1,5.068,3.051,7.206Z" transform="translate(-10.471 -59.943)" fill="#aec869"/>
    <path id="Trazado_618105" data-name="Trazado 618105" d="M121.1,150.758a.7.7,0,0,0,.964-.278,7.456,7.456,0,0,0,2.159-5.309c-.048-.9-.008-1.8-.079-2.656-.758-2.243-2.425-3.753-4.089-5.268-1.518.066-2.349,1.179-3.194,2.149a7.4,7.4,0,0,0-1.968,3.819,8.924,8.924,0,0,0,3.091,8c0-2.276.076-4.2-.041-6.1a4.252,4.252,0,0,0-.887-1.936,1.807,1.807,0,0,1-.233-1.068l2.585-1.292a.221.221,0,0,1,.088.092,24.29,24.29,0,0,1,1.527,3.229,20.792,20.792,0,0,1,.077,4.439Z" transform="translate(-55.291 -66.099)" fill="#aec86a"/>
    <path id="Trazado_618106" data-name="Trazado 618106" d="M163.775,137.328h-1.21c-.668.667-1.315,1.3-1.95,1.948a6.89,6.89,0,0,0-2.1,5.141,7.732,7.732,0,0,0,.308,2.971,5.41,5.41,0,0,0,1.136,2.052,2.525,2.525,0,0,1,.581.926.76.76,0,0,0,1.075.447,39.409,39.409,0,0,0-.065-5.289,11.178,11.178,0,0,0-1.421-3.048c.751-.821,1.934-.953,2.853-1.623l1.749,3.395c0,2.165,0,4.491,0,6.817,0,.049.072.1.11.147,3.79-3.662,4.8-8.911-1.073-13.884" transform="translate(-76.341 -66.138)" fill="#aec86a"/>
    <path id="Trazado_618107" data-name="Trazado 618107" d="M76.431,137.124c-3.055.975-4.41,3.491-5.061,6.108-.713,2.867.335,5.549,2.892,7.6a15.828,15.828,0,0,0,.1-2.964c.023-1.032.005-2.065.005-2.884a17.419,17.419,0,0,1-1.272-2.851l2.7-1.372c.987.986,1.181,2.522,2.146,3.764v6.385a8.485,8.485,0,0,0,2.716-4.779,4.25,4.25,0,0,0,.27-2.154c-.512-1.532-.775-3.195-2.029-4.4-.794-.762-1.56-1.552-2.467-2.456" transform="translate(-34.267 -66.04)" fill="#afc86a"/>
    <path id="Trazado_618108" data-name="Trazado 618108" d="M80.6,108.572l.476-.475v-5.5a1.294,1.294,0,0,0-1.193-.577c-2.261.029-4.523.012-6.935.012.129,1.28-.652,2.081-1.531,2.847v3.693Z" transform="translate(-34.394 -49.133)" fill="#edc3a3"/>
    <path id="Trazado_618109" data-name="Trazado 618109" d="M59.313,78.872a1.056,1.056,0,0,0-1.25.371c-1.948,2.6-2.492,4.489-2.492,8.657.612.467,1.5.532,1.959,1.234a5.275,5.275,0,0,0,1.386,1.718h3.275a43.177,43.177,0,0,0-.056-5.921,9.31,9.31,0,0,0-2.823-6.06" transform="translate(-26.763 -37.96)" fill="#bfc6cf"/>
    <path id="Trazado_618110" data-name="Trazado 618110" d="M171.073,129.908l-.471.47c.6,1.1,1.831,1.471,2.655,2.328.783.815,1.314,1.806,2.016,2.646.773.927.723,2.239,1.678,3.01a.521.521,0,0,0,.135-.081.278.278,0,0,0,.085-.156c0-2.58,0-5.161,0-7.7l-.518-.517Z" transform="translate(-82.163 -62.565)" fill="#e7bfa0"/>
    <path id="Trazado_618111" data-name="Trazado 618111" d="M62.473,108.866H61.044c-.347,1.66-.239,3.465-1.655,4.8v3.915c.568.894,1.406.483,2.115.565a3.141,3.141,0,0,0,.986-2.523c-.055-2.24-.017-4.482-.017-6.76" transform="translate(-28.602 -52.431)" fill="#959fab"/>
    <path id="Trazado_618112" data-name="Trazado 618112" d="M52.649,102.9a3.07,3.07,0,0,0-2.944-.813v6.47a2.922,2.922,0,0,0,2.944-.8Z" transform="translate(-23.938 -49.134)" fill="#ebc1a2"/>
    <path id="Trazado_618113" data-name="Trazado 618113" d="M153.3,99.113h-2.155c-1.193,1.1-.953,2.755-1.779,3.888.791,1.234,2.183,1.618,2.963,2.7.311-.3.17-.8.665-1.007-.435-1.82.461-3.58.306-5.579" transform="translate(-71.935 -47.733)" fill="#feb414"/>
    <path id="Trazado_618114" data-name="Trazado 618114" d="M132.232,103.207l-1.41-4.057H128.5c-.387,2.036.726,4.019.3,5.955l.608.607c.784-1.059,2.162-1.418,2.817-2.5" transform="translate(-61.849 -47.751)" fill="#ffb515"/>
    <path id="Trazado_618115" data-name="Trazado 618115" d="M100.92,55.979a5.222,5.222,0,0,0-1.743,2.5c-.018,1.913.707,2.916,3.019,3.72V55.65a1.861,1.861,0,0,1-1.276.329" transform="translate(-47.764 -26.801)" fill="#ecc2a2"/>
    <path id="Trazado_618116" data-name="Trazado 618116" d="M183.127,57.285l-1.344-1.341c-.425-.154-.975.083-1.354-.546v6.724c1.255-.16,1.888-1.063,2.655-1.782-.307-.631.4-1,.4-1.584,0-.531-.739-.8-.36-1.471" transform="translate(-86.896 -26.68)" fill="#ebc2a2"/>
    <path id="Trazado_618117" data-name="Trazado 618117" d="M139.735,99.174c.653.992.41,2.314,1.474,3.129,1.3-.651.848-2.17,1.663-3.129Z" transform="translate(-67.297 -47.763)" fill="#e0b99b"/>
    <path id="Trazado_618118" data-name="Trazado 618118" d="M31.17,24.83a6.367,6.367,0,0,0-6.3,6.482c.191,3.9,2.335,6.286,6.442,6.255,3.9-.029,6.3-2.3,6.267-6.4-.029-3.89-2.3-5.984-6.411-6.34" transform="translate(-11.975 -11.958)" fill="#ffcd58"/>
    <path id="Trazado_618119" data-name="Trazado 618119" d="M143.215,68.393H126.989a8.985,8.985,0,0,0,1.531,6.3,7.4,7.4,0,0,0,4.357,2.926,4.825,4.825,0,0,0,2.737.442,12.984,12.984,0,0,0,2.764-.819,7.35,7.35,0,0,0,2.566-1.756,9.46,9.46,0,0,0,1.742-2.949,9.19,9.19,0,0,0,.529-4.148" transform="translate(-61.105 -32.939)" fill="#060606"/>
    <path id="Trazado_618120" data-name="Trazado 618120" d="M114.948,56.082H118c-.054-1.377.859-2.166,1.744-3.011.552.073,1.009-.29,1.607-.5a9.065,9.065,0,0,1,2.336,1.243c.658.583.339,1.69,1.188,2.308h2.886a6.17,6.17,0,0,0-1.837-4.659,6.634,6.634,0,0,0-4.206-1.971c-3.223-.353-7.15,2.645-6.767,6.585" transform="translate(-55.347 -23.824)" fill="#090808"/>
    <path id="Trazado_618121" data-name="Trazado 618121" d="M145.783,56.2h2.866c.129-.573.805-.956.545-1.713.723-.469,1-1.546,2.135-1.388.8-.984,1.6.205,2.4,0l1.365,1.365c-.18.691.355,1.148.537,1.7H158.5c.5-3.639-2.829-6.376-5.611-6.507-4.334-.2-6.851,2.289-7.107,6.549" transform="translate(-70.21 -23.908)" fill="#080808"/>
    <path id="Trazado_618122" data-name="Trazado 618122" d="M134.52,74.439c.49,1.571.49,1.571,2.887,3.04h2.6c1.345-.731,2.832-1.212,3.051-3.04Z" transform="translate(-64.786 -35.85)" fill="#e8675a"/>
  </g>
</svg>
