<svg xmlns="http://www.w3.org/2000/svg" xmlns:xlink="http://www.w3.org/1999/xlink" width="70.154" height="62.78" viewBox="0 0 70.154 62.78">
  <defs>
    <clipPath id="clip-path">
      <rect id="Rectángulo_326201" data-name="Rectángulo 326201" width="70.154" height="62.78" fill="none"/>
    </clipPath>
  </defs>
  <g id="Grupo_877361" data-name="Grupo 877361" clip-path="url(#clip-path)">
    <path id="Trazado_617038" data-name="Trazado 617038" d="M20.008,3.334c-.907,0-1.817-.036-2.721.018-.359.022-.546-.244-.84-.292-.348.242-.432.7-.933,1.065-1.014.413-2.26.122-3.474.19-.592.034-1.187,0-1.78.01C7.83,4.378,6.5,5.648,6.488,8.044q-.045,8.424,0,16.849A3.39,3.39,0,0,0,10.23,28.64c6.482.027,12.964.005,19.446.015a2.522,2.522,0,0,0,2.334-1.12A17.926,17.926,0,0,1,38.161,21.8a2.7,2.7,0,0,0,.659-.486,1.336,1.336,0,0,0,.291-.573,15.758,15.758,0,0,0-2.438-4.69c-1.913,1.186-1.7,3.833-3.457,4.825a1.485,1.485,0,0,1-1.3-.906c-1.184-1.956-2.173-4.014-3.173-6.067a2.42,2.42,0,0,1-.148-.383c-.149-.516-.185-1.024.379-1.308s.975.03,1.3.448a19.091,19.091,0,0,1,1.518,2.754c.3.551.522,1.179,1.258,1.375.922-.588,1.1-1.648,1.622-2.481.49-.784.608-1.86,1.82-2.248,1.884.985,1.913,3.486,3.551,4.807,1.8-1.205,1.567-3.857,3.48-4.822,1.13.419.934,1.133.624,1.837-.607,1.379-1.187,2.77-1.884,4.107a2.522,2.522,0,0,0-.365,1.955c2.373-.237,4.761-.279,7.156-.546a3.782,3.782,0,0,0-.768-2.472A27.033,27.033,0,0,1,46.7,13.893c-.286-.713-.44-1.44.682-1.821,2,.942,1.779,3.66,3.615,4.933,1.515-1.412,1.522-3.7,3.253-5.044,2.231.9,2.015,3.694,3.81,5.027,1.618-1.349,1.522-3.858,3.3-4.922.9.167,1.2.711.962,1.332a50.539,50.539,0,0,1-3.492,7.11c-.113.2-.36.271-.762.355-2-.827-1.669-3.718-3.764-4.743A7.4,7.4,0,0,0,52.413,20a2.711,2.711,0,0,0,1.645,1.326,17.392,17.392,0,0,1,6.954,6.024,2.6,2.6,0,0,0,2.374,1.306c1.642-.041,3.287.023,4.93-.022a3.341,3.341,0,0,0,3.553-3.516q.075-8.63,0-17.26c-.019-2.294-1.432-3.53-3.949-3.534q-13.352-.024-26.7-.007c-4.154,0-8.309-.025-12.462.016a3.739,3.739,0,0,1-2.993-1H22.747c-1.331,1.294-1.408,1.294-2.739,0" transform="translate(-4.107 -1.944)" fill="#ffb757"/>
    <path id="Trazado_617039" data-name="Trazado 617039" d="M21.653,1.39c-.127.392.329.61.29.976.182.2.54.088.664.394,13.871,0,27.745.019,41.619-.03a3.411,3.411,0,0,1,2.81,1.483A2.289,2.289,0,0,1,67.41,5.7c-.02,6.164-.013,12.327-.013,18.49a4.334,4.334,0,0,1-2.153,2.132h-7.3c-1.833-3.085-4.19-5.74-9.454-8.091a28.814,28.814,0,0,1,1.769-3.965c1.454,1.511,1.7,3.769,3.245,5.175a1.511,1.511,0,0,0,1.411-.3,44.718,44.718,0,0,0,2.055-4.012,27.256,27.256,0,0,0,1.924-4.156,2.992,2.992,0,0,0-.973-1.359H56.765a28.892,28.892,0,0,0-2.76,5.347c-1.241-1.736-1.6-3.881-3.143-5.326H49.658c-1.23,1.482-1.829,3.405-2.675,5.175-.322.05-.319-.144-.423-.368-.463-1-1.032-1.946-1.5-2.941a4.723,4.723,0,0,0-1.38-1.887,2.12,2.12,0,0,0-1.709.607V11.71l2.967,5.508a9.992,9.992,0,0,1-1.847.059,15.479,15.479,0,0,1-1.779-.007c-.635-.056-1.229.3-1.8.24-.6-.062-1.047.568-1.692.214a5.353,5.353,0,0,1,.852-1.917c.78-1.37,1.191-2.9,2-4.243.369-.612.011-1.072-.161-1.587a1.631,1.631,0,0,0-2.062,0L36,14.889,33.32,9.959a1.449,1.449,0,0,0-2.178.385l-2.2,4.417c-.29-.107-.339-.391-.487-.64a40.4,40.4,0,0,0-2.306-4.207c-.577-.279-1.255-.647-1.943.134-.539.615-.373,1.287.034,2.04.742,1.374,1.3,2.852,2.095,4.193a21.753,21.753,0,0,0,1.94,3.173h1.162a2.755,2.755,0,0,0,.976-1.309c.651-1.285,1.281-2.579,1.987-4.006.577,1.143,1.072,2.139,1.581,3.128a2.791,2.791,0,0,0,.667,1.093c.285.216.065.5.169.69a18.278,18.278,0,0,0-7.863,7.274c-6.981,0-14.009-.026-21.037.021a3.038,3.038,0,0,1-2.926-1.832,1.214,1.214,0,0,0-.215-.22V4.817A3.76,3.76,0,0,1,3.862,3.431,2.126,2.126,0,0,1,5.5,2.75c2.053.027,4.106.009,6.153.009l.684-.684q0-.48,0-.96c.121-.579-.432-.738-.681-1.1C9.565.02,7.465-.034,5.37.034A5.142,5.142,0,0,0,.482,3.275a5.031,5.031,0,0,0-.472,2c.007,6.161-.04,12.323.027,18.483A5.05,5.05,0,0,0,3.3,28.621a5.835,5.835,0,0,0,2.281.455c6.251-.023,12.5-.013,18.752-.013H25.7a18.167,18.167,0,0,0-.781,9.044,19.04,19.04,0,0,0,3.613,8.087,11.849,11.849,0,0,0,1.734,1.746,10.752,10.752,0,0,0,1.7,1.5c.659.383,1.282.872,1.951,1.259a14.861,14.861,0,0,0,1.944.919c.705.281,1.432.515,2.161.73.71.21,1.5.161,2.172.384a6.854,6.854,0,0,0,2.389.144c.735-.013,1.534.316,2.215-.244a5.017,5.017,0,0,0,2.336-.328,11.562,11.562,0,0,0,2.027-.708,6.355,6.355,0,0,1,2.188-.912l.717.717c2.871,2.872,5.758,5.729,8.6,8.627A29.456,29.456,0,0,0,62.99,62.04a4.664,4.664,0,0,0,4.906.086,4.719,4.719,0,0,0,2.216-4.659,3.44,3.44,0,0,0-.653-1.763,17.216,17.216,0,0,0-1.8-2.15,31.888,31.888,0,0,0-3.676-3.346c-.559-.274-.989.276-1.519.226-.975.949-.52,1.844.178,2.644,1.019,1.169,2.175,2.209,3.261,3.316a4.165,4.165,0,0,1,.931,1.171,1.3,1.3,0,0,1-.286,1.512,1.337,1.337,0,0,1-1.609.386,3.247,3.247,0,0,1-.975-.74q-4.556-4.539-9.095-9.095a1.256,1.256,0,0,1-.473-.755c.73-1.332,2.416-2.018,2.864-3.646a.946.946,0,0,1,.181-.614,15.466,15.466,0,0,0,2.516-6.068,11.411,11.411,0,0,0,.33-3.579c-.08-.629.194-1.385-.068-1.888-.311-.6,0-1.2-.254-1.678a13.5,13.5,0,0,1-.489-1.717c-.07-.189-.252-.324-.256-.621,1.826,0,3.642.033,5.456-.008a5.187,5.187,0,0,0,4.943-3.166,4.767,4.767,0,0,0,.5-1.979c.022-6.256.066-12.513-.022-18.767a4.782,4.782,0,0,0-2.3-4.109,5.435,5.435,0,0,0-3.015-1Q43.694,0,22.608.02c-.158.17-.3.36-.572.262-.067.414-.487.666-.384,1.108" transform="translate(0 0)" fill="#040506"/>
    <path id="Trazado_617040" data-name="Trazado 617040" d="M150.8,124.012c-.651.22-.7.957-1.18,1.357-.837.694-1.563,1.523-2.381,2.342l4.878,4.879,5.117,5.118c.161.161.319.325.483.482,1.366,1.3,2.758.331,3.2-1.007a1.64,1.64,0,0,0-.63-1.635c-1.2-1.186-2.383-2.381-3.574-3.571a3.02,3.02,0,0,1-.568-.586c-.3-.555-.758-1.12-.145-1.773.068-.072.009-.264.009-.4a2.776,2.776,0,0,1-1.1-1.1c-.575-.457-1.606.26-1.947-.748-.252-.5.249-.96.029-1.444-.165-.033-.354.079-.5-.086a13.587,13.587,0,0,1-1.694-1.832" transform="translate(-93.539 -78.783)" fill="#e4464e"/>
    <path id="Trazado_617041" data-name="Trazado 617041" d="M43.558,1.424c-.125.38.321.6.281.961a1.631,1.631,0,0,0,2.1.051c.076-.324.448-.586.355-1.012.142-.386-.351-.589-.268-.952a1.638,1.638,0,0,0-2.115-.06c-.076.324-.448.586-.356,1.012" transform="translate(-27.658 -0.034)" fill="#0f0d0b"/>
    <path id="Trazado_617042" data-name="Trazado 617042" d="M162.049,128.78c-.055.337-.408.448-.53.686a2.743,2.743,0,0,0,.02.832c.064.185.313.306.25.5.7.714,1.442.412,2.177.173-.049-.528.5-.946.179-1.6l-.852-.852a1.592,1.592,0,0,0-1.244.262" transform="translate(-102.596 -81.632)" fill="#0e0a0a"/>
    <path id="Trazado_617043" data-name="Trazado 617043" d="M21.426,36.209a4.944,4.944,0,0,0,1.38-1.9,22.02,22.02,0,0,0,1.349-3c.029-.114.184-.2.372-.383l2.43,4.79a1.767,1.767,0,0,0,1.586.46A5.753,5.753,0,0,0,30.5,33.1c.538-1.391,1.3-2.655,1.906-4,.1-.218.04-.565.365-.669V26.991a2.3,2.3,0,0,0-1.706-.645,5.78,5.78,0,0,0-1.822,2.9,12.532,12.532,0,0,1-1.17,2.3c-1.266-1.586-1.725-3.593-2.957-5.159H23.867a5.97,5.97,0,0,0-1.523,2.483,8.432,8.432,0,0,1-1.4,2.655c-1.173-1.628-1.808-3.565-2.919-5.167H16.8a2.907,2.907,0,0,0-.967,1.322,12.994,12.994,0,0,0,1.236,2.507c.386.8.824,1.573,1.217,2.368.411.832.819,1.666,1.185,2.518a1.779,1.779,0,0,0,1.955,1.136" transform="translate(-10.058 -16.737)" fill="#050506"/>
    <path id="Trazado_617044" data-name="Trazado 617044" d="M90.26,85.105a15.344,15.344,0,0,0,10.907-4.8,14.976,14.976,0,0,0-.63-21.246A15.049,15.049,0,0,0,75.194,70.573a14.64,14.64,0,0,0,4.73,10.36A15.466,15.466,0,0,0,90.26,85.105" transform="translate(-47.761 -34.901)" fill="#fff"/>
    <path id="Trazado_617045" data-name="Trazado 617045" d="M95.514,87.266A12.11,12.11,0,1,0,86.872,83.7a11.779,11.779,0,0,0,8.642,3.569" transform="translate(-52.949 -40.095)" fill="#040506"/>
    <path id="Trazado_617046" data-name="Trazado 617046" d="M109.55,80.321a9.31,9.31,0,0,0-3.11-7.151,8.836,8.836,0,0,0-6.5-2.507,9.014,9.014,0,0,0-6.629,3.189,8.768,8.768,0,0,0-2.41,6.54,9.039,9.039,0,0,0,3.185,6.494,8.767,8.767,0,0,0,6.538,2.411,9.25,9.25,0,0,0,6.5-3.176c1.188-1.237,2.551-3.971,2.423-5.8" transform="translate(-57.742 -44.889)" fill="#64c5f3"/>
    <path id="Trazado_617047" data-name="Trazado 617047" d="M117.368,84.435a2.9,2.9,0,0,0,.934,2.573h1.155l.617-.8a5.024,5.024,0,0,0-.835-3.931,5.7,5.7,0,0,0-5.924-2.571l-.606.621v1.038a1.959,1.959,0,0,0,1.767.972,3.036,3.036,0,0,1,2.645,1.849,1.608,1.608,0,0,0,.247.252" transform="translate(-71.602 -50.568)" fill="#040607"/>
  </g>
</svg>
