<svg id="Grupo_877660" data-name="Grupo 877660" xmlns="http://www.w3.org/2000/svg" xmlns:xlink="http://www.w3.org/1999/xlink" width="104.88" height="109.333" viewBox="0 0 104.88 109.333">
  <defs>
    <clipPath id="clip-path">
      <rect id="Rectángulo_326416" data-name="Rectángulo 326416" width="104.88" height="109.333" fill="none"/>
    </clipPath>
  </defs>
  <g id="Grupo_877659" data-name="Grupo 877659" clip-path="url(#clip-path)">
    <path id="Trazado_618376" data-name="Trazado 618376" d="M40.734,53.493a9.329,9.329,0,0,1-.91-2.342,4.429,4.429,0,0,1,1.3-1.289,10.188,10.188,0,0,0,4.753-8.415,6.635,6.635,0,0,0,5.488-2.856A6.175,6.175,0,0,0,52.6,34.031c-.339-3.115-2.364-5.791-7.053-6.367a8.6,8.6,0,0,0,6.5-5.426,8.1,8.1,0,0,0-.08-6.28c-1.7-4.208-7.132-6.433-11.038-4.235-3.1-3.294-6.98-4.9-11.37-4.122a11.7,11.7,0,0,0-9.247,7.012,8.071,8.071,0,0,0-3.886,1.83,12.5,12.5,0,0,0-3.18,3.53,28.593,28.593,0,0,0-1.3,3.7,10.682,10.682,0,0,0,.506,5.083,4.632,4.632,0,0,1-.161,3.884,5.577,5.577,0,0,0-.253,3.441,5.878,5.878,0,0,0,1.827,3.263,7.007,7.007,0,0,0,4.8,2.077,9.925,9.925,0,0,0,1.762,5.555c1.119,1.664,2.842,2.736,4.321,4.036a10.851,10.851,0,0,1-.908,2.488A29.068,29.068,0,0,0,12.65,58.32a32.311,32.311,0,0,0-8.374,8.959A24.871,24.871,0,0,0,2.25,71.321a13.245,13.245,0,0,0-1.31,4.328C.052,76.531.78,77.74.277,78.765-.249,79.836.149,81.1.1,82.284a12.777,12.777,0,0,0,.031,3.378c.7,2.966,1.6,5.859,3.841,8.152a14.088,14.088,0,0,0,5.584,3.929c.242.08.422.35.7.59v14.22H54.243V85.034c.907,1.238,1.635,1.937,2.305,2.76A12.011,12.011,0,0,0,63.09,91.86a14.383,14.383,0,0,0,3.228.362,11.972,11.972,0,0,0,6.354-2.041c2.414-1.392,3.678-3.67,4.711-6.069a8.363,8.363,0,0,0,.657-3.336c-.042-7.833-.021-15.666-.021-23.548a9.009,9.009,0,0,0,3.2-4.776,5.306,5.306,0,0,0,.176-1.4c.03-1.976.012-3.952.012-5.938-1.424-2.6-3.327-4.368-6.776-3.6,0-1.951-.035-3.764.014-5.575a3.13,3.13,0,0,0-1.03-2.542c-.807-.737-1.4-1.735-2.517-2.165a4.386,4.386,0,0,1-.818-.007c-2.436-.473-3.908,1.03-5.228,2.665a2.767,2.767,0,0,0-.617,1.861c.093,1.965.031,3.938.031,5.888-1.349.5-2,1.72-2.8,2.364-1.009,2.664-.6,5.193-.516,7.666a6.77,6.77,0,0,0,1.665,3.94c.357.434.791.8,1.276,1.289-.175,3.208-1.131,6.332-1.891,9.59a35.981,35.981,0,0,0-21.461-13" transform="translate(0 -3.22)" fill="#040506"/>
    <path id="Trazado_618377" data-name="Trazado 618377" d="M73.183,120.389c-.884-1.081-1.837-.7-2.537-.817l-.739-.612c.493-1.44.536-2.939,1.007-4.3a3.957,3.957,0,0,0,.258-1.57c-.039-.591.487-.913.484-1.519a4.78,4.78,0,0,0-1.031-2.985,36.751,36.751,0,0,0-4.688-5.021,20.412,20.412,0,0,0-5.208-3.61c-.293,1.9-1.039,3.576-.975,5.463l-.707.635H54.041L58.59,110.6c-1.378,2.4-2.164,4.768-3.912,6.7,0,7.786-.028,15.681.021,23.575.011,1.881-.431,3.36-2.751,4.115-6.414,0-13.254-.043-20.093.027-1.961.02-3.477-.444-4.284-2.583v-4.117H24.245v9.88c1.728.235,33.43.308,37.165.077V111.2h3.381V118.8a86.846,86.846,0,0,0,6.079,7.034,8.147,8.147,0,0,0,11.272-.034,8.71,8.71,0,0,0,2.754-4.377,6.177,6.177,0,0,0,.265-1.357q.018-11.007,0-22.012a2.031,2.031,0,0,0-.111-.436H78.094c-1.6,7.413-3.2,14.855-4.91,22.777" transform="translate(-10.54 -42.436)" fill="#35b6e6"/>
    <path id="Trazado_618378" data-name="Trazado 618378" d="M44.484,38.489a15.463,15.463,0,0,0-3.364,1.175c-1.07.613-1.319,1.81-2,2.864,0,4.081.014,8.3-.006,12.523a6.471,6.471,0,0,0,2.823,5.337,6.378,6.378,0,0,0,4.311,1.331c2.177-.121,4.366,0,6.548-.037a6.383,6.383,0,0,0,5.4-2.972,6.8,6.8,0,0,0,1.268-4.136c-.05-4.356-.017-8.714-.017-13.214-2.654,0-5.247-.118-7.826.031a9.018,9.018,0,0,1-7.138-2.9" transform="translate(-17.004 -16.733)" fill="#efc5a5"/>
    <path id="Trazado_618379" data-name="Trazado 618379" d="M36.258,154.546H56.444v-27.02c-1.008-.112-2.1-.017-3.263-.059v4.445c-.6.24-.4.877-.8,1.221a3.669,3.669,0,0,1-2.506,1.132c-2.609-.034-5.219-.011-7.828-.011-1.008-.538-2.111-.976-2.483-2.266V127.54H36.278v10.1c1.12,0,2.234,0,3.349,0a6.749,6.749,0,0,1,6.657,8.107,6.6,6.6,0,0,1-6.593,5.445c-1.12.007-2.24,0-3.433,0Z" transform="translate(-15.763 -55.415)" fill="#e0e4e9"/>
    <path id="Trazado_618380" data-name="Trazado 618380" d="M33.8,24.184c-1.016-.863-2.141-.156-3.106-.509-.387-.621.111-1.375-.292-2.032a9.837,9.837,0,0,0-2.89,4.247c-.711,1.795.058,3.3.151,4.925.6.363.994-.051,1.5-.248a4.725,4.725,0,0,1,1.638-.041c1.336-3.189,3.355-5.53,7-6.03-.716-.7-.382-1.492-.493-2.381,1.1-.125,2.19-.027,3.363-.07.028,2.119,1.4,3.364,2.7,4.543,1.989.83,4.009.505,6,.542,2.045.037,4.091-.015,6.136.014a5.342,5.342,0,0,0,5.03-3.093c.157-.286.083-.692.449-.854a5.245,5.245,0,0,0-5.968-6.221c-1,.625-2.145.871-2.751,1.821A9.35,9.35,0,0,1,50.5,21.351c-.793-.852-2.006-1.116-2.631-2.231L49.7,16.472a7.981,7.981,0,0,0-7.691-2.8,9.1,9.1,0,0,0-4.761,2.275,8.881,8.881,0,0,0-2.8,4.771c-.244,1.087-.293,2.255-.647,3.467" transform="translate(-11.831 -5.899)" fill="#a46434"/>
    <path id="Trazado_618381" data-name="Trazado 618381" d="M12.848,113.479h3.336v12.4l1.041,1.041h2.268a3.622,3.622,0,0,0,.122-1.762c.021-2.682.009-5.363.01-8.044,0-.746-.125-1.516.5-2.025a5.633,5.633,0,0,0-.9-1.9l4.781-4.771H18.37c-.776-1.811-.544-3.786-1.387-5.45a11.583,11.583,0,0,0-3.419,2.771,32.519,32.519,0,0,0-4.158,5.675c-1.469,2.345-1.928,5-2.911,7.485.3.932-.414,1.7-.42,2.577a26.625,26.625,0,0,0,.054,5.281c.734,3.7,2.329,6.949,5.99,8.71,1.125.541,2.106,1.445,3.5,1.3.129-.014.287.243.535.468v-7.072a8.888,8.888,0,0,1-3.3-3.407Z" transform="translate(-2.592 -44.762)" fill="#35b6e6"/>
    <path id="Trazado_618382" data-name="Trazado 618382" d="M114.046,74.686v3.45c0,2.687.4,3.645,2.328,5.574h8.873c.912-.889,1.982-1.69,1.932-3.284h-5.813a7.4,7.4,0,0,1-3.933-3.879V74.6l-1.066-1.043h-1.292l-1.03,1.129" transform="translate(-49.58 -31.978)" fill="#eec4a5"/>
    <path id="Trazado_618383" data-name="Trazado 618383" d="M37.956,151.576H30.2v6.712c2.437,0,4.88.094,7.309-.045a2.521,2.521,0,0,0,2.4-1.8c.054-.181.255-.318.361-.442.315-2.06-.287-3.637-2.32-4.421" transform="translate(-13.131 -65.896)" fill="#efc5a5"/>
    <path id="Trazado_618384" data-name="Trazado 618384" d="M49.26,85.658c.281.843-.565,1.385-.379,2.271,1.009,1.214,2.787,1.267,4.025,2.268a1.509,1.509,0,0,0,1.389-.089c1.27-.677,2.553-1.328,3.656-1.9.672-1.066-.605-1.636-.08-2.552Z" transform="translate(-21.239 -37.239)" fill="#eec4a4"/>
    <path id="Trazado_618385" data-name="Trazado 618385" d="M120.108,56.656v6.021c.75-.048,1,.645,1.511.932.828.132.828-1.216,1.781-.778V56.564l-.993-.993h-1.3l-.994,1.085" transform="translate(-52.215 -24.159)" fill="#edc4a4"/>
    <path id="Trazado_618386" data-name="Trazado 618386" d="M48.244,130.826h6.629v-3.3a28.839,28.839,0,0,0-3.207-.05c-1.116-.02-2.233,0-3.422,0Z" transform="translate(-20.973 -55.409)" fill="#afc96a"/>
    <path id="Trazado_618387" data-name="Trazado 618387" d="M74.716,95.812a30.436,30.436,0,0,0,.024,3.183c.109.964-.906,1.746-.326,2.8h3.977c.264-1.284.542-2.631.845-4.105a10.883,10.883,0,0,0-4.52-1.878" transform="translate(-32.272 -41.653)" fill="#21a0d1"/>
    <path id="Trazado_618388" data-name="Trazado 618388" d="M31.163,97.79l.79,4.016h4.014c.575-1.028-.461-1.89-.33-2.914a24.1,24.1,0,0,0,.026-2.967,21.9,21.9,0,0,0-4.5,1.866" transform="translate(-13.548 -41.702)" fill="#21a0d1"/>
    <path id="Trazado_618389" data-name="Trazado 618389" d="M126.034,74.785v1.136l1.266.978h5.429V74.52l-1.021-.952h-4.662l-1.012,1.217" transform="translate(-54.792 -31.983)" fill="#edc3a4"/>
    <path id="Trazado_618390" data-name="Trazado 618390" d="M57.656,116.231c-.7-2.194-1.368-4.3-2.063-6.4-.051-.156-.227-.374-.821-.213-.871.707-.622,2.117-1.073,3.229-.436,1.075-.787,2.185-1.212,3.383Z" transform="translate(-22.818 -47.631)" fill="#ffcc58"/>
    <path id="Trazado_618391" data-name="Trazado 618391" d="M30.469,56.344v-6.6c-2.4.057-3.333,1.254-3.333,4.207.692,1.409,1.525,2.607,3.333,2.4" transform="translate(-11.797 -21.623)" fill="#ebc1a2"/>
    <path id="Trazado_618392" data-name="Trazado 618392" d="M81.18,56.337c1.751.067,2.6-.977,3.29-2.383a3.767,3.767,0,0,0-.781-3.306A2.893,2.893,0,0,0,81.18,49.6Z" transform="translate(-35.292 -21.552)" fill="#ebc1a2"/>
    <path id="Trazado_618393" data-name="Trazado 618393" d="M47.292,109.783c.369-1.067.757-2.08,1.058-3.119a5.577,5.577,0,0,0,.018-1.384l-1.1-1.029c-.1,0-.186-.025-.241,0-.4.206-.8.423-1.251.663a23.745,23.745,0,0,0,1.516,4.866" transform="translate(-19.901 -45.318)" fill="#d5d9de"/>
    <path id="Trazado_618394" data-name="Trazado 618394" d="M66.49,104.924l-1.374-.683c-.614.111-.777.764-1.236.976-.348,1.666.774,2.959.911,4.691.973-1.7,1.111-3.427,1.7-4.983" transform="translate(-27.742 -45.317)" fill="#d5d9de"/>
    <path id="Trazado_618395" data-name="Trazado 618395" d="M69.634,119.183h2.4a3.771,3.771,0,0,0,1.726.941c.394-.455.207-.706-.068-.976-.953-.936-1.893-1.886-2.848-2.842a18.077,18.077,0,0,0-1.21,2.877" transform="translate(-30.273 -50.563)" fill="#1f98c6"/>
    <path id="Trazado_618396" data-name="Trazado 618396" d="M37.609,119.158H41.5l-1.046-2.936-2.846,2.936" transform="translate(-16.35 -50.526)" fill="#1f99c8"/>
    <path id="Trazado_618397" data-name="Trazado 618397" d="M45.283,95.02v2.224c.774-.5,1.727-.457,2.418-1.066L45.283,95.02" transform="translate(-19.686 -41.309)" fill="#b1b7c0"/>
    <path id="Trazado_618398" data-name="Trazado 618398" d="M64.651,96.178c.69.608,1.643.566,2.417,1.066V95.02l-2.417,1.158" transform="translate(-28.106 -41.309)" fill="#b1b7c0"/>
    <path id="Trazado_618399" data-name="Trazado 618399" d="M54.952,101.213c-.157.766.232.908.445,1.182.432.243.919.062,1.387.118.227-.314.714-.457.621-1.121a9.3,9.3,0,0,0-2.453-.179" transform="translate(-23.874 -44.001)" fill="#f8b013"/>
    <path id="Trazado_618400" data-name="Trazado 618400" d="M51.233,68.388c1.264,0,2.45.023,3.635,0a6.63,6.63,0,0,0,6.406-6.693H58.08a3.773,3.773,0,0,1-2.936,3.316H51.233Z" transform="translate(-22.273 -26.819)" fill="#060606"/>
    <path id="Trazado_618401" data-name="Trazado 618401" d="M46.181,49.563,45.147,50.65v1.288l1.3.978h1.067l1-1.133V50.558l-1.3-.76.232-.236Z" transform="translate(-19.627 -21.547)" fill="#0e0c0b"/>
    <path id="Trazado_618402" data-name="Trazado 618402" d="M66.512,50.629l-1.057-1.041H64.141l-.984,1.155v1.2l1.1,1.015h1.219l1.038-1.437Z" transform="translate(-27.457 -21.558)" fill="#0e0c0b"/>
    <path id="Trazado_618403" data-name="Trazado 618403" d="M150.912,8.856c-.185-.079-.276-.261-.425-.38-.058-.046-.019-.111-.031-.166-.129-.068-.269.053-.4-.02-.435-.269-.675-.781-1.152-.968a16.97,16.97,0,0,0-3.022,2.943c.026.212.194.332.33.469q2.974,2.978,5.953,5.952a.967.967,0,0,0,.556.37,1.631,1.631,0,0,0,1.113-.634q2.112-2.1,4.212-4.206,4.034-4.033,8.066-8.066c.168-.168.384-.306.428-.569a.482.482,0,0,0-.167-.314q-.779-.8-1.577-1.576a.575.575,0,0,0-.289-.166c-.276.01-.423.245-.6.422q-4.508,4.5-9.011,9a3.293,3.293,0,0,1-.659.556.868.868,0,0,1-1.125-.118c-.656-.63-1.286-1.288-1.938-1.922a1.218,1.218,0,0,1-.263-.61" transform="translate(-63.421 -0.663)" fill="#a4c35d"/>
    <path id="Trazado_618404" data-name="Trazado 618404" d="M152.048,20.725c-.056-.012-.118.025-.17-.031-.082-.089-.171-.172-.257-.258l-6.4-6.393,2.873-2.871h.143l.994.994c.329.207.382-.063.535-.089-.014-.076.07-.09.1-.165a2.746,2.746,0,0,0-.788-.927,3.573,3.573,0,0,0-.886-.8,2.132,2.132,0,0,0-.864.639q-1.315,1.323-2.638,2.638a1.331,1.331,0,0,0-.385.535c0,.034,0,.125,0,.216q3.347,3.345,6.691,6.692a3.743,3.743,0,0,0,1.354.8,1.183,1.183,0,0,0,.355.023,1.3,1.3,0,0,1,.221.018c.037.008.067.052.092.073.119,0,.174-.107.3-.1a2.258,2.258,0,0,0,1.353-.466,2.389,2.389,0,0,0,.474-.391q4.1-4.1,8.206-8.2a1.236,1.236,0,0,0,.359-.49c-.007-.1-.134-.162-.091-.28-.2-.241-.422-.193-.649-.055a2.635,2.635,0,0,0-.473.425c-2.6,2.593-5.213,5.167-7.773,7.794a2.4,2.4,0,0,1-2.672.668" transform="translate(-62.735 -4.429)" fill="#040506"/>
    <path id="Trazado_618405" data-name="Trazado 618405" d="M158,18.537c.093.148.25.142.4.19a2.124,2.124,0,0,0,2.02-.453q4.115-4.15,8.26-8.268l.064-.064c.355-.354.355-.354.828-.236a1.309,1.309,0,0,1,.455-.455,1.345,1.345,0,0,1,.488-.929c.62-.6,1.222-1.211,1.829-1.822a1.028,1.028,0,0,0,.357-.518c-.247-.322-.456-.722-.943-.828-.021.114-.123.165-.194.237q-6.316,6.318-12.634,12.633a3.041,3.041,0,0,1-.629.456.665.665,0,0,1-.3.057" transform="translate(-68.689 -2.241)" fill="#92bb58"/>
    <path id="Trazado_618406" data-name="Trazado 618406" d="M170.282,2.913a12.078,12.078,0,0,1,.914.861l-2.411,2.41a1.158,1.158,0,0,0-.22.227.5.5,0,0,0-.014.6c.089,0,.192-.031.213.095a1.019,1.019,0,0,0,.525-.331c.932-.935,1.866-1.868,2.807-2.808V3.718L168.377,0h-.327L157.674,10.371h-.288c-.635-.635-1.291-1.286-1.94-1.943a1.464,1.464,0,0,0-.46-.326c-.1.007-.162.134-.28.091a.527.527,0,0,0-.086.414c.708.708,1.425,1.4,2.117,2.127a1.05,1.05,0,0,0,.94.374.854.854,0,0,1,.137,0,3.628,3.628,0,0,0,.9-.679Q163.324,5.81,167.94,1.2l.337-.337c.21.21.4.4.588.59.468.491.988.93,1.415,1.459" transform="translate(-67.216)" fill="#040506"/>
    <path id="Trazado_618407" data-name="Trazado 618407" d="M150.912,37.141c-.185-.079-.276-.261-.425-.38-.058-.046-.019-.111-.031-.166-.129-.068-.269.053-.4-.02-.435-.269-.675-.781-1.152-.968a16.97,16.97,0,0,0-3.022,2.943c.026.212.194.332.33.469q2.974,2.978,5.953,5.952a.967.967,0,0,0,.556.37,1.631,1.631,0,0,0,1.113-.634q2.112-2.1,4.212-4.206,4.034-4.033,8.066-8.066c.168-.168.384-.306.428-.569a.482.482,0,0,0-.167-.314q-.779-.8-1.577-1.576a.575.575,0,0,0-.289-.166c-.276.01-.423.245-.6.422q-4.508,4.5-9.011,9a3.293,3.293,0,0,1-.659.556.868.868,0,0,1-1.125-.118c-.656-.63-1.286-1.288-1.938-1.922a1.218,1.218,0,0,1-.263-.61" transform="translate(-63.421 -12.96)" fill="#a4c35d"/>
    <path id="Trazado_618408" data-name="Trazado 618408" d="M152.048,49.01c-.056-.012-.118.025-.17-.031-.082-.089-.171-.172-.257-.258l-6.4-6.393,2.873-2.871h.143l.994.994c.329.207.382-.063.535-.089-.014-.076.07-.09.1-.165a2.746,2.746,0,0,0-.788-.927,3.573,3.573,0,0,0-.886-.8,2.132,2.132,0,0,0-.864.639q-1.315,1.323-2.638,2.638a1.331,1.331,0,0,0-.385.535c0,.034,0,.125,0,.216q3.347,3.345,6.691,6.692a3.743,3.743,0,0,0,1.354.8,1.183,1.183,0,0,0,.355.023,1.3,1.3,0,0,1,.221.018c.037.008.067.052.092.073.119,0,.174-.107.3-.1a2.258,2.258,0,0,0,1.353-.466,2.389,2.389,0,0,0,.474-.391q4.1-4.1,8.206-8.2a1.236,1.236,0,0,0,.359-.49c-.007-.1-.134-.162-.091-.28-.2-.241-.422-.193-.649-.055a2.635,2.635,0,0,0-.473.425c-2.6,2.593-5.213,5.166-7.773,7.794a2.4,2.4,0,0,1-2.672.668" transform="translate(-62.735 -16.726)" fill="#040506"/>
    <path id="Trazado_618409" data-name="Trazado 618409" d="M158,46.822c.093.148.25.142.4.19a2.124,2.124,0,0,0,2.02-.453q4.115-4.15,8.26-8.268l.064-.064c.355-.354.355-.354.828-.236a1.309,1.309,0,0,1,.455-.455,1.345,1.345,0,0,1,.488-.929c.62-.6,1.222-1.211,1.829-1.822a1.028,1.028,0,0,0,.357-.518c-.247-.322-.456-.722-.943-.828-.021.114-.123.165-.194.237q-6.316,6.318-12.634,12.633a3.041,3.041,0,0,1-.629.456.665.665,0,0,1-.3.057" transform="translate(-68.689 -14.537)" fill="#92bb58"/>
    <path id="Trazado_618410" data-name="Trazado 618410" d="M170.282,31.2a12.078,12.078,0,0,1,.914.861l-2.411,2.41a1.158,1.158,0,0,0-.22.227.5.5,0,0,0-.014.6c.089,0,.192-.031.213.095a1.019,1.019,0,0,0,.525-.331c.932-.935,1.866-1.868,2.807-2.808V32l-3.72-3.718h-.327L157.674,38.656h-.288c-.635-.635-1.291-1.286-1.94-1.943a1.465,1.465,0,0,0-.46-.326c-.1.007-.162.134-.28.091a.527.527,0,0,0-.086.414c.708.708,1.425,1.4,2.117,2.127a1.05,1.05,0,0,0,.94.374.854.854,0,0,1,.137,0,3.628,3.628,0,0,0,.9-.679q4.607-4.617,9.224-9.225l.337-.337c.21.21.4.4.588.59.468.491.988.93,1.415,1.459" transform="translate(-67.216 -12.297)" fill="#040506"/>
    <path id="Trazado_618411" data-name="Trazado 618411" d="M150.912,63.28c-.185-.079-.276-.261-.425-.38-.058-.046-.019-.111-.031-.166-.129-.068-.269.053-.4-.02-.435-.269-.675-.781-1.152-.968a16.97,16.97,0,0,0-3.022,2.943c.026.212.194.332.33.469q2.974,2.978,5.953,5.952a.967.967,0,0,0,.556.37,1.631,1.631,0,0,0,1.113-.634q2.112-2.1,4.212-4.206,4.034-4.033,8.066-8.066c.168-.168.384-.306.428-.569a.482.482,0,0,0-.167-.314q-.779-.8-1.577-1.576a.575.575,0,0,0-.289-.166c-.276.01-.423.245-.6.422q-4.508,4.5-9.011,9a3.293,3.293,0,0,1-.659.556.868.868,0,0,1-1.125-.118c-.656-.63-1.286-1.288-1.938-1.922a1.218,1.218,0,0,1-.263-.61" transform="translate(-63.421 -24.323)" fill="#a4c35d"/>
    <path id="Trazado_618412" data-name="Trazado 618412" d="M152.048,75.149c-.056-.012-.118.025-.17-.031-.082-.089-.171-.172-.257-.258l-6.4-6.393L148.1,65.6h.143l.994.994c.329.207.382-.063.535-.089-.014-.076.07-.09.1-.165a2.746,2.746,0,0,0-.788-.927,3.573,3.573,0,0,0-.886-.8,2.132,2.132,0,0,0-.864.639q-1.315,1.323-2.638,2.638a1.331,1.331,0,0,0-.385.535c0,.034,0,.125,0,.216q3.347,3.345,6.691,6.692a3.743,3.743,0,0,0,1.354.8,1.183,1.183,0,0,0,.355.023,1.3,1.3,0,0,1,.221.018c.037.008.067.052.092.073.119,0,.174-.107.3-.1a2.258,2.258,0,0,0,1.353-.466,2.389,2.389,0,0,0,.474-.391q4.1-4.1,8.206-8.2a1.236,1.236,0,0,0,.359-.49c-.007-.1-.134-.162-.091-.28-.2-.241-.422-.193-.649-.055a2.635,2.635,0,0,0-.473.425c-2.6,2.593-5.213,5.167-7.773,7.794a2.4,2.4,0,0,1-2.672.668" transform="translate(-62.735 -28.089)" fill="#040506"/>
    <path id="Trazado_618413" data-name="Trazado 618413" d="M158,72.961c.093.148.25.142.4.19a2.124,2.124,0,0,0,2.02-.453q4.115-4.15,8.26-8.268l.064-.064c.355-.353.355-.353.828-.236a1.309,1.309,0,0,1,.455-.455,1.345,1.345,0,0,1,.488-.929c.62-.6,1.222-1.211,1.829-1.822a1.028,1.028,0,0,0,.357-.518c-.247-.322-.456-.722-.943-.828-.021.114-.123.165-.194.237q-6.316,6.318-12.634,12.633a3.041,3.041,0,0,1-.629.456.665.665,0,0,1-.3.057" transform="translate(-68.689 -25.901)" fill="#92bb58"/>
    <path id="Trazado_618414" data-name="Trazado 618414" d="M170.282,57.338a12.078,12.078,0,0,1,.914.861l-2.411,2.41a1.158,1.158,0,0,0-.22.227.5.5,0,0,0-.014.6c.089,0,.192-.031.213.095a1.019,1.019,0,0,0,.525-.331c.932-.935,1.866-1.868,2.807-2.808v-.248l-3.72-3.718h-.327L157.674,64.8h-.288c-.635-.635-1.291-1.286-1.94-1.943a1.464,1.464,0,0,0-.46-.326c-.1.007-.162.134-.28.091a.527.527,0,0,0-.086.414c.708.708,1.425,1.4,2.117,2.127a1.05,1.05,0,0,0,.94.374.854.854,0,0,1,.137,0,3.628,3.628,0,0,0,.9-.679q4.607-4.617,9.224-9.225l.337-.337c.21.21.4.4.588.59.468.491.988.93,1.415,1.459" transform="translate(-67.216 -23.661)" fill="#040506"/>
    <path id="Trazado_618415" data-name="Trazado 618415" d="M150.912,92.429c-.185-.079-.276-.261-.425-.38-.058-.046-.019-.111-.031-.166-.129-.068-.269.053-.4-.02-.435-.269-.675-.781-1.152-.968a16.971,16.971,0,0,0-3.022,2.943c.026.212.194.332.33.469q2.974,2.978,5.953,5.952a.967.967,0,0,0,.556.37,1.631,1.631,0,0,0,1.113-.634q2.112-2.1,4.212-4.206,4.034-4.033,8.066-8.066c.168-.168.384-.306.428-.569a.482.482,0,0,0-.167-.314q-.779-.8-1.577-1.576a.575.575,0,0,0-.289-.166c-.276.01-.423.245-.6.422q-4.508,4.5-9.011,9a3.293,3.293,0,0,1-.659.556.868.868,0,0,1-1.125-.118c-.656-.63-1.286-1.288-1.938-1.922a1.218,1.218,0,0,1-.263-.61" transform="translate(-63.421 -36.995)" fill="#a4c35d"/>
    <path id="Trazado_618416" data-name="Trazado 618416" d="M152.048,104.3c-.056-.012-.118.025-.17-.031-.082-.089-.171-.172-.257-.258l-6.4-6.393,2.873-2.871h.143l.994.994c.329.207.382-.063.535-.089-.014-.076.07-.09.1-.165a2.747,2.747,0,0,0-.788-.927,3.573,3.573,0,0,0-.886-.8,2.132,2.132,0,0,0-.864.639q-1.315,1.323-2.638,2.638a1.331,1.331,0,0,0-.385.535c0,.034,0,.125,0,.216q3.347,3.345,6.691,6.692a3.743,3.743,0,0,0,1.354.8,1.183,1.183,0,0,0,.355.023,1.3,1.3,0,0,1,.221.018c.037.008.067.052.092.073.119,0,.174-.107.3-.1a2.258,2.258,0,0,0,1.353-.466,2.39,2.39,0,0,0,.474-.391q4.1-4.1,8.206-8.2a1.236,1.236,0,0,0,.359-.49c-.007-.1-.134-.162-.091-.28-.2-.241-.422-.193-.649-.055a2.635,2.635,0,0,0-.473.425c-2.6,2.593-5.213,5.167-7.773,7.794a2.4,2.4,0,0,1-2.672.668" transform="translate(-62.735 -40.761)" fill="#040506"/>
    <path id="Trazado_618417" data-name="Trazado 618417" d="M158,102.11c.093.148.25.142.4.19a2.124,2.124,0,0,0,2.02-.453q4.115-4.15,8.26-8.268l.064-.064c.355-.354.355-.354.828-.236a1.309,1.309,0,0,1,.455-.455,1.345,1.345,0,0,1,.488-.929c.62-.6,1.222-1.211,1.829-1.822a1.028,1.028,0,0,0,.357-.518c-.247-.322-.456-.722-.943-.828-.021.114-.123.165-.194.237q-6.316,6.318-12.634,12.633a3.041,3.041,0,0,1-.629.456.665.665,0,0,1-.3.057" transform="translate(-68.689 -38.573)" fill="#92bb58"/>
    <path id="Trazado_618418" data-name="Trazado 618418" d="M170.282,86.487a12.078,12.078,0,0,1,.914.861l-2.411,2.41a1.158,1.158,0,0,0-.22.227.5.5,0,0,0-.014.6c.089,0,.192-.031.213.095a1.019,1.019,0,0,0,.525-.331c.932-.935,1.866-1.868,2.807-2.808v-.248l-3.72-3.718h-.327L157.674,93.945h-.288c-.635-.635-1.291-1.286-1.94-1.943a1.464,1.464,0,0,0-.46-.326c-.1.007-.162.134-.28.091a.527.527,0,0,0-.086.414c.708.708,1.425,1.4,2.117,2.127a1.05,1.05,0,0,0,.94.374.853.853,0,0,1,.137,0,3.628,3.628,0,0,0,.9-.679q4.607-4.617,9.224-9.225l.337-.337c.21.21.4.4.588.59.468.491.988.93,1.415,1.459" transform="translate(-67.216 -36.333)" fill="#040506"/>
    <path id="Trazado_618419" data-name="Trazado 618419" d="M150.912,121.2c-.185-.079-.276-.261-.425-.38-.058-.046-.019-.111-.031-.166-.129-.068-.269.053-.4-.02-.435-.269-.675-.781-1.152-.968a16.97,16.97,0,0,0-3.022,2.943c.026.212.194.332.33.469q2.974,2.978,5.953,5.952a.967.967,0,0,0,.556.37,1.631,1.631,0,0,0,1.113-.634q2.112-2.1,4.212-4.206,4.034-4.033,8.066-8.066c.168-.168.384-.306.428-.569a.482.482,0,0,0-.167-.314q-.779-.8-1.577-1.576a.575.575,0,0,0-.289-.166c-.276.01-.423.245-.6.422q-4.508,4.5-9.011,9a3.293,3.293,0,0,1-.659.556.868.868,0,0,1-1.125-.118c-.656-.63-1.286-1.288-1.938-1.922a1.218,1.218,0,0,1-.263-.61" transform="translate(-63.421 -49.505)" fill="#a4c35d"/>
    <path id="Trazado_618420" data-name="Trazado 618420" d="M152.048,133.073c-.056-.012-.118.025-.17-.031-.082-.089-.171-.172-.257-.258l-6.4-6.393,2.873-2.871h.143l.994.994c.329.207.382-.063.535-.089-.014-.076.07-.09.1-.165a2.746,2.746,0,0,0-.788-.927,3.573,3.573,0,0,0-.886-.8,2.132,2.132,0,0,0-.864.639q-1.315,1.323-2.638,2.638a1.331,1.331,0,0,0-.385.535c0,.034,0,.125,0,.216q3.347,3.345,6.691,6.692a3.743,3.743,0,0,0,1.354.8,1.183,1.183,0,0,0,.355.023,1.3,1.3,0,0,1,.221.018c.037.008.067.052.092.073.119,0,.174-.107.3-.1a2.258,2.258,0,0,0,1.353-.466,2.39,2.39,0,0,0,.474-.391q4.1-4.1,8.206-8.2a1.236,1.236,0,0,0,.359-.49c-.007-.1-.134-.162-.091-.28-.2-.241-.422-.193-.649-.055a2.635,2.635,0,0,0-.473.425c-2.6,2.593-5.213,5.167-7.773,7.794a2.4,2.4,0,0,1-2.672.668" transform="translate(-62.735 -53.271)" fill="#040506"/>
    <path id="Trazado_618421" data-name="Trazado 618421" d="M158,130.885c.093.148.25.142.4.19a2.124,2.124,0,0,0,2.02-.453q4.115-4.15,8.26-8.268l.064-.064c.355-.354.355-.354.828-.236a1.309,1.309,0,0,1,.455-.455,1.345,1.345,0,0,1,.488-.929c.62-.6,1.222-1.211,1.829-1.822a1.028,1.028,0,0,0,.357-.518c-.247-.322-.456-.722-.943-.828-.021.114-.123.165-.194.237q-6.316,6.318-12.634,12.633a3.041,3.041,0,0,1-.629.456.664.664,0,0,1-.3.057" transform="translate(-68.689 -51.083)" fill="#92bb58"/>
    <path id="Trazado_618422" data-name="Trazado 618422" d="M170.282,115.262a12.078,12.078,0,0,1,.914.861l-2.411,2.41a1.158,1.158,0,0,0-.22.227.5.5,0,0,0-.014.6c.089,0,.192-.031.213.095a1.019,1.019,0,0,0,.525-.331c.932-.935,1.866-1.868,2.807-2.808v-.248l-3.72-3.718h-.327L157.674,122.72h-.288c-.635-.635-1.291-1.286-1.94-1.943a1.465,1.465,0,0,0-.46-.326c-.1.007-.162.134-.28.091a.527.527,0,0,0-.086.414c.708.708,1.425,1.4,2.117,2.127a1.05,1.05,0,0,0,.94.374.854.854,0,0,1,.137,0,3.628,3.628,0,0,0,.9-.679q4.607-4.617,9.224-9.225l.337-.337c.21.21.4.4.588.59.468.491.988.93,1.415,1.459" transform="translate(-67.216 -48.842)" fill="#040506"/>
  </g>
</svg>
