<svg xmlns="http://www.w3.org/2000/svg" xmlns:xlink="http://www.w3.org/1999/xlink" width="113" height="113" viewBox="0 0 113 113">
  <defs>
    <clipPath id="clip-path">
      <rect id="Rectángulo_326532" data-name="Rectángulo 326532" width="57.449" height="57.391" fill="none"/>
    </clipPath>
  </defs>
  <g id="Grupo_878175" data-name="Grupo 878175" transform="translate(-744.615 -1261.205)">
    <path id="Trazado_613726" data-name="Trazado 613726" d="M56.5,0A56.5,56.5,0,1,1,0,56.5,56.5,56.5,0,0,1,56.5,0Z" transform="translate(744.615 1261.205)" fill="#d2e6d5"/>
    <g id="Grupo_877817" data-name="Grupo 877817" transform="translate(772.615 1289.205)">
      <g id="Grupo_877816" data-name="Grupo 877816" clip-path="url(#clip-path)">
        <path id="Trazado_618865" data-name="Trazado 618865" d="M8.12,13.2a12.356,12.356,0,0,0-2.806,1.1,9.581,9.581,0,0,0-3.1,2.579A12.512,12.512,0,0,0,.389,20.4,6.278,6.278,0,0,0,0,22.43c.01,1.231,0,2.461,0,3.692a4.3,4.3,0,0,0,1.974,3.562c.3.212.62.394.913.616a1.85,1.85,0,0,0,.7.222,9.855,9.855,0,0,0,1.849.04c.225.267.109.585.11.872q.012,10.846.007,21.691a4.038,4.038,0,0,0,1.264,3.051,4.094,4.094,0,0,0,4.563.8,4.022,4.022,0,0,0,1.558-1.142,4.285,4.285,0,0,0,2.543,1.477,4.124,4.124,0,0,0,2.78-.5A4.973,4.973,0,0,0,20.186,54.6h26.35l10.77-6.453c-1.771-1.232-3.6-2.2-5.358-3.282s-3.522-2.11-5.386-3.223H20.41V37.059a4.251,4.251,0,0,0,2.778-.952,4.115,4.115,0,0,0,1.8-3.358c.042-3.422.048-6.846-.006-10.268a8.154,8.154,0,0,0-.846-3.337,11.257,11.257,0,0,0-1.866-2.9,7.708,7.708,0,0,0-2.452-1.853,11.384,11.384,0,0,0-2.247-1,8.147,8.147,0,0,0,2.8-5.349,6.887,6.887,0,0,0-2.077-5.7A7.2,7.2,0,0,0,7.931,2.071C4.833,4.933,4.463,9.443,8.12,13.2" transform="translate(0 0)" fill="#040506"/>
        <path id="Trazado_618866" data-name="Trazado 618866" d="M96.188,21.932V34.779H110.96V25.034l4.313-4.3L114.039,19.5l-2.88,2.872c-.222-.1-.144-.287-.236-.443Z" transform="translate(-66.534 -13.49)" fill="#040506"/>
        <path id="Trazado_618867" data-name="Trazado 618867" d="M96.185,81.311V94.16h14.679c.172-.92.228-9.132.079-12.849Z" transform="translate(-66.532 -56.243)" fill="#040506"/>
        <path id="Trazado_618868" data-name="Trazado 618868" d="M150.152,118.862h11.071v-1.72c-.941-.158-7.632-.207-11.013-.073-.138.284-.031.592-.054.889-.02.267,0,.538,0,.9" transform="translate(-103.851 -80.923)" fill="#040506"/>
        <path id="Trazado_618869" data-name="Trazado 618869" d="M150.313,94.9h11.031v-1.72c-.941-.158-7.631-.207-11.031-.072Z" transform="translate(-103.972 -64.348)" fill="#040506"/>
        <path id="Trazado_618870" data-name="Trazado 618870" d="M161.344,81.238h-11.03v1.72c.94.161,7.533.21,11.03.074Z" transform="translate(-103.973 -56.193)" fill="#040506"/>
        <path id="Trazado_618871" data-name="Trazado 618871" d="M150.249,63.333V65.1h11.065c.063-.546.009-1.14.032-1.771Z" transform="translate(-103.928 -43.808)" fill="#040506"/>
        <rect id="Rectángulo_326530" data-name="Rectángulo 326530" width="11.03" height="1.771" transform="translate(46.359 15.834)" fill="#040506"/>
        <rect id="Rectángulo_326531" data-name="Rectángulo 326531" width="11.067" height="1.767" transform="translate(46.323 12.139)" fill="#040506"/>
        <path id="Trazado_618872" data-name="Trazado 618872" d="M157.558,107.041v-1.769H150.2c-.063.544-.008,1.138-.031,1.769Z" transform="translate(-103.871 -72.817)" fill="#040506"/>
        <path id="Trazado_618873" data-name="Trazado 618873" d="M162.262,27.386v1.771h7.321a16.866,16.866,0,0,0,.1-1.771Z" transform="translate(-112.237 -18.943)" fill="#040506"/>
        <path id="Trazado_618874" data-name="Trazado 618874" d="M182.119,105.209h-1.771v1.8c.544.06,1.139.006,1.771.03Z" transform="translate(-124.748 -72.774)" fill="#040506"/>
        <path id="Trazado_618875" data-name="Trazado 618875" d="M6.3,60.671l1.11,1.107a7.228,7.228,0,0,0,2.956.3q2.6.013,5.208,0a1.348,1.348,0,0,0,1.291-.666,1.366,1.366,0,0,0-1.176-2.095c-.732-.034-1.466-.007-2.2-.007H7.885V57.484H9.672v-3.69H20.756V62.95h1.866V53.821h1.866V68.557a2.835,2.835,0,0,0,1.631-.566,3.225,3.225,0,0,0,1.172-2.762c-.043-2.924-.013-5.848-.016-8.773a2.9,2.9,0,0,0-.2-1.3,10.378,10.378,0,0,1-.232-1.169,7.136,7.136,0,0,0-1.29-2.461,8.316,8.316,0,0,0-4.955-3.1,8.5,8.5,0,0,0-1.531-.195c-1.582-.005-3.163,0-4.745,0A8.217,8.217,0,0,0,8.5,50.667a8.38,8.38,0,0,0-2.186,3.6,4.715,4.715,0,0,0-.346,1.826c.044.574,0,1.154.01,1.731A6.712,6.712,0,0,0,6.3,60.671" transform="translate(-4.124 -33.361)" fill="#ffcd58"/>
        <path id="Trazado_618876" data-name="Trazado 618876" d="M49.763,102.22H47.944v3.644H45.165v18.6a3.594,3.594,0,0,0,1.744,1.727,2.294,2.294,0,0,0,2.225-.838,2.223,2.223,0,0,0,.64-1.589c-.021-4.458-.011-8.916-.011-13.374Z" transform="translate(-31.241 -70.706)" fill="#6f7c89"/>
        <path id="Trazado_618877" data-name="Trazado 618877" d="M29.719,17.439a5.556,5.556,0,0,0,5.468-5.571,5.527,5.527,0,1,0-11.053.118,5.548,5.548,0,0,0,5.585,5.453" transform="translate(-16.693 -4.416)" fill="#efc5a5"/>
        <path id="Trazado_618878" data-name="Trazado 618878" d="M91.045,162.8v-3.622H66.1a15.991,15.991,0,0,0-.027,1.759c-.011.609,0,1.219,0,1.863Z" transform="translate(-45.692 -110.105)" fill="#ffe594"/>
        <path id="Trazado_618879" data-name="Trazado 618879" d="M91.056,144.831v-3.618H66.09c-.035.551-.008,1.153-.013,1.751s0,1.22,0,1.867Z" transform="translate(-45.702 -97.678)" fill="#ea695c"/>
        <path id="Trazado_618880" data-name="Trazado 618880" d="M28.6,114.2h-4.63v1.143c0,5.382.041,10.764-.028,16.145a2.906,2.906,0,0,0,1.855,2.989h1.059a3.264,3.264,0,0,0,1.1-.834,2.068,2.068,0,0,0,.652-1.582c-.019-5.92-.011-11.84-.011-17.86" transform="translate(-16.564 -78.991)" fill="#6f7c89"/>
        <path id="Trazado_618881" data-name="Trazado 618881" d="M153.309,151.205l6.319-3.786c-.556-.781-1.427-.957-2.071-1.445a22.168,22.168,0,0,0-2.13-1.239c-.7-.417-1.39-.858-2.118-1.31Z" transform="translate(-106.045 -99.208)" fill="#99a3b0"/>
        <path id="Trazado_618882" data-name="Trazado 618882" d="M29.037,93.578H24.158v2.676c-.018-.02,0,.013.032.035a.18.18,0,0,0,.1.042c2.381,0,4.762,0,7.19,0V91.07a5.508,5.508,0,0,1-.971,1.576c-.393.432-.96.524-1.469.932" transform="translate(-16.706 -62.994)" fill="#dfe4e9"/>
        <path id="Trazado_618883" data-name="Trazado 618883" d="M31.483,76.593v-4.27H24.119v1.808c1.294,0,2.59.023,3.884-.006a3.237,3.237,0,0,1,3.268,2.132c.029.065.076.122.212.337" transform="translate(-16.683 -50.026)" fill="#dfe4e9"/>
        <path id="Trazado_618884" data-name="Trazado 618884" d="M113.279,36.575l-5.359,5.344a1.964,1.964,0,0,1-.206,0,.189.189,0,0,1-.1-.035q-2.127-2.115-4.251-4.233l1.26-1.256,2.967,2.959,5.576-5.561.15.153v-.514H102.244v9.123h11.035Z" transform="translate(-70.723 -23.125)" fill="#afc96a"/>
        <path id="Trazado_618885" data-name="Trazado 618885" d="M102.194,87.293v9.16h10.981a90.966,90.966,0,0,0,.067-9.16Z" transform="translate(-70.688 -60.381)" fill="#e0e4e9"/>
      </g>
    </g>
  </g>
</svg>
