<svg xmlns="http://www.w3.org/2000/svg" width="69.333" height="89.556" viewBox="0 0 69.333 89.556">
  <g id="lista-de-verificacion" transform="translate(-8 -1)">
    <path id="Trazado_619040" data-name="Trazado 619040" d="M9,4H75.444V87.778H9Z" transform="translate(0.444 1.333)" fill="#686868"/>
    <path id="Trazado_619041" data-name="Trazado 619041" d="M13,8H67.889V80.222H13Z" transform="translate(2.222 3.111)" fill="#ccc"/>
    <path id="Trazado_619042" data-name="Trazado 619042" d="M13,8V74.444H57.778a5.778,5.778,0,0,0,5.778-5.778V8Z" transform="translate(2.222 3.111)" fill="#f2f2f2"/>
    <path id="Trazado_619043" data-name="Trazado 619043" d="M17,47h8.667v8.667H17Z" transform="translate(4 20.444)" fill="#ccc"/>
    <path id="Trazado_619044" data-name="Trazado 619044" d="M35.556,41.445A24.584,24.584,0,0,0,47.111,20.6V18.334H46.018A14.8,14.8,0,0,1,35.555,14a14.794,14.794,0,0,1-10.461,4.334H24V20.6a24.585,24.585,0,0,0,11.556,20.85Z" transform="translate(7.111 5.778)" fill="#559b38"/>
    <path id="Trazado_619045" data-name="Trazado 619045" d="M41.333,17.558A14.79,14.79,0,0,1,35.556,14a14.794,14.794,0,0,1-10.462,4.333H24V20.6a24.556,24.556,0,0,0,3.24,12.182h8.316A5.778,5.778,0,0,0,41.333,27Z" transform="translate(7.111 5.778)" fill="#6bc148"/>
    <path id="Trazado_619046" data-name="Trazado 619046" d="M22,2H50.889V13.556H22Z" transform="translate(6.222 0.444)" fill="#474747"/>
    <path id="Trazado_619047" data-name="Trazado 619047" d="M17,37h8.667v8.667H17Z" transform="translate(4 16)" fill="#ccc"/>
    <path id="Trazado_619048" data-name="Trazado 619048" d="M75.889,3.889H58.556V2.444A1.444,1.444,0,0,0,57.111,1H28.222a1.444,1.444,0,0,0-1.444,1.444V3.889H9.444A1.444,1.444,0,0,0,8,5.333V89.111a1.444,1.444,0,0,0,1.444,1.444H75.889a1.444,1.444,0,0,0,1.444-1.444V5.333A1.444,1.444,0,0,0,75.889,3.889Zm-46.222,0h26v8.667h-26ZM57.111,15.444A1.444,1.444,0,0,0,58.556,14V12.556H68.667V81.889h-52V12.556H26.778V14a1.444,1.444,0,0,0,1.444,1.444ZM74.444,87.667H10.889V6.778H26.778V9.667H15.222a1.444,1.444,0,0,0-1.444,1.444V83.333a1.444,1.444,0,0,0,1.444,1.444H70.111a1.444,1.444,0,0,0,1.444-1.444V11.111a1.444,1.444,0,0,0-1.444-1.444H58.556V6.778H74.444Z" transform="translate(0 0)"/>
    <path id="Trazado_619049" data-name="Trazado 619049" d="M35.234,43.114a1.444,1.444,0,0,0,1.531,0A25.886,25.886,0,0,0,49,21.04V18.778a1.444,1.444,0,0,0-1.444-1.444H46.462a13.263,13.263,0,0,1-9.441-3.91,1.444,1.444,0,0,0-2.042,0,13.263,13.263,0,0,1-9.441,3.91H24.444A1.444,1.444,0,0,0,23,18.778V21.04A25.886,25.886,0,0,0,35.234,43.114ZM25.889,20.222A16.106,16.106,0,0,0,36,16.407a16.106,16.106,0,0,0,10.111,3.815v.82A23,23,0,0,1,36,40.167,23,23,0,0,1,25.889,21.043Z" transform="translate(6.667 5.333)"/>
    <path id="Trazado_619050" data-name="Trazado 619050" d="M32.259,30.778h.049a1.444,1.444,0,0,0,1.2-.722L39.29,19.944,36.783,18.5,32.16,26.582l-1.589-2.389-2.4,1.6,2.889,4.333A1.444,1.444,0,0,0,32.259,30.778Z" transform="translate(8.964 7.778)"/>
    <path id="Trazado_619051" data-name="Trazado 619051" d="M25,5h2.889V7.889H25Z" transform="translate(7.556 1.778)"/>
    <path id="Trazado_619052" data-name="Trazado 619052" d="M37,5h2.889V7.889H37Z" transform="translate(12.889 1.778)"/>
    <path id="Trazado_619053" data-name="Trazado 619053" d="M25.513,37.2H17.444A1.444,1.444,0,0,0,16,38.648v8.667a1.444,1.444,0,0,0,1.444,1.444h8.667a1.444,1.444,0,0,0,1.444-1.444V39.246l3.91-3.91-2.042-2.042Zm-2.889,2.889-3.735,3.735V40.092Zm2.042,5.778H20.931l3.735-3.735Z" transform="translate(3.556 14.352)"/>
    <path id="Trazado_619054" data-name="Trazado 619054" d="M29.423,43.293l-3.91,3.91H17.444A1.444,1.444,0,0,0,16,48.648v8.667a1.444,1.444,0,0,0,1.444,1.444h8.667a1.444,1.444,0,0,0,1.444-1.444V49.246l3.91-3.91Zm-6.8,6.8-3.735,3.735V50.092Zm2.042,5.778H20.931l3.735-3.735Z" transform="translate(3.556 18.797)"/>
    <path id="Trazado_619055" data-name="Trazado 619055" d="M27,37H57.333v2.889H27Z" transform="translate(8.444 16)"/>
    <path id="Trazado_619056" data-name="Trazado 619056" d="M27,41H51.556v2.889H27Z" transform="translate(8.444 17.778)"/>
    <path id="Trazado_619057" data-name="Trazado 619057" d="M46,41h2.889v2.889H46Z" transform="translate(16.889 17.778)"/>
    <path id="Trazado_619058" data-name="Trazado 619058" d="M27,47H57.333v2.889H27Z" transform="translate(8.444 20.444)"/>
    <path id="Trazado_619059" data-name="Trazado 619059" d="M27,51H51.556v2.889H27Z" transform="translate(8.444 22.222)"/>
    <path id="Trazado_619060" data-name="Trazado 619060" d="M46,51h2.889v2.889H46Z" transform="translate(16.889 22.222)"/>
  </g>
</svg>
