<svg xmlns="http://www.w3.org/2000/svg" width="93.667" height="93.653" viewBox="0 0 93.667 93.653">
  <g id="analisis-de-consultas" transform="translate(-4.484 -4.503)">
    <path id="Trazado_618987" data-name="Trazado 618987" d="M71.034,28.973A32.953,32.953,0,1,0,11.185,56s0,0,.008,0A32.943,32.943,0,0,0,61.3,65.04a32.161,32.161,0,0,0,3.754-3.75v0a32.934,32.934,0,0,0,5.976-32.313Z" transform="translate(-1.568 -1.545)" fill="#fc5d3d"/>
    <path id="Trazado_618988" data-name="Trazado 618988" d="M194.243,194.227a5.332,5.332,0,0,1-7.545,0l-23.062-23.058a1.137,1.137,0,0,1,0-1.609l1.091-1.091,3.754-3.754,1.088-1.088a1.138,1.138,0,0,1,1.608,0l23.065,23.054a5.346,5.346,0,0,1,0,7.545Z" transform="translate(-98.599 -98.583)" fill="#fc5d3d"/>
    <path id="Trazado_618989" data-name="Trazado 618989" d="M54.327,30.117a24.184,24.184,0,1,1-24.178,24.19A24.184,24.184,0,0,1,54.327,30.117Z" transform="translate(-15.933 -15.902)" fill="#efefef"/>
    <path id="Trazado_618990" data-name="Trazado 618990" d="M54.327,30.117a24.184,24.184,0,1,1-24.178,24.19A24.184,24.184,0,0,1,54.327,30.117Z" transform="translate(-15.933 -15.902)" fill="#fff"/>
    <path id="Trazado_618991" data-name="Trazado 618991" d="M85.27,66.3A13.563,13.563,0,1,0,69.92,79.746l1.786,4.207,1.786-4.207A13.563,13.563,0,0,0,85.27,66.3Z" transform="translate(-33.313 -29.947)" fill="#f0c020"/>
    <path id="Trazado_618992" data-name="Trazado 618992" d="M86.985,76.807a.948.948,0,0,1,0-1.34c.208-.207.407-.426.592-.649a.948.948,0,1,1,1.458,1.212c-.223.268-.461.53-.711.778a.947.947,0,0,1-1.34,0Zm2.861-3.773a.948.948,0,0,1-.59-1.2,9.5,9.5,0,0,0-15.7-9.792.948.948,0,0,1-1.341-1.34A11.394,11.394,0,0,1,91.05,72.444.948.948,0,0,1,89.846,73.034Z" transform="translate(-41.877 -32.816)" fill="#f9e5af"/>
    <path id="Trazado_618993" data-name="Trazado 618993" d="M45.825,88.973c-15.612,0-28.8-13.535-28.8-29.556a28.063,28.063,0,0,1,8.622-20.124.948.948,0,1,1,1.34,1.34,26.207,26.207,0,0,0-8.066,18.784c0,14.994,12.321,27.66,26.905,27.66a26.776,26.776,0,0,0,3.293-.206.948.948,0,1,1,.234,1.881A28.554,28.554,0,0,1,45.825,88.973Zm6.213-1.638a.948.948,0,0,1,.68-1.155c.877-.228,1.765-.5,2.639-.814A.948.948,0,0,1,56,87.152c-.927.331-1.87.622-2.8.863A.947.947,0,0,1,52.038,87.335Z" transform="translate(-7.785 -21.426)" fill="#ffcbc3"/>
    <path id="Trazado_618994" data-name="Trazado 618994" d="M195.289,201.238l-1.627-1.627a.948.948,0,1,1,1.34-1.34l1.627,1.627a.948.948,0,0,1-1.34,1.34Zm-4.308-4.308-16.355-16.355a.948.948,0,0,1,1.34-1.34l16.355,16.355a.948.948,0,0,1-1.34,1.34Z" transform="translate(-105.457 -108.307)" fill="#ffcbc3"/>
    <path id="Trazado_618995" data-name="Trazado 618995" d="M160.349,156.584l-3.754,3.754-6.393-6.393a32.161,32.161,0,0,0,3.754-3.75Z" transform="translate(-90.466 -90.45)" fill="#7d7b79"/>
    <path id="Trazado_618996" data-name="Trazado 618996" d="M58.408,98.291a.95.95,0,0,0,.633-1.183,0,0,0,0,1,0,0,.956.956,0,0,0-1.183-.626.948.948,0,0,0,.554,1.812Z" transform="translate(-32.718 -57.076)"/>
    <path id="Trazado_618997" data-name="Trazado 618997" d="M83.28,72.534a.948.948,0,0,0,.948-.948v0a2.5,2.5,0,1,1,3.682,2.2,4.027,4.027,0,0,0-2.135,3.533.948.948,0,1,0,1.9,0,2.131,2.131,0,0,1,1.141-1.866,4.393,4.393,0,1,0-6.48-3.867.948.948,0,0,0,.948.948Z" transform="translate(-48.33 -38.921)"/>
    <path id="Trazado_618998" data-name="Trazado 618998" d="M92.36,98.7a.948.948,0,0,0-.948.948v.72a.948.948,0,0,0,1.9,0v-.72A.948.948,0,0,0,92.36,98.7Z" transform="translate(-53.967 -58.477)"/>
    <path id="Trazado_618999" data-name="Trazado 618999" d="M217.438,197.537a.949.949,0,1,0,1.342,0A.977.977,0,0,0,217.438,197.537Z" transform="translate(-132.036 -119.676)"/>
    <path id="Trazado_619000" data-name="Trazado 619000" d="M89.425,80.542a.971.971,0,0,0-1.338,0,.947.947,0,0,0,0,1.342v0l6.886,6.882a4.386,4.386,0,0,1-6.2,6.2L65.708,71.92a.191.191,0,0,1,0-.269l5.938-5.934a.186.186,0,0,1,.265,0L82.721,76.523a.977.977,0,0,0,1.342,0,.95.95,0,0,0,0-1.338L73.249,64.375a2.087,2.087,0,0,0-2.95,0l-.418.418-5.12-5.117a33.853,33.853,0,0,0,.287-42.218L72.6,11.609h3.973a.948.948,0,1,0,0-1.9h-4.3a.948.948,0,0,0-.581.2L63.835,16A33.9,33.9,0,1,0,21.4,67.721L14.455,81.5A.948.948,0,0,0,15.3,82.87h7.015a.948.948,0,0,0,0-1.9H16.841l6.23-12.349a33.847,33.847,0,0,0,15.32,3.67,33.469,33.469,0,0,0,21.3-7.505l5.1,5.1-.422.422a2.09,2.09,0,0,0,0,2.95L87.426,96.312a6.282,6.282,0,1,0,8.888-8.88ZM10.451,54A32,32,0,0,1,62.329,17.168L56.882,21.39a25.127,25.127,0,1,0-31.525,38.5l-3.1,6.14A32.026,32.026,0,0,1,10.451,54ZM38.393,21.843A14.505,14.505,0,0,0,23.882,36.357c0,.076,0,.155,0,.231a.948.948,0,0,0,1.9-.03c0-.068,0-.137,0-.2a12.615,12.615,0,1,1,14.28,12.5.957.957,0,0,0-.751.569l-.914,2.154-.914-2.154a.951.951,0,0,0-.747-.569,12.6,12.6,0,0,1-8.926-5.642.971.971,0,0,0-1.312-.28.949.949,0,0,0-.277,1.312A14.529,14.529,0,0,0,30.947,48.8l-4.733,9.381a23.246,23.246,0,1,1,29.2-35.655l-5.862,4.544a14.443,14.443,0,0,0-11.154-5.232ZM23.925,66.933l3.093-6.13a24.845,24.845,0,0,0,11.375,2.729A25.143,25.143,0,0,0,63.228,42.239a.939.939,0,0,0-.174-.705.927.927,0,0,0-.618-.375.958.958,0,0,0-1.081.792A23.371,23.371,0,0,1,38.393,61.637a23.1,23.1,0,0,1-10.524-2.52l4.766-9.448a14.355,14.355,0,0,0,3.309.987l1.577,3.72a.949.949,0,0,0,1.744,0l1.581-3.72a14.512,14.512,0,0,0,9.818-22.048l5.981-4.635a23.2,23.2,0,0,1,4.684,10.72.948.948,0,0,0,1.706.406.935.935,0,0,0,.167-.705,25.1,25.1,0,0,0-5.089-11.559l5.437-4.214A31.993,31.993,0,0,1,23.925,66.933Zm37.2-3.386c.823-.752,1.787-1.725,2.411-2.413l5,5-2.413,2.413Z" transform="translate(0 0)"/>
    <path id="Trazado_619001" data-name="Trazado 619001" d="M221.97,18.245H208.794a.948.948,0,0,0,0,1.9H221.97a.948.948,0,1,0,0-1.9Z" transform="translate(-126.253 -8.532)"/>
    <path id="Trazado_619002" data-name="Trazado 619002" d="M221.97,30.37H208.794a.948.948,0,0,0,0,1.9H221.97a.948.948,0,1,0,0-1.9Z" transform="translate(-126.253 -16.059)"/>
    <path id="Trazado_619003" data-name="Trazado 619003" d="M222.918,43.443a.948.948,0,0,0-.948-.948H208.794a.948.948,0,0,0,0,1.9H221.97A.948.948,0,0,0,222.918,43.443Z" transform="translate(-126.253 -23.587)"/>
    <path id="Trazado_619004" data-name="Trazado 619004" d="M65.961,208.079h16.4a.948.948,0,1,0,0-1.9h-16.4a.948.948,0,1,0,0,1.9Z" transform="translate(-37.578 -125.209)"/>
    <path id="Trazado_619005" data-name="Trazado 619005" d="M65.961,222.391h16.4a.948.948,0,0,0,0-1.9h-16.4a.948.948,0,0,0,0,1.9Z" transform="translate(-37.578 -134.094)"/>
    <path id="Trazado_619006" data-name="Trazado 619006" d="M65.961,236.7h16.4a.948.948,0,1,0,0-1.9h-16.4a.948.948,0,1,0,0,1.9Z" transform="translate(-37.578 -142.979)"/>
    <path id="Trazado_619007" data-name="Trazado 619007" d="M157.078,92.129a.948.948,0,1,0-.948.952h0a.93.93,0,0,0,.667-.28A.947.947,0,0,0,157.078,92.129Z" transform="translate(-93.558 -53.815)"/>
  </g>
</svg>
