<svg xmlns="http://www.w3.org/2000/svg" xmlns:xlink="http://www.w3.org/1999/xlink" width="113" height="113" viewBox="0 0 113 113">
  <defs>
    <clipPath id="clip-path">
      <rect id="Rectángulo_326537" data-name="Rectángulo 326537" width="54.164" height="54.134" fill="none"/>
    </clipPath>
  </defs>
  <g id="Grupo_878174" data-name="Grupo 878174" transform="translate(-373.615 -1261.205)">
    <path id="Trazado_613726" data-name="Trazado 613726" d="M56.5,0A56.5,56.5,0,1,1,0,56.5,56.5,56.5,0,0,1,56.5,0Z" transform="translate(373.615 1261.205)" fill="#d2e6d5"/>
    <g id="Grupo_877821" data-name="Grupo 877821" transform="translate(402.615 1290.205)">
      <g id="Grupo_877820" data-name="Grupo 877820" clip-path="url(#clip-path)">
        <path id="Trazado_618927" data-name="Trazado 618927" d="M54.158,1.2C53.9,1,53.91.636,53.625.434A1.639,1.639,0,0,0,52.6,0c-.109,0-.218,0-.327,0H1.2C1.09.279.764.18.586.385A1.846,1.846,0,0,0,0,1.677c.021.763.005,1.528.005,2.292A1.882,1.882,0,0,0,1.722,5.283V38.4a2.087,2.087,0,0,0-1.009.33,1.923,1.923,0,0,0-.707,1.019c0,.646-.005,1.409,0,2.172a1.658,1.658,0,0,0,1.765,1.754q7.585.006,15.17,0h.86c.387.444-.294.772-.11,1.187a42.875,42.875,0,0,0-1.5,4.286c-.459,1.411-1.016,2.793-1.368,4.243a1.526,1.526,0,0,0-.158.72h6.911C22.8,50.694,23.866,47.148,25.1,43.7h3.983l3.492,10.436h6.991a36.334,36.334,0,0,0-1.125-3.47c-.4-1.147-.723-2.319-1.1-3.473S36.51,44.927,36.2,43.7H52.955c.121-.313.452-.2.63-.413a1.877,1.877,0,0,0,.578-1.3c-.02-.763-.005-1.528-.005-2.292a1.786,1.786,0,0,0-1.719-1.272V5.283a1.858,1.858,0,0,0,1.719-1.359Z" transform="translate(0 0)" fill="#040506"/>
        <path id="Trazado_618928" data-name="Trazado 618928" d="M59.2,51.225V18.112H12.073V33.756H17.26V35.4c.376.375.469-.132.725-.086a3.174,3.174,0,0,0,.636.009,15.441,15.441,0,0,0,2.248-1.23,5.071,5.071,0,0,0,1.137-1.164,5.706,5.706,0,0,0,1.062-1.965,7.724,7.724,0,0,0,.35-1.825c-.033-1.527.03-3.057-.025-4.583A1.925,1.925,0,0,1,24.7,22.445a9.524,9.524,0,0,1,1.368.116,3.468,3.468,0,0,1,2.45,2.446,2.772,2.772,0,0,1,.118.818c.015,1.564,0,3.129.011,4.693a.944.944,0,0,0,.1.661c.466-.02.791-.55,1.325-.438.227-.521.468-1.038.676-1.568a.891.891,0,0,0-.061-.893c-.237-.36-.313-.834-.572-1.172-.216-.281-.116-.544-.156-.783l4.483-4.483c.588.294,1.218.6,1.842.924a.919.919,0,0,0,.891,0c.454-.219.93-.39,1.426-.594l.789-2.341h6.433a14.918,14.918,0,0,1,.767,2.307c.471.2.989.438,1.514.653A.93.93,0,0,0,49,22.742c.582-.337,1.207-.6,1.8-.89L55.449,26.5c-.3.591-.627,1.218-.939,1.854a.91.91,0,0,0,.029.891,14.237,14.237,0,0,1,.573,1.4l2.358.8v6.416a14.714,14.714,0,0,1-2.312.775c-.215.485-.468,1-.669,1.533a.868.868,0,0,0,.076.894c.231.32.283.773.521,1.083a1.477,1.477,0,0,1,.206.9L51,47.314a1.242,1.242,0,0,1-.946-.188c-.329-.226-.732-.341-1.081-.544a.9.9,0,0,0-.891-.022c-.492.216-.992.416-1.484.62a16.808,16.808,0,0,1-.779,2.317H39.417a16.3,16.3,0,0,1-.774-2.32L36.8,46.432a.6.6,0,0,0-.5.788,5.715,5.715,0,0,1-1.753,1.423c-4.121,0-8.342-.024-12.562.017a8.467,8.467,0,0,1-2.943-.554,2.488,2.488,0,0,0-1.732-.274v1.673H12.074v1.72Z" transform="translate(-8.553 -12.831)" fill="#e0e4e9"/>
        <path id="Trazado_618929" data-name="Trazado 618929" d="M46.956,54.676l.58-.583v-.666l-.591-.562H44.069V51.184h2.889l.577-.592V49.93l-.6-.532c-1.562,0-3.2.006-4.831,0a2.627,2.627,0,0,1-2.425-2.439c-.007-2.255,0-4.509,0-6.764A1.831,1.831,0,0,0,37.932,38.9c0,1.682-.007,3.31,0,4.938a8.168,8.168,0,0,1-1.114,4.01,7.971,7.971,0,0,1-2.753,2.855,8.434,8.434,0,0,1-2.921,1.13c-.322.065-.662.147-1.035.2v8.677A3.654,3.654,0,0,1,31.875,61c.562.294,1.19.281,1.733.563a1.492,1.492,0,0,0,.737.06q6.326.008,12.648,0l.545-.545c0-.218,0-.436,0-.658l-.548-.541H44.076c-.065-.555-.013-1.117-.035-1.715h2.917l.58-.58v-.662l-.586-.568H44.068V54.676Z" transform="translate(-21.331 -27.56)" fill="#efc5a5"/>
        <path id="Trazado_618930" data-name="Trazado 618930" d="M78.453,50.52v1.015a2.113,2.113,0,0,1-.832,1.14c.413.3.657.308.888.045a12.412,12.412,0,0,0,3.375,1.326l.744,2.1H86.46l.74-2.078a12.778,12.778,0,0,0,3.363-1.355c.51.411,1.264.474,1.69,1.014l2.938-2.938c-.506-.39-.575-1.12-1.012-1.691a6.3,6.3,0,0,0,.814-1.552,8.8,8.8,0,0,0,.5-1.795L97.611,45V41.16l-2.072-.733a12.609,12.609,0,0,0-1.348-3.345c.372-.539.477-1.258.977-1.683l-2.926-2.926c-.41.448-1.134.579-1.676.967a11.4,11.4,0,0,0-3.344-1.317l-.776-2.139H82.7c-.41.619-.462,1.387-.865,2.127a11.586,11.586,0,0,0-3.273,1.333c-.534-.386-1.246-.489-1.667-.957l-2.933,2.933c.459.368.539,1.12.951,1.645a11.614,11.614,0,0,0-1.318,3.329,20.382,20.382,0,0,1-2.339.8.2.2,0,0,0,.024.076c.022.025.055.058.083.058,1.234,0,2.469,0,3.714,0a9.583,9.583,0,0,1,7.316-7.644,9.558,9.558,0,0,1,6.569.826,9.662,9.662,0,0,1,1.765,15.976,9.683,9.683,0,0,1-3.871,1.962,9.523,9.523,0,0,1-4.506.01,10.709,10.709,0,0,1-3.9-1.942" transform="translate(-50.479 -21.24)" fill="#ffb915"/>
        <rect id="Rectángulo_326534" data-name="Rectángulo 326534" width="50.581" height="1.676" transform="translate(1.775 40.211)" fill="#c0c7d0"/>
        <rect id="Rectángulo_326535" data-name="Rectángulo 326535" width="50.615" height="1.671" transform="translate(1.774 1.786)" fill="#c0c7d0"/>
        <path id="Trazado_618931" data-name="Trazado 618931" d="M91.927,57.541c.11.406-.278.541-.47.824.125.4.64.561.682,1.019v1.3a7.782,7.782,0,0,0,9.992,1.9,8.175,8.175,0,0,0,3.989-7.724c-.364-.733-.272-1.607-.736-2.313a13.333,13.333,0,0,0-1.025-1.638,8.523,8.523,0,0,0-1.557-1.464,9.894,9.894,0,0,0-1.968-1.054,6.02,6.02,0,0,0-1.777-.436,7.947,7.947,0,0,0-8.446,6.075.767.767,0,0,0,.519.605c.391.057.295.451.524.554.279.125.155.55.492.61.426-.463.341-1.091.515-1.635a5.848,5.848,0,1,1,.293,4.052c-.179-.389-.254-.839-.606-1.105-.36-.031-.262.315-.42.436" transform="translate(-64.19 -33.957)" fill="#ffcd58"/>
        <path id="Trazado_618932" data-name="Trazado 618932" d="M95.079,61.673c.351.049.1-.381.34-.423a6.309,6.309,0,0,0,7.158,4.79c3.512-1.044,5.36-3.708,4.912-7.176a5.814,5.814,0,0,0-2.337-3.808,6.064,6.064,0,0,0-8.4.9,5.687,5.687,0,0,0-1.458,3.97,1.286,1.286,0,0,0-.229.776,6.612,6.612,0,0,1,.01.971" transform="translate(-67.342 -38.09)" fill="#050506"/>
        <path id="Trazado_618933" data-name="Trazado 618933" d="M15.547,77.951H12.125v12.2c.522.033,1.091.007,1.657.012s1.153,0,1.765,0Z" transform="translate(-8.59 -55.222)" fill="#afc96a"/>
        <path id="Trazado_618934" data-name="Trazado 618934" d="M64.38,149.87H61.221c-.091.091-.255.178-.288.3-.749,2.819-1.885,5.518-2.687,8.381h3.247c.066-.066.183-.129.214-.221q1.361-4.061,2.7-8.13a.942.942,0,0,0-.029-.329" transform="translate(-41.262 -106.17)" fill="#c68b61"/>
        <path id="Trazado_618935" data-name="Trazado 618935" d="M106.1,149.9c.937,2.938,1.92,5.789,2.861,8.66h3.295a84.324,84.324,0,0,0-2.862-8.66Z" transform="translate(-75.161 -106.194)" fill="#c68b61"/>
        <path id="Trazado_618936" data-name="Trazado 618936" d="M25.907,47.991H18.121v1.73h7.786Z" transform="translate(-12.837 -33.998)" fill="#040506"/>
        <rect id="Rectángulo_326536" data-name="Rectángulo 326536" width="7.82" height="1.672" transform="translate(5.267 10.52)" fill="#040506"/>
        <path id="Trazado_618937" data-name="Trazado 618937" d="M25.822,25.77V24.1H18.006c-.059.514-.007,1.076-.03,1.673Z" transform="translate(-12.734 -17.071)" fill="#040506"/>
        <path id="Trazado_618938" data-name="Trazado 618938" d="M106.313,68.659a4.266,4.266,0,0,0,4.293-4.45,3.975,3.975,0,0,0-1.277-3.045,4.448,4.448,0,0,0-6.221.073,4.142,4.142,0,0,0-1.2,3.081,4.271,4.271,0,0,0,4.4,4.341" transform="translate(-72.189 -42.454)" fill="#dfe4e9"/>
      </g>
    </g>
  </g>
</svg>
