<svg xmlns="http://www.w3.org/2000/svg" xmlns:xlink="http://www.w3.org/1999/xlink" width="113" height="113" viewBox="0 0 113 113">
  <defs>
    <clipPath id="clip-path">
      <rect id="Rectángulo_326533" data-name="Rectángulo 326533" width="40.686" height="56.634" fill="none"/>
    </clipPath>
  </defs>
  <g id="Grupo_878176" data-name="Grupo 878176" transform="translate(-1114.615 -1261.205)">
    <path id="Trazado_613726" data-name="Trazado 613726" d="M56.5,0A56.5,56.5,0,1,1,0,56.5,56.5,56.5,0,0,1,56.5,0Z" transform="translate(1114.615 1261.205)" fill="#d2e6d5"/>
    <g id="Grupo_877819" data-name="Grupo 877819" transform="translate(1150.615 1289.205)">
      <g id="Grupo_877818" data-name="Grupo 877818" clip-path="url(#clip-path)">
        <path id="Trazado_618886" data-name="Trazado 618886" d="M9.274,15.209v-.553l-.3-.3H0v52.39H40.686v-52.4H31.7c-.14.284-.022.581-.063.864a.686.686,0,0,0-.023.891,1.423,1.423,0,0,0,1.089.314c1.957.105,3.927-.119,5.85.133.444.712.181,1.431.288,2.1-.065.922-.038,1.843-.038,2.765q0,19.573,0,39.146a12.972,12.972,0,0,0,.034,1.326,9.761,9.761,0,0,1-.209,2.508,3.059,3.059,0,0,1-1.837.263q-15.634.012-31.268.005c-.442,0-.884-.009-1.324.031a4.867,4.867,0,0,1-2.1-.361c0-15.795,0-31.711,0-47.5a3.959,3.959,0,0,1,2.042-.408c1.378.042,2.758.076,4.132-.018.673-.046,1.379-.2,1-1.2" transform="translate(0 -10.108)" fill="#070606"/>
        <path id="Trazado_618887" data-name="Trazado 618887" d="M54.7,5.1V3.446a.512.512,0,0,0-.076-.078.18.18,0,0,0-.095-.036c-2.351,0-4.7,0-7.149,0a4.147,4.147,0,0,0-.31-1.739c-.146-.577-.685-.9-.956-1.191A2.435,2.435,0,0,0,43.236.54,2.762,2.762,0,0,0,42.321,3.3H34.986V5.1c-.658,1.149-.247,2.395-.329,3.6a5.173,5.173,0,0,0,.234,2.562,2.188,2.188,0,0,0,1.612.4q8.344.015,16.688-.006c.706,0,1.547.144,1.783-.873a11.585,11.585,0,0,0,.048-2.144c-.081-1.18.32-2.406-.326-3.534" transform="translate(-24.383 0)" fill="#050506"/>
        <path id="Trazado_618888" data-name="Trazado 618888" d="M19.809,20.813V17.271H18.481c-.013.317.116.683-.52.886H13.387a1.579,1.579,0,0,0-.095,1.775c1.084.627,2.268.237,3.405.316.665.046,1.312.038,1.764.634a1.1,1.1,0,0,0,1.348-.068" transform="translate(-9.207 -12.17)" fill="#f9a243"/>
        <path id="Trazado_618889" data-name="Trazado 618889" d="M102.627,17.271v3.542a1.127,1.127,0,0,0,1.256.14c.331-.5.9-.727,1.331-1.116a1.621,1.621,0,0,0-.151-1.681h-1.107v-.886Z" transform="translate(-72.314 -12.17)" fill="#e96146"/>
        <path id="Trazado_618890" data-name="Trazado 618890" d="M8.2,22.041V20.27H5.877C5.706,21.279,5.636,64.91,5.8,69.2H8.2A2.668,2.668,0,0,0,8.379,66.9a4.494,4.494,0,0,1-.259-1.847q0-20.57,0-41.14c0-.628.083-1.251.084-1.877" transform="translate(-4.022 -14.283)" fill="#e96046"/>
        <path id="Trazado_618891" data-name="Trazado 618891" d="M126.46,71.567V28.174a2.492,2.492,0,0,0-2.372.33,3.581,3.581,0,0,0-.2,1.63q-.006,19.844,0,39.689a3.12,3.12,0,0,0,.261,1.724,1.978,1.978,0,0,0,2.315.02" transform="translate(-87.288 -19.751)" fill="#e96046"/>
        <path id="Trazado_618892" data-name="Trazado 618892" d="M49.145,175.425H46.93a3.14,3.14,0,0,1-2.2.528q-14.336-.005-28.673,0c-.647,0-1.342-.149-1.9.353v2.214H49.145Z" transform="translate(-9.973 -123.61)" fill="#fba343"/>
        <path id="Trazado_618893" data-name="Trazado 618893" d="M115.082,22.926c.512,0,1.028-.036,1.536.014.292.029.441-.2.678-.235V20.269h-6.423V22.04c.743.559,1.6.28,2.411.313a2.428,2.428,0,0,1,1.8.573" transform="translate(-78.125 -14.282)" fill="#faa343"/>
        <path id="Trazado_618894" data-name="Trazado 618894" d="M28.719,29.264H27.39c-.057.039-.115.078-.173.115-.3.4-.829.462-1.186.76a2.555,2.555,0,0,0-.315,1.608q-.011,6.956,0,13.912a2.283,2.283,0,0,0,.289,1.486c.192.168.362.081.526-.048a7.142,7.142,0,0,0,.814-2.942,1.732,1.732,0,0,1,.348-1.65A12.929,12.929,0,0,1,42.837,37.35a5.39,5.39,0,0,0,1.155.372c.611.006,1.2.229,1.814.194.377,0,.621-.376.993-.368.894.435,1.239,1.567,2.3,1.755.318-.085.507-.421.955-.444,1.175.642,1.831,2.038,3.065,2.645.333-.086.38-.306.449-.515.172-3.318.058-6.634.063-9.95a1.577,1.577,0,0,0-.215-.847,2.259,2.259,0,0,0-3.137.572c-.585.291-1.324,0-1.855.493v.553c-.974.165-15.959.224-19.71.074Z" transform="translate(-18.116 -20.62)" fill="#fff"/>
        <path id="Trazado_618895" data-name="Trazado 618895" d="M62.367,21.7q0-2.151,0-4.3c0-.027-.042-.055-.1-.126H48.415a7.592,7.592,0,0,0-.209,4.23,1.046,1.046,0,0,0,.9.3q6.309.006,12.617,0a1.027,1.027,0,0,0,.642-.106" transform="translate(-33.826 -12.17)" fill="#d8d8da"/>
        <path id="Trazado_618896" data-name="Trazado 618896" d="M57.5,21.7H43.553V17.271H41.16c-.1,1.519-.008,3.044-.055,4.649h1q7.337,0,14.675-.012c.237,0,.592.219.726-.21" transform="translate(-28.964 -12.17)" fill="#b9b8be"/>
        <path id="Trazado_618897" data-name="Trazado 618897" d="M102.627,31.257h2.344c.2-.319.023-.7.132-1.107h2.4c-.171-.72-.782-.5-1.228-.525a5.255,5.255,0,0,1-2.315-.361h-1.329Z" transform="translate(-72.314 -20.62)" fill="#d7d7d8"/>
        <path id="Trazado_618898" data-name="Trazado 618898" d="M68.2,7.626a1.6,1.6,0,0,0-.331-1.482h-.877l-.276.276V7.626Z" transform="translate(-47.007 -4.329)" fill="#f3f5f7"/>
        <path id="Trazado_618899" data-name="Trazado 618899" d="M40.444,27.138v.623a11.006,11.006,0,0,0,1.605.039c.514.011,1.029,0,1.543.006.16,0,.392-.085.395.218V39.315c-.5.6-.285,1.309-.331,1.98a8.61,8.61,0,0,1-.017,1.45c0,3.141-.032,6.282.008,9.422-.056,5.557.026,11.116-.058,16.853-9.048.114-17.929-.023-26.807.074a5.121,5.121,0,0,1-2.113-.347q0-20.065,0-40.439c1.2-.128,2.147-.381,3.062-.431.312-.216.16-.546.345-.739v-.766A.527.527,0,0,0,18,26.293a.175.175,0,0,0-.092-.039q-2.464,0-4.929,0h-.332c-.154.153-.225,41.02-.078,44.867.113.146.274.047.41.076h32.7c.149-.306.033-.6.073-.886V26.3c-1.4-.095-2.8-.021-4.208-.044H40.444Z" transform="translate(-8.802 -18.495)" fill="#060606"/>
        <path id="Trazado_618900" data-name="Trazado 618900" d="M24.9,65.556a.188.188,0,0,0-.222.222,2.032,2.032,0,0,0-1.245,1.284c.109.693.69,1.02,1.082,1.485,1.508,1.468,2.985,2.968,4.467,4.462,1.605,1.548,3.121,3.191,4.756,4.678a10.929,10.929,0,0,0,2.37-2.029Q42.3,69.429,48.525,63.247a10.522,10.522,0,0,0,2.055-2.4,11.552,11.552,0,0,0-3.091-3.043,30.8,30.8,0,0,1-2.3-2.174c-.331.111-.422.55-.8.624a5.1,5.1,0,0,0-1.282,1.021q-4.176,4.185-8.366,8.355c-.271.234-.452.582-.986.686-.872-.686-1.644-1.605-2.5-2.428-.623-.59-1.216-1.21-1.825-1.814a.98.98,0,0,0-.957-.287A25.174,25.174,0,0,0,24.9,65.556" transform="translate(-16.512 -39.201)" fill="#040506"/>
        <path id="Trazado_618901" data-name="Trazado 618901" d="M21.428,49.853c-.252-.526-.805-.791-1.128-1.291.22-.58.894-.8,1.128-1.366-.217.017-.221-.134-.221-.284q0-.827,0-1.653V30.214c.4-.161.843.011,1.276-.106.128-.266.014-.562.053-.844-.425.05-.1.433-.3.637H18.82V71.55h2.386a.8.8,0,0,0,.161-.818c-.558-.765-.135-1.441.2-2.126-.022-4.607-.013-9.211-.006-13.814.224-.792-.4-1.457-.343-2.226.033-.343.317-.567.417-.88a2.213,2.213,0,0,0-.208-1.833" transform="translate(-13.261 -20.62)" fill="#d8d8da"/>
        <path id="Trazado_618902" data-name="Trazado 618902" d="M92.614,60.819a21.562,21.562,0,0,0,2.013,2.12c.293.315.607.61.934.937-.624.861-1.505,1.414-2.061,2.257a1.075,1.075,0,0,0,.311,1.459,1.253,1.253,0,0,1,.88,1.021,12.538,12.538,0,0,1-3.14,11.116A13.832,13.832,0,0,1,88.209,82.4c-.307.178-.692.3-.735.745.332.379.739.25,1.125.143A12.641,12.641,0,0,0,96.014,77.9a9,9,0,0,0,.808-2.023v-9.52c-.113-.443-.365-.886,0-1.329V63.032c-1.186-.914-2.11-2.1-3.263-3.125a2,2,0,0,0-.945.912" transform="translate(-61.637 -42.212)" fill="#d8d8da"/>
        <path id="Trazado_618903" data-name="Trazado 618903" d="M46.417,54.355c-.524.062-.855-.4-1.361-.478a15.6,15.6,0,0,1-1.806-.441,12.052,12.052,0,0,0-2.908-.183,10.411,10.411,0,0,0-3.974.824,13.891,13.891,0,0,0-3.44,1.874,13.612,13.612,0,0,0-2.142,2,9.222,9.222,0,0,0-1.646,2.634.636.636,0,0,0,.445.413.848.848,0,0,0,.811.5c.584-.148.766-.707,1.075-1.149A11.038,11.038,0,0,1,39.459,55.3c2.123-.483,4.108.281,6.03.7a1.317,1.317,0,0,0,.829-.8.96.96,0,0,0,.1-.843" transform="translate(-20.534 -37.52)" fill="#050507"/>
        <path id="Trazado_618904" data-name="Trazado 618904" d="M38.78,59.234a3.76,3.76,0,0,0-1.232.207,13.61,13.61,0,0,0-3.883,1.783,8.667,8.667,0,0,0-1.343,1.263,6.672,6.672,0,0,0-1.973,2.59c-.072.219-.337.374-.5.545l-.813-.411c.084.682-.472,1.213-.443,1.882-.385.263-.162.661-.221,1A29.42,29.42,0,0,0,30.9,65.672c.455-.428.886-.88,1.327-1.322.239.076.3.4.578.419.642-.184.826-.8,1.163-1.259A11.667,11.667,0,0,1,38,60.017c.322-.169.816-.23.776-.783" transform="translate(-19.983 -41.734)" fill="#1054a1"/>
        <path id="Trazado_618905" data-name="Trazado 618905" d="M87.046,56.913c-.032.235-.33.382-.222.664.063.731.468.893,1.107.664a3.181,3.181,0,0,0,1.107-1.107c-.685.108-1.3-.39-1.993-.222" transform="translate(-61.163 -40.078)" fill="#d6d6d9"/>
        <path id="Trazado_618906" data-name="Trazado 618906" d="M57.767,25.015h3.69V23.273c-.567-.025-1.18-.008-1.792-.011s-1.241,0-1.9,0Z" transform="translate(-40.704 -16.389)" fill="#fefefe"/>
        <path id="Trazado_618907" data-name="Trazado 618907" d="M74.485,23.39l-.273.273v1.429h1.7v-1.7Z" transform="translate(-52.292 -16.481)" fill="#fcfcfc"/>
        <path id="Trazado_618908" data-name="Trazado 618908" d="M85.387,23.267H83.9c-.062.558-.01,1.127-.033,1.732h1.52a8.656,8.656,0,0,0,0-1.732" transform="translate(-59.094 -16.395)" fill="#fefefe"/>
        <path id="Trazado_618909" data-name="Trazado 618909" d="M54.081,113.959c-.217-.017-.175.151-.228.281a11.1,11.1,0,0,1-3.239,4.375,12.117,12.117,0,0,1-4.6,2.441,3.549,3.549,0,0,1-1.233.209c-.484-.338-.924-.019-1.359.116a12.841,12.841,0,0,1-15.589-6.311c-.191-.349-.326-.754-.769-.889-.369.038-.213.327-.214.5-.011,1.981-.007,3.962-.007,5.943q0,3.467,0,6.934a1.432,1.432,0,0,0,.224,1.009,2.038,2.038,0,0,0,1.573.345c2.84.014,5.68,0,8.52.011a2.585,2.585,0,0,1,1.5.219c.243.463.053.7-.4.789a5.445,5.445,0,0,1-1.1.056c-2.914,0-5.828-.007-8.741.007a2.038,2.038,0,0,0-1.573.345v.886h27.24Z" transform="translate(-18.896 -80.298)" fill="#fff"/>
        <path id="Trazado_618910" data-name="Trazado 618910" d="M117.41,77.235c-.269,0-.268.295-.717.353.575.281.333.777.717.976Z" transform="translate(-82.225 -54.422)" fill="#fdfcfd"/>
        <path id="Trazado_618911" data-name="Trazado 618911" d="M57.346,59.3c-.455-.078-.906-.162-1.107-.664-.37.154-.288.58-.556.813a9.783,9.783,0,0,0-3.407-.806c-.4.022-.718-.226-1.118-.257-.631-.049-1.178.274-1.783.25-.255.4-.728.442-1.1.652a18.934,18.934,0,0,0-1.726,1.145,14.085,14.085,0,0,0-3.157,3.738,8.25,8.25,0,0,0,1.772,1.771c.341-.021.54-.378.96-.382.693.332,1.124,1.043,1.732,1.55.317.265.529.735,1.073.6.185.027.245-.139.34-.235q3.925-3.914,7.84-7.838c.1-.1.262-.155.235-.34" transform="translate(-30.577 -41.136)" fill="#4a8ccc"/>
        <path id="Trazado_618912" data-name="Trazado 618912" d="M48.785,99.086a27.139,27.139,0,0,0-2.117,1.979c-1.3-1.3-2.614-2.621-3.938-3.929a2.483,2.483,0,0,0-.81-.707c-.591.392-.171.8.021,1.153a12.634,12.634,0,0,0,6.323,5.7A11.733,11.733,0,0,0,61.475,90.219a1.766,1.766,0,0,0-.35-1.027c-.053-.053-.118-.122-.178-.111a4.174,4.174,0,0,0-2.393,2.5c.287.321.774.155,1.077.43a.7.7,0,0,1,.019.81.537.537,0,0,1-.751.017c-.239-.385-.009-.834-.274-1.173-.672-.4-.916.258-1.227.561-2.2,2.153-4.366,4.343-6.548,6.515a2.885,2.885,0,0,1-.813.721c-.455-.014-.681-.775-1.252-.379" transform="translate(-29.324 -62.768)" fill="#4a8ccc"/>
        <path id="Trazado_618913" data-name="Trazado 618913" d="M45.467,82.322a.566.566,0,0,0,.186-.08c4.3-4.293,8.6-8.589,12.942-12.933a9.46,9.46,0,0,0-1.834-1.82c-.769-.018-1.048.589-1.4,1.1-.058.406.343.631.429,1.145-1.387,1.419-2.824,2.9-4.27,4.233-.526.038-.752-.388-1.145-.356a1.248,1.248,0,0,0-.773.748c-.045.4.339.619.4.968a.8.8,0,0,1-.621.651c-.455-.009-.566-.582-1.013-.572a1.963,1.963,0,0,0-.715.974c-.1.408.364.616.347.993-.534.538-.534.538-1.076,0,.049-.484.554-.642.752-1.022,0-.59-.454-.727-.88-.894-.868.611-1.5,1.472-2.337,2.2-1.085-1.084-2.176-2.185-3.281-3.273-.253-.248-.448-.569-.8-.7a2.806,2.806,0,0,0-1.895,1.744,1.578,1.578,0,0,0,.616,1q2.673,2.69,5.367,5.36c.272.269.512.657,1.006.526" transform="translate(-27.113 -47.555)" fill="#b3cd7d"/>
        <path id="Trazado_618914" data-name="Trazado 618914" d="M75.625,85.846a15.235,15.235,0,0,1,2.436-2.435c.055-.469.658-.609.664-1.107a1.75,1.75,0,0,1-.443-1.328c-.187-.027-.247.141-.343.237q-5.915,5.9-11.821,11.818c-.1.1-.264.156-.237.343.136.03.285-.061.413.075.252.268.518.523.805.81q3.856-3.855,7.716-7.706a2.46,2.46,0,0,1,.811-.707" transform="translate(-46.42 -57.056)" fill="#1055a1"/>
        <path id="Trazado_618915" data-name="Trazado 618915" d="M40.563,94.325c-.037,0-.09.016-.108,0-2.26-2.255-4.517-4.512-6.822-6.817a9.949,9.949,0,0,1,1.836-1.814c-.235-.465-.685-.733-1.037-1.168a9.328,9.328,0,0,0-1.518,1.405c-.5.472-.981.974-1.4,1.388l8.072,8.069a4.693,4.693,0,0,0,.972-1.06" transform="translate(-22.209 -59.557)" fill="#77b77c"/>
        <path id="Trazado_618916" data-name="Trazado 618916" d="M38.279,110.042a12.948,12.948,0,0,0-1.791-1.1,13.178,13.178,0,0,1-3.98-4.211c-.226-.412-.416-.836-.613-1.258-.005-.011.044-.059.075-.072a.309.309,0,0,1,.109,0,23.262,23.262,0,0,0-2.4-2.493,14.221,14.221,0,0,0-2.031-1.935v1.993a2.746,2.746,0,0,1,1.064,1.46,11.747,11.747,0,0,0,8.207,7.616c.436.123.907.377,1.359,0" transform="translate(-19.482 -69.739)" fill="#1054a1"/>
        <path id="Trazado_618917" data-name="Trazado 618917" d="M75.275,65.944c.559-.229.769-.878,1.329-1.107a6.623,6.623,0,0,0-.992-1.112c-2.8,2.8-5.577,5.571-8.348,8.353-.225.225-.527.393-.626.729.114.476.632.549.886.886.356-.195.7-.4.664-.886A3.56,3.56,0,0,0,69.517,71.7a1.2,1.2,0,0,0,.664-.664q2.6-2.5,5.094-5.092" transform="translate(-46.955 -44.903)" fill="#78b77d"/>
        <path id="Trazado_618918" data-name="Trazado 618918" d="M53.158,83.346a17.9,17.9,0,0,1-1.981-1.874c-.292-.267-.562-.558-.909-.905-.3.392-.7.589-.874,1.008.811,1.065,1.872,1.891,2.765,2.9.32-.4.772-.663,1-1.126" transform="translate(-34.804 -56.77)" fill="#0f55a1"/>
        <path id="Trazado_618919" data-name="Trazado 618919" d="M36.657,100.52a13.464,13.464,0,0,1-4.341-1.545,18.174,18.174,0,0,1-2.944-2.51,4.227,4.227,0,0,1-.878-1.193,16.158,16.158,0,0,1-1.248-2.69,1.934,1.934,0,0,1-.1-.614c.009-.225-.144-.318-.3-.486-.236-.116-.533,0-.816-.039l-.68.327a6.055,6.055,0,0,0,.542,1.835.948.948,0,0,1,.138.494c.468.759.747,1.609,1.293,2.345.395.532.834,1.036,1.228,1.57a5.877,5.877,0,0,0,1.42,1.3c.426.293.85.655,1.278.953a11.6,11.6,0,0,0,2.088,1.069c.7.3,1.437.426,2.135.709a14.291,14.291,0,0,0,4.088.227c.694-.291,1.446-.208,2.141-.43.649-.207,1.289-.44,1.934-.66a.359.359,0,0,1,.11,0,16.391,16.391,0,0,1,1.8-1.1,13.5,13.5,0,0,0,4.645-5.426,8.712,8.712,0,0,1,.618-1.408c.274-.426.127-1.028.454-1.469.018-.024.01-.071.007-.107-.075-1.086.339-2.131.25-3.23-.032-.4-.34-.693-.269-1.127a1.318,1.318,0,0,0-.185-1.136c-.106-.13-.017-.42-.017-.642-.305-.15-.6-.033-.886-.073.016.2-.127.245-.272.216-.309-.061-.438.174-.614.338a.523.523,0,0,1,.222.552,11.762,11.762,0,0,1,.178,4.208,7.7,7.7,0,0,1-.674,2.573,8.949,8.949,0,0,1-1.34,2.408,11.9,11.9,0,0,1-1.95,2.089,16,16,0,0,1-2.634,1.665,9.064,9.064,0,0,1-4,1.009c-.808-.023-1.618,0-2.427,0" transform="translate(-17.86 -60.217)" fill="#050506"/>
        <path id="Trazado_618920" data-name="Trazado 618920" d="M25.821,165.2H38.177c.108-.559,0-1.132.068-1.771H25.422c-.1.558,0,1.129-.053,1.643.157.2.316.1.452.128" transform="translate(-17.876 -115.16)" fill="#0c0d0d"/>
        <path id="Trazado_618921" data-name="Trazado 618921" d="M77.684,114.9c-.562-.186-.834-.647-1.387-.775a9.2,9.2,0,0,1-3.218,2.87,10.891,10.891,0,0,1-4.1,1.112v1.472a8.643,8.643,0,0,0,5.272-1.31,10.166,10.166,0,0,0,3.436-3.369" transform="translate(-48.603 -80.413)" fill="#feffff"/>
        <path id="Trazado_618922" data-name="Trazado 618922" d="M98.323,97.6c-.027.417.137.9-.229,1.27.059.349.476.182.547.429h1.213V97.6Z" transform="translate(-69.12 -68.773)" fill="#f7fafe"/>
        <path id="Trazado_618923" data-name="Trazado 618923" d="M95.794,107.561c.375.481.973.462,1.364.94a9.417,9.417,0,0,0,.678-1.5c-.312-.529-.893-.378-1.24-.659-.362.247-.362.247-.8,1.218" transform="translate(-67.499 -74.933)" fill="#fafcfe"/>
        <path id="Trazado_618924" data-name="Trazado 618924" d="M83.726,71.237a.583.583,0,0,0-.493.15q-2.212,2.238-4.45,4.449a.582.582,0,0,0-.15.493c.423.17.622.593.936.816l4.973-4.971c-.172-.31-.648-.5-.815-.938" transform="translate(-55.406 -50.195)" fill="#fff"/>
        <path id="Trazado_618925" data-name="Trazado 618925" d="M73.214,90.712c-.134.028-.292-.069-.405.073-.289.362-.733.585-.924,1.034a5.27,5.27,0,0,0,.919,1l1.208-1.207c-.155-.278-.631-.462-.8-.9" transform="translate(-50.652 -63.914)" fill="#fdfefc"/>
        <path id="Trazado_618926" data-name="Trazado 618926" d="M66.406,97.374c-.536.169-.769.708-1.156.986l1.008,1.084c.483-.226.745-.686,1.185-1.032l-1.038-1.038" transform="translate(-45.977 -68.613)" fill="#fefefe"/>
      </g>
    </g>
  </g>
</svg>
