<svg xmlns="http://www.w3.org/2000/svg" xmlns:xlink="http://www.w3.org/1999/xlink" width="64.136" height="64.136" viewBox="0 0 64.136 64.136">
  <defs>
    <clipPath id="clip-path">
      <rect id="Rectángulo_33798" data-name="Rectángulo 33798" width="64.136" height="64.136" fill="#ffb500"/>
    </clipPath>
  </defs>
  <g id="Grupo_80129" data-name="Grupo 80129" transform="translate(0 -0.001)">
    <g id="Grupo_80128" data-name="Grupo 80128" transform="translate(0 0.001)" clip-path="url(#clip-path)">
      <path id="Trazado_114082" data-name="Trazado 114082" d="M36.7,54.476A17.772,17.772,0,1,0,18.932,36.7,17.806,17.806,0,0,0,36.7,54.476" transform="translate(-4.637 -4.637)" fill="#ffb500" fill-rule="evenodd"/>
      <path id="Trazado_114083" data-name="Trazado 114083" d="M43.4,10.14a1.817,1.817,0,0,1-3.621,0L38.9,3.181a2.762,2.762,0,0,1-.039-.457,2.725,2.725,0,0,1,5.45,0,2.763,2.763,0,0,1-.039.457Z" transform="translate(-9.517 0)" fill="#ffb500" fill-rule="evenodd"/>
      <path id="Trazado_114084" data-name="Trazado 114084" d="M43.4,70.969a1.817,1.817,0,0,0-3.621,0L38.9,77.927a2.76,2.76,0,0,0-.039.456,2.725,2.725,0,1,0,5.45,0,2.761,2.761,0,0,0-.039-.456Z" transform="translate(-9.517 -16.973)" fill="#ffb500" fill-rule="evenodd"/>
      <path id="Trazado_114085" data-name="Trazado 114085" d="M57.991,15.258a1.816,1.816,0,0,1-3.135-1.811l2.72-6.465h0a2.725,2.725,0,1,1,4.915,2.311,2.809,2.809,0,0,1-.262.377Z" transform="translate(-13.392 -1.275)" fill="#ffb500" fill-rule="evenodd"/>
      <path id="Trazado_114086" data-name="Trazado 114086" d="M27.43,67.976a1.817,1.817,0,0,0-3.136-1.811l-4.238,5.589a2.767,2.767,0,0,0-.261.375,2.725,2.725,0,1,0,4.915,2.311Z" transform="translate(-4.758 -16.013)" fill="#ffb500" fill-rule="evenodd"/>
      <path id="Trazado_114087" data-name="Trazado 114087" d="M67.976,27.43a1.816,1.816,0,0,1-1.81-3.135l5.588-4.239a3,3,0,0,1,.377-.261,2.725,2.725,0,0,1,2.725,4.721,2.858,2.858,0,0,1-.414.195Z" transform="translate(-16.013 -4.759)" fill="#ffb500" fill-rule="evenodd"/>
      <path id="Trazado_114088" data-name="Trazado 114088" d="M15.257,57.991a1.816,1.816,0,0,0-1.81-3.135l-6.466,2.72a2.9,2.9,0,0,0-.414.195,2.726,2.726,0,0,0,2.726,4.721,2.893,2.893,0,0,0,.375-.262Z" transform="translate(-1.275 -13.392)" fill="#ffb500" fill-rule="evenodd"/>
      <path id="Trazado_114089" data-name="Trazado 114089" d="M70.968,43.4a1.816,1.816,0,0,1,0-3.621l6.96-.877h0a2.725,2.725,0,1,1,.455,5.411,2.822,2.822,0,0,1-.455-.038Z" transform="translate(-16.973 -9.518)" fill="#ffb500" fill-rule="evenodd"/>
      <path id="Trazado_114090" data-name="Trazado 114090" d="M10.14,43.4a1.816,1.816,0,0,0,0-3.621L3.18,38.9h0a2.753,2.753,0,0,0-.456-.039,2.725,2.725,0,0,0,0,5.449,2.838,2.838,0,0,0,.456-.038Z" transform="translate(0 -9.518)" fill="#ffb500" fill-rule="evenodd"/>
      <path id="Trazado_114091" data-name="Trazado 114091" d="M66.166,57.991a1.816,1.816,0,0,1,1.81-3.135l6.465,2.72a2.83,2.83,0,0,1,.415.195,2.725,2.725,0,0,1-2.725,4.721,2.859,2.859,0,0,1-.377-.262Z" transform="translate(-16.013 -13.392)" fill="#ffb500" fill-rule="evenodd"/>
      <path id="Trazado_114092" data-name="Trazado 114092" d="M13.448,27.43a1.816,1.816,0,0,0,1.81-3.136L9.671,20.056h0a2.858,2.858,0,0,0-.375-.261A2.725,2.725,0,1,0,6.57,24.515a2.777,2.777,0,0,0,.413.195Z" transform="translate(-1.275 -4.759)" fill="#ffb500" fill-rule="evenodd"/>
      <path id="Trazado_114093" data-name="Trazado 114093" d="M54.856,67.976a1.816,1.816,0,0,1,3.135-1.811l4.239,5.589a2.838,2.838,0,0,1,.261.375,2.725,2.725,0,1,1-4.915,2.311Z" transform="translate(-13.392 -16.013)" fill="#ffb500" fill-rule="evenodd"/>
      <path id="Trazado_114094" data-name="Trazado 114094" d="M24.295,15.258a1.816,1.816,0,0,0,3.135-1.811L24.709,6.983a2.866,2.866,0,0,0-.2-.415,2.725,2.725,0,0,0-4.719,2.725,2.8,2.8,0,0,0,.261.377Z" transform="translate(-4.758 -1.275)" fill="#ffb500" fill-rule="evenodd"/>
    </g>
  </g>
</svg>
