<svg xmlns="http://www.w3.org/2000/svg" width="103.032" height="102" viewBox="0 0 103.032 102">
  <g id="control-de-calidad" transform="translate(-1 -1)">
    <path id="Trazado_619373" data-name="Trazado 619373" d="M44.56,26.28H41.236v10.5a18.274,18.274,0,1,1,3.324-10.5Zm-9.971,0a8.309,8.309,0,1,0-8.309,8.309A8.312,8.312,0,0,0,34.589,26.28Z" transform="translate(4.633 4.633)" fill="#fcd770"/>
    <path id="Trazado_619374" data-name="Trazado 619374" d="M58.5,25.265v4.371a38.653,38.653,0,0,1-6.93.615H48.531a18.291,18.291,0,1,0-3.324,10.5V49a38.906,38.906,0,0,0,.2,3.955l-2.26-1.4A24.349,24.349,0,0,1,36.2,54.43L35.236,58.5H25.265L24.3,54.43a24.349,24.349,0,0,1-6.946-2.875L13.8,53.749,6.753,46.7l2.194-3.556A24.349,24.349,0,0,1,6.071,36.2L2,35.236V25.265L6.071,24.3a24.349,24.349,0,0,1,2.875-6.946L6.753,13.8,13.8,6.753l3.556,2.194A24.349,24.349,0,0,1,24.3,6.071L25.265,2h9.971L36.2,6.071a24.349,24.349,0,0,1,6.946,2.875L46.7,6.753,53.749,13.8l-2.194,3.556A24.349,24.349,0,0,1,54.43,24.3Z" transform="translate(0.662 0.662)" fill="#ffc729"/>
    <path id="Trazado_619375" data-name="Trazado 619375" d="M61.666,45.046l4.985,18.28L60,61.664l-4.985,8.309L50.033,55.017l-.083-.15A39.04,39.04,0,0,0,61.533,44.93Z" transform="translate(32.395 29.073)" fill="#fc6e51"/>
    <path id="Trazado_619376" data-name="Trazado 619376" d="M46.7,54.868l-.083.15L41.633,69.973l-4.985-8.309L30,63.326l4.985-18.28.133-.116A39.04,39.04,0,0,0,46.7,54.868Z" transform="translate(19.192 29.073)" fill="#fc6e51"/>
    <path id="Trazado_619377" data-name="Trazado 619377" d="M84.5,21.647V40.392A39.409,39.409,0,0,1,64.477,74.675a38.818,38.818,0,0,1-8.226,3.473A39.259,39.259,0,0,1,36.442,64.738,39.326,39.326,0,0,1,28,40.392V21.647h6.365a38.653,38.653,0,0,0,6.93-.615,39.207,39.207,0,0,0,14.906-6l.05-.033.05.033a39.272,39.272,0,0,0,21.836,6.614Z" transform="translate(17.869 9.265)" fill="#b4dd7f"/>
    <path id="Trazado_619378" data-name="Trazado 619378" d="M75.207,25.2V37.3a32.909,32.909,0,0,1-21.6,30.76A32.909,32.909,0,0,1,32,37.3V25.2A45.882,45.882,0,0,0,53.6,19.67,45.882,45.882,0,0,0,75.207,25.2Z" transform="translate(20.516 12.356)" fill="#e6e9ed"/>
    <path id="Trazado_619379" data-name="Trazado 619379" d="M64.589,31.985l-18.28,18.28L38,41.956l4.985-4.985,3.324,3.324L59.6,27Z" transform="translate(24.487 17.207)" fill="#ff826e"/>
    <path id="Trazado_619380" data-name="Trazado 619380" d="M45.018,27.165l-1.165-3.113c-1.042.391-2.1.748-3.142,1.064l.961,3.181C42.783,27.961,43.91,27.58,45.018,27.165Z" transform="translate(26.281 15.256)"/>
    <path id="Trazado_619381" data-name="Trazado 619381" d="M38.324,33.637V29.17c1.233-.2,2.471-.44,3.7-.723l-.749-3.239c-1.6.372-3.226.665-4.826.876L35,26.275v7.363c0,.445.01.889.033,1.331l3.32-.17c-.02-.387-.03-.773-.03-1.163Z" transform="translate(22.501 16.021)"/>
    <path id="Trazado_619382" data-name="Trazado 619382" d="M22.971,13a9.971,9.971,0,1,0,9.971,9.971A9.981,9.981,0,0,0,22.971,13Zm0,16.618a6.647,6.647,0,1,1,6.647-6.647A6.654,6.654,0,0,1,22.971,29.618Z" transform="translate(7.942 7.942)"/>
    <path id="Trazado_619383" data-name="Trazado 619383" d="M55.06,18.959l-.793-.43-.793.43A44.414,44.414,0,0,1,32.652,24.3L31,24.305V38.057A34.49,34.49,0,0,0,53.7,70.384l.567.2.567-.2a34.49,34.49,0,0,0,22.7-32.327V24.305l-1.652-.01A44.426,44.426,0,0,1,55.06,18.959Zm19.147,19.1a31.156,31.156,0,0,1-19.942,28.99,31.159,31.159,0,0,1-19.942-28.99V27.579A47.777,47.777,0,0,0,54.267,22.3a47.782,47.782,0,0,0,19.94,5.28Z" transform="translate(19.854 11.601)"/>
    <path id="Trazado_619384" data-name="Trazado 619384" d="M43.921,35.557l-7.335,7.335L47.245,53.551l20.63-20.63-7.335-7.335L47.245,38.88Zm19.254-2.636-15.93,15.93-5.959-5.959,2.636-2.636,3.324,3.324L60.539,30.286Z" transform="translate(23.551 16.271)"/>
    <path id="Trazado_619385" data-name="Trazado 619385" d="M104.032,29.251H96.007a37.629,37.629,0,0,1-20.975-6.375l-.975-.567-.916.61a37.564,37.564,0,0,1-12.316,5.333V24.611l-4.379-1.03a26.415,26.415,0,0,0-2.295-5.537l2.37-3.827L47.609,5.3l-3.827,2.37a26.415,26.415,0,0,0-5.537-2.295L37.214,1h-12.6l-1.03,4.379a26.415,26.415,0,0,0-5.537,2.295L14.216,5.3,5.3,14.216l2.37,3.827a26.415,26.415,0,0,0-2.295,5.537L1,24.611v12.6l4.379,1.03a26.415,26.415,0,0,0,2.295,5.537L5.3,47.609l8.912,8.912,3.827-2.37a26.415,26.415,0,0,0,5.537,2.295l1.03,4.379h12.6l1.03-4.379a26.415,26.415,0,0,0,5.537-2.295l.766.474A41.122,41.122,0,0,0,52.433,74.2l-5.59,20.5,8.206-2.052L61.259,103l5.572-16.716a40.457,40.457,0,0,0,6.82,2.724l.469.14.469-.138a40.457,40.457,0,0,0,6.82-2.724L86.98,103l6.21-10.351L101.4,94.7l-5.59-20.5a40.987,40.987,0,0,0,8.226-24.545ZM43.818,50.266l-.869.528a23.065,23.065,0,0,1-6.486,2.687l-.99.243L34.582,57.5H27.243l-.889-3.777-.99-.243a23.064,23.064,0,0,1-6.486-2.687l-.869-.528-3.3,2.042-5.19-5.19,2.042-3.3-.528-.869a23.065,23.065,0,0,1-2.687-6.486l-.243-.99-3.779-.891V27.243L8.1,26.354l.243-.99a23.065,23.065,0,0,1,2.687-6.486l.528-.869-2.042-3.3,5.19-5.19,3.3,2.042.869-.528a23.065,23.065,0,0,1,6.486-2.687l.99-.243.891-3.777h7.339L35.471,8.1l.99.243a23.065,23.065,0,0,1,6.486,2.687l.869.528,3.3-2.042,5.19,5.19-2.042,3.3.528.869a23.065,23.065,0,0,1,2.687,6.486l.243.99,3.779.891v1.632a38.06,38.06,0,0,1-5.27.376H50.769a19.952,19.952,0,1,0-6.562,16.505v3.9c0,.292.03.58.037.871Zm.389-21.015v11.6a16.6,16.6,0,1,1,3.239-11.6ZM60.391,95.093l-3.761-6.267L51.542,90.1,55.03,77.305a41.175,41.175,0,0,0,8.847,7.327Zm36.305-5-5.088-1.271-3.761,6.267L84.361,84.632a41.176,41.176,0,0,0,8.847-7.327Zm4.012-40.44A37.909,37.909,0,0,1,74.119,85.679,37.909,37.909,0,0,1,47.531,49.658V32.574h4.7a40.9,40.9,0,0,0,21.886-6.328,40.864,40.864,0,0,0,21.889,6.328h4.7Z"/>
  </g>
</svg>
