<svg id="Grupo_877668" data-name="Grupo 877668" xmlns="http://www.w3.org/2000/svg" xmlns:xlink="http://www.w3.org/1999/xlink" width="131" height="130.667" viewBox="0 0 131 130.667">
  <defs>
    <clipPath id="clip-path">
      <rect id="Rectángulo_326429" data-name="Rectángulo 326429" width="131" height="130.667" fill="none"/>
    </clipPath>
  </defs>
  <g id="Grupo_877667" data-name="Grupo 877667" clip-path="url(#clip-path)">
    <path id="Trazado_618429" data-name="Trazado 618429" d="M73.647,14.291a8.96,8.96,0,0,0-7.88-.543c-2.6.9-5.087,4.75-5.112,7.594-.017,1.9,0,3.8,0,5.761-1.567-.293-2.981-.98-4.621-.945a8.771,8.771,0,0,0-8.377,8.526c.017,2.782,0,5.564,0,8.6-2.045-.837-3.784-1.642-5.592-2.236a11.588,11.588,0,0,1-1.841-.771c-2.905-1.6-5.458-.608-8.134.587-2.358,1.053-4.831,1.85-7.256,2.751-1.8.668-3.611,1.306-5.406,1.985Q13.459,47.858,7.5,50.146c-1.559.6-3.16,1.107-4.649,1.845a4.018,4.018,0,0,1-1.489.336L.011,53.683c0,9.328-.035,18.666.014,28A31.417,31.417,0,0,0,3.455,95.215a25.468,25.468,0,0,0,3.2,4.937c4.31,5.336,9.7,9.626,14.148,14.792,4.765,5.534,10.2,10.378,15.109,15.722h1.708c7.011-6.874,13.916-13.924,20.752-21.575v20.168c.537.482,1,.9,1.562,1.406h44.906l1.291-1.737c0-6.858.032-14.193-.025-21.528a9.325,9.325,0,0,1,1.08-4.459c3.186-6.284,6.269-12.622,9.4-18.936a1.8,1.8,0,0,1,.376-.388c0-3.083,0-6.165,0-9.212a5.625,5.625,0,0,0,1.063-1.227c1.98-4.489,4.89-8.452,7.116-12.809,1.337-2.617,2.909-5.13,4.358-7.7a18.731,18.731,0,0,0,1.429-4.03c.293-.979-.36-2.3-.774-3.407a7.231,7.231,0,0,1-.2-1.247l-3.467-3.439c-.355-.433-.891-.122-1.414-.418a6.527,6.527,0,0,0-5.606-.243,8.837,8.837,0,0,0-4.72,3.83c-1.3,2.271-2.6,4.538-3.888,6.819-1.576,2.8-3.316,5.51-4.945,8.283-.62,1.055-1.127,2.177-1.946,3.778V59.43c0-12.423-.063-24.846.028-37.268a8.784,8.784,0,0,0-10.29-8.941,3.87,3.87,0,0,0-2.733,1.251c0-1.988-.045-3.686.008-5.38A8.659,8.659,0,0,0,80.7.153a8.388,8.388,0,0,0-7.035,8.12c-.112,1.895-.019,3.8-.019,6.019" transform="translate(0 0)" fill="#040506"/>
    <path id="Trazado_618430" data-name="Trazado 618430" d="M.016,14.547V16.1L1.8,17.381c.326-.107.856.558,1.5.654,1.515.225,2.834,1.017,4.4,1.194,2.249.255,3.289,1.387,3.632,3.654.285,1.88,1.143,3.542,1.564,5.318a4.962,4.962,0,0,0,1.477,2.38h1.4c.606-.161.885-.785,1.5-1.27-.061-1.537.979-2.883,1.289-4.482.1-.53.3-1.126.408-1.715.47-2.466,1.342-3.545,3.7-3.916a22.461,22.461,0,0,0,5.275-1.656c1.47-.619,1.505-.534,2.384-1.4v-1.55l-1.787-1.284c-.327.107-.856-.558-1.5-.654-1.515-.225-2.834-1.017-4.4-1.194-2.249-.255-3.289-1.387-3.632-3.654a22.438,22.438,0,0,0-1.647-5.3,5.048,5.048,0,0,0-1.395-2.4h-1.4c-.711.188-.958.983-1.584,1.3.266.82-.4,1.353-.491,2-.223,1.523-1.011,2.849-1.188,4.426-.253,2.26-1.38,3.305-3.635,3.651-1.871.286-3.524,1.149-5.291,1.572A4.93,4.93,0,0,0,.016,14.547" transform="translate(-0.004 -0.029)" fill="#050506"/>
    <path id="Trazado_618431" data-name="Trazado 618431" d="M46.4,36.13H42.14c-.151,1.376-.028,2.777-.084,4.354H46.4c.1-.1.2-.2.3-.3a4.637,4.637,0,0,0,0-3.753c-.1-.1-.2-.2-.307-.3" transform="translate(-11.739 -9.93)" fill="#040506"/>
    <path id="Trazado_618432" data-name="Trazado 618432" d="M53.823,40.483h4.262c.151-1.376.028-2.776.085-4.353H53.823c-.1.1-.2.2-.3.3a4.637,4.637,0,0,0,0,3.753c.1.1.2.2.307.3" transform="translate(-14.828 -9.93)" fill="#040506"/>
    <path id="Trazado_618433" data-name="Trazado 618433" d="M154.561,36.13H150.3c-.151,1.376-.028,2.777-.084,4.354h4.347c.1-.1.2-.2.3-.3a4.637,4.637,0,0,0,0-3.753c-.1-.1-.2-.2-.307-.3" transform="translate(-41.93 -9.93)" fill="#040506"/>
    <path id="Trazado_618434" data-name="Trazado 618434" d="M161.981,40.483h4.262c.151-1.376.028-2.776.084-4.353h-4.347c-.1.1-.2.2-.3.3a4.637,4.637,0,0,0,0,3.753c.1.1.2.2.307.3" transform="translate(-45.019 -9.93)" fill="#040506"/>
    <path id="Trazado_618435" data-name="Trazado 618435" d="M52.418,34.474V30.19c-1.37-.152-2.762-.028-4.332-.086v4.37a3.351,3.351,0,0,0,4.332,0" transform="translate(-13.422 -8.274)" fill="#040506"/>
    <path id="Trazado_618436" data-name="Trazado 618436" d="M160.576,34.474V30.19c-1.37-.152-2.762-.028-4.332-.086v4.37a3.351,3.351,0,0,0,4.332,0" transform="translate(-43.613 -8.274)" fill="#040506"/>
    <path id="Trazado_618437" data-name="Trazado 618437" d="M48.086,41.832v4.285c1.37.152,2.762.028,4.332.086v-4.37a3.353,3.353,0,0,0-4.332,0" transform="translate(-13.422 -11.279)" fill="#040506"/>
    <path id="Trazado_618438" data-name="Trazado 618438" d="M156.244,41.832v4.285c1.37.152,2.762.028,4.332.086v-4.37a3.353,3.353,0,0,0-4.332,0" transform="translate(-43.613 -11.279)" fill="#040506"/>
    <path id="Trazado_618439" data-name="Trazado 618439" d="M69.117,11.847v4.284c1.37.152,2.762.028,4.332.086v-4.37c-.1-.1-.2-.2-.3-.305a4.573,4.573,0,0,0-3.733,0c-.1.1-.2.205-.3.309" transform="translate(-19.293 -3.062)" fill="#040506"/>
    <path id="Trazado_618440" data-name="Trazado 618440" d="M168.262,11.847v4.284c1.37.152,2.762.028,4.332.086v-4.37c-.1-.1-.2-.2-.3-.305a4.572,4.572,0,0,0-3.733,0q-.149.153-.3.309" transform="translate(-46.968 -3.062)" fill="#040506"/>
    <path id="Trazado_618441" data-name="Trazado 618441" d="M67.434,6.11H63.171c-.151,1.376-.028,2.777-.084,4.354h4.347a3.8,3.8,0,0,0,.331-4.017c-.109-.113-.22-.225-.331-.336" transform="translate(-17.61 -1.679)" fill="#040506"/>
    <path id="Trazado_618442" data-name="Trazado 618442" d="M74.837,10.464H79.1c.151-1.376.028-2.777.084-4.354H74.837c-.109.113-.217.226-.327.339a3.79,3.79,0,0,0,.327,4.015" transform="translate(-20.682 -1.679)" fill="#040506"/>
    <path id="Trazado_618443" data-name="Trazado 618443" d="M166.579,6.11h-4.262c-.151,1.376-.028,2.777-.084,4.354h4.347a3.8,3.8,0,0,0,.331-4.017c-.109-.113-.22-.225-.331-.336" transform="translate(-45.285 -1.679)" fill="#040506"/>
    <path id="Trazado_618444" data-name="Trazado 618444" d="M173.981,10.464h4.262c.151-1.376.028-2.777.084-4.354h-4.347q-.162.17-.327.339a3.79,3.79,0,0,0,.327,4.015" transform="translate(-48.356 -1.679)" fill="#040506"/>
    <path id="Trazado_618445" data-name="Trazado 618445" d="M73.449,4.454V.17C72.079.017,70.686.141,69.117.084v4.37a3.351,3.351,0,0,0,4.332,0" transform="translate(-19.293 -0.023)" fill="#040506"/>
    <path id="Trazado_618446" data-name="Trazado 618446" d="M172.593,4.454V.17c-1.37-.152-2.762-.028-4.332-.086v4.37a3.351,3.351,0,0,0,4.332,0" transform="translate(-46.967 -0.023)" fill="#040506"/>
    <path id="Trazado_618447" data-name="Trazado 618447" d="M145.1,45.847c-1.812,1-2,1.185-2.709,2.468-1.468,2.66-2.869,5.353-4.568,7.885-.977,1.455-1.658,3.109-2.514,4.65-1.594,2.871-3.175,5.75-4.854,8.57a5.693,5.693,0,0,1-2.075,2.009c-2.352,1.344-4.609,2.849-6.908,4.265a24.755,24.755,0,0,0-7.085,6.829,7.866,7.866,0,0,0-1.287,4.082h-4.146c-.6-2.389.677-4.333,1.623-6.26,1.02-2.08,4.734-5.367,7.148-7.331a24.373,24.373,0,0,1,4.635-3.221c-2.029-2.168-1.85-4.853-1.843-7.546.036-11.956.019-23.911.013-35.867a15.423,15.423,0,0,0-.319-4.321c-.324-1.118-.618-2.352-2.184-2.334-1.5.165-1.677,1.793-2.716,2.4V60.415h-4.252V9.215c-1.132-.845-1.16-2.76-3.042-2.941-2.488-.439-4.6.115-5.751,3.442V60.521H97.995v2.737c0,6.712-.1,13.426.057,20.135.047,2.073-.888,3.98-.6,6.034-1.559,4.184-2.869,8.46-5.734,12.05-1.391,1.744-2.894,3.353-4.5,5v21.549h34.6c.887-.972.751-2.186.755-3.351.019-4.709.092-9.42-.025-14.125a15.33,15.33,0,0,1,1.816-7.808c2.419-4.551,4.523-9.27,6.964-13.809a15.794,15.794,0,0,0,2.085-9.1,11.167,11.167,0,0,1,1.734-6.963c3.312-5.5,6.429-11.113,9.606-16.693a19.36,19.36,0,0,0,2.184-4.655c.577-2.241.46-4.335-1.837-5.673" transform="translate(-24.347 -1.688)" fill="#feb462"/>
    <path id="Trazado_618448" data-name="Trazado 618448" d="M70.982,72.874c-1.87-.752-3.64-1.5-5.433-2.176s-3.63-1.263-5.422-1.951c-2.493-.955-4.934-2.051-7.451-2.935-3.7-1.3-7.4-2.615-11-4.175a7.008,7.008,0,0,0-6.4.051c-2.6,1.147-5.29,2.052-7.955,3.031-3.289,1.208-6.533,2.537-9.805,3.791-2.416.926-4.816,1.909-7.279,2.69-1.458.463-2.754,1.208-4.221,1.758V91.765c0,2.177-.109,4.36.023,6.529a27.654,27.654,0,0,0,3.241,11.971,28.184,28.184,0,0,0,3.69,5.278c6.837,7.542,14.159,14.6,21.218,21.925,1.4,1.447,2.628,3.088,4.154,4.624a9.291,9.291,0,0,0,3.244-3.075,15.908,15.908,0,0,1,1.814-2.209c4.382-4.445,8.756-8.9,13.208-13.271,2.939-2.885,5.514-6.1,8.337-9.093a19.424,19.424,0,0,0,4.437-7.91A35.11,35.11,0,0,0,71,96.321c-.068-7.708-.021-15.417-.021-23.448" transform="translate(-1.666 -16.735)" fill="#76767e"/>
    <path id="Trazado_618449" data-name="Trazado 618449" d="M158.484,60.9c.078.6.646.815,1.083,1.408,0,.26-.167.8.028,1.112,1.006,1.6.133,2.855-.507,4.261-1.2,2.624-2.781,5.009-4.178,7.508-.815,1.457-1.571,2.969-2.4,4.427-2.085,3.673-4.253,7.3-6.481,11.1,0,2.429-.063,5.054.033,7.673a5.129,5.129,0,0,1-.61,2.476c-3.12,6.317-6.328,12.589-9.5,18.877a6.214,6.214,0,0,0-.779,2.95c.061,6.794.03,13.589.03,20.383h4.248c.186-3.759.053-7.531.078-11.3.024-3.715.006-7.43.006-11.017,3.6-7.236,7.152-14.369,10.829-21.755,0-2.233.063-4.768-.03-7.3a5.315,5.315,0,0,1,.762-2.956c1.622-2.774,3.321-5.5,4.948-8.273.937-1.6,1.837-3.216,2.674-4.866,1.567-3.089,3.7-5.848,5.171-9.312.022-3.831.022-3.831-2.43-5.405Z" transform="translate(-37.731 -16.737)" fill="#f89124"/>
    <path id="Trazado_618450" data-name="Trazado 618450" d="M97.207,25.176a4.442,4.442,0,0,1-1.912-1.038H93.148c-.6.447-.987,1.235-1.871,1.3.055.856-.732,1.148-1.129,1.7,0,9.586,0,19.172,0,28.88,2.522,1.872,6.022,1.8,8.506,3.981a4.553,4.553,0,0,0,.144-2.133c.019-8.862.009-17.725.016-26.588,0-2,.262-4.046-1.606-6.105" transform="translate(-25.163 -6.634)" fill="#feb462"/>
    <path id="Trazado_618451" data-name="Trazado 618451" d="M129.952,24.64c1.467.479,1.1,1.978,1.582,2.993a4.826,4.826,0,0,1,.043,1.883V74.165c.865,0,1.573-.02,2.278.01a.418.418,0,0,1,.43.534c.774-.157,1.006-.971,1.615-1.282V27.848L134.61,25.3c-1.293-.537-2.571-1.548-4.231-1.205-.281.058-.488.2-.427.542" transform="translate(-36.271 -6.604)" fill="#f89124"/>
    <path id="Trazado_618452" data-name="Trazado 618452" d="M72.216,45.061V56.245c1.414.571,2.73,1.27,4.185,1.707,1.419.426,2.775,1.067,4.41,1.714V56.372c0-2.438.018-4.877-.006-7.315-.019-1.9.411-3.9-1.066-5.532L77.111,42.17H75.162c-.6.375-.959,1.216-1.852,1.254-.012.815-.693,1.175-1.094,1.637" transform="translate(-20.158 -11.59)" fill="#feb462"/>
    <path id="Trazado_618453" data-name="Trazado 618453" d="M18.818,24.1l.515.064c1.1-3.9,1.181-3.988,4.685-4.611v-.708c-1.1-.2-2.364-.1-3.534-1.223a3.675,3.675,0,0,1-.785-2.943.754.754,0,0,0-.848-.278c-.6,3.8-1.566,4.084-4.461,4.482-.2.354-.185.831.166.9,3.557.723,3.8.946,4.262,4.316" transform="translate(-3.98 -3.95)" fill="#fb0"/>
    <rect id="Rectángulo_326425" data-name="Rectángulo 326425" width="4.332" height="4.354" transform="translate(34.664 26.199)" fill="#f7f9fa"/>
    <rect id="Rectángulo_326426" data-name="Rectángulo 326426" width="4.332" height="4.354" transform="translate(112.631 26.199)" fill="#f7f9fa"/>
    <rect id="Rectángulo_326427" data-name="Rectángulo 326427" width="4.332" height="4.354" transform="translate(49.824 4.431)" fill="#f7f9fa"/>
    <rect id="Rectángulo_326428" data-name="Rectángulo 326428" width="4.332" height="4.354" transform="translate(121.294 4.431)" fill="#f7f9fa"/>
    <path id="Trazado_618454" data-name="Trazado 618454" d="M39.338,135.754h1.668c7.032-7.069,14.033-14.141,21.077-21.17,3.138-3.13,4.715-6.99,5.771-11.217a19.048,19.048,0,0,0,.475-4.687c.013-6.712.005-13.423.005-20.318a6.351,6.351,0,0,0-3.069-1.98,45.958,45.958,0,0,1-4.612-1.916c-2.987-1.073-5.916-2.342-8.8-3.611-2.74-1.207-5.677-2.036-8.242-3.657-.786-.5-1.737-.545-2.578-.979-1.186-.611-2.407.194-3.426.644-4.278,1.89-8.643,3.566-12.924,5.424-2.906,1.261-5.935,2.254-8.742,3.753-1.34.715-3.033.82-3.919,2.442,0,7.125-.063,14.382.024,21.637.05,4.094,1.687,7.749,3.612,11.275a15.67,15.67,0,0,0,2.868,3.434q10.435,10.475,20.81,20.925" transform="translate(-3.35 -18.14)" fill="#050506"/>
    <path id="Trazado_618455" data-name="Trazado 618455" d="M40.23,73.543c-1.347-.1-2.2,1.339-3.579,1.149-1.318,1.123-3.031,1.43-4.557,2.053-3.622,1.479-7.142,3.209-10.858,4.475a6.908,6.908,0,0,0-3.2,1.865V96.729c0,1.629.087,3.265-.025,4.886-.1,1.523.978,2.836.533,4.279a2.353,2.353,0,0,1,.6.965,24.849,24.849,0,0,0,6.346,9.315c4.138,4.032,8.162,8.182,12.251,12.264.427.426.73,1.033,1.409,1.16a4.4,4.4,0,0,0,2.391-1.672c4.157-4.152,8.361-8.259,12.421-12.506,5.348-5.6,6.683-12.4,5.556-19.863-1.468-1.01-2.109.4-2.839,1.113-4.063,3.981-8.041,8.049-12.066,12.069a5.612,5.612,0,0,1-2.9,2.006c-3.077-1.708-5.1-4.84-7.651-7.1.217-1.316.761-1.8,1.77-1.9,2.307,1.128,3.376,3.96,6.6,4.985,5.59-5.479,11.323-11.172,16.891-17.046,1.028-2.914.768-5.824.128-8.889-5.771-2.663-11.6-4.987-17.42-7.338a1.745,1.745,0,0,0-1.8.083" transform="translate(-5.024 -20.133)" fill="#ffe39a"/>
    <path id="Trazado_618456" data-name="Trazado 618456" d="M48.419,73.44a6.051,6.051,0,0,1,1.756.333c4.132,1.777,8.242,3.607,12.46,5.2A22.448,22.448,0,0,1,67.369,81.2c0,2.275-.061,4.447.032,6.614a4,4,0,0,1-.574,1.95c.108,1.064,1.218,1.537,1.416,2.3.3,1.371-1.367,1.912-.874,3.145q0,2.851,0,5.7a25.5,25.5,0,0,1-3.81,11.986,12,12,0,0,1-1.326,1.352q-6.876,6.911-13.744,13.831c-.424.429-1.027.733-1.153,1.415.579,1.145,1.678,1.806,2.407,2.711.884.109,1.149-.593,1.564-1.008,5.685-5.686,11.411-11.333,17-17.116a19.929,19.929,0,0,0,5.091-9.835,23.057,23.057,0,0,0,.467-4.953q.015-8.151,0-16.325c-1.547-1.709-4.032-1.632-5.768-3-1.861,0-3.258-1.286-4.911-1.872-3.916-1.39-7.671-3.24-11.492-4.9a3.321,3.321,0,0,0-3.277.242" transform="translate(-13.213 -20.029)" fill="#ffd53d"/>
    <path id="Trazado_618457" data-name="Trazado 618457" d="M64.912,101.611c.427-1.1,1.554-1.584,2.251-2.648a8.837,8.837,0,0,0-2.792-2.794c-.678.127-.981.732-1.407,1.159q-6.986,6.983-13.948,13.991c-.429.429-.752,1.006-1.159,1.12l-6.078-6.11-3.244,3.257,8.265,8.343h1.608q7.554-7.592,15.1-15.158c.426-.426.729-1.032,1.407-1.159" transform="translate(-10.756 -26.432)" fill="#050506"/>
  </g>
</svg>
