<svg xmlns="http://www.w3.org/2000/svg" xmlns:xlink="http://www.w3.org/1999/xlink" width="362" height="244" viewBox="0 0 362 244">
  <defs>
    <filter id="Elipse_5190" x="70" y="6" width="216" height="216" filterUnits="userSpaceOnUse">
      <feOffset dy="3" input="SourceAlpha"/>
      <feGaussianBlur stdDeviation="3" result="blur"/>
      <feFlood flood-opacity="0.161"/>
      <feComposite operator="in" in2="blur"/>
      <feComposite in="SourceGraphic"/>
    </filter>
    <filter id="Rectángulo_326538" x="0" y="27" width="123" height="58" filterUnits="userSpaceOnUse">
      <feOffset dy="3" input="SourceAlpha"/>
      <feGaussianBlur stdDeviation="3" result="blur-2"/>
      <feFlood flood-opacity="0.161"/>
      <feComposite operator="in" in2="blur-2"/>
      <feComposite in="SourceGraphic"/>
    </filter>
    <filter id="Rectángulo_326539" x="239" y="26" width="123" height="58" filterUnits="userSpaceOnUse">
      <feOffset dy="3" input="SourceAlpha"/>
      <feGaussianBlur stdDeviation="3" result="blur-3"/>
      <feFlood flood-opacity="0.161"/>
      <feComposite operator="in" in2="blur-3"/>
      <feComposite in="SourceGraphic"/>
    </filter>
    <filter id="Rectángulo_326540" x="121" y="186" width="123" height="58" filterUnits="userSpaceOnUse">
      <feOffset dy="3" input="SourceAlpha"/>
      <feGaussianBlur stdDeviation="3" result="blur-4"/>
      <feFlood flood-opacity="0.161"/>
      <feComposite operator="in" in2="blur-4"/>
      <feComposite in="SourceGraphic"/>
    </filter>
    <clipPath id="clip-path">
      <rect id="Rectángulo_326541" data-name="Rectángulo 326541" width="61.462" height="88.326" fill="none"/>
    </clipPath>
  </defs>
  <g id="Grupo_877828" data-name="Grupo 877828" transform="translate(-932.615 -653.205)">
    <g transform="matrix(1, 0, 0, 1, 932.62, 653.21)" filter="url(#Elipse_5190)">
      <circle id="Elipse_5190-2" data-name="Elipse 5190" cx="99" cy="99" r="99" transform="translate(79 12)" fill="#dfe1b0"/>
    </g>
    <g id="Elipse_5191" data-name="Elipse 5191" transform="translate(999.615 653.205)" fill="none" stroke="#fff" stroke-width="3">
      <circle cx="111" cy="111" r="111" stroke="none"/>
      <circle cx="111" cy="111" r="109.5" fill="none"/>
    </g>
    <g id="Grupo_877827" data-name="Grupo 877827">
      <g id="Grupo_877824" data-name="Grupo 877824" transform="translate(3 -14)">
        <g transform="matrix(1, 0, 0, 1, 929.62, 667.21)" filter="url(#Rectángulo_326538)">
          <rect id="Rectángulo_326538-2" data-name="Rectángulo 326538" width="105" height="40" rx="20" transform="translate(9 33)" fill="#fff"/>
        </g>
        <path id="Trazado_619398" data-name="Trazado 619398" d="M-16.219,0h-1.453l-1.187-3.141h-4.75L-24.727,0h-1.461l4.3-11.2h1.359Zm-3.07-4.32-1.758-4.773a4.571,4.571,0,0,1-.172-.75h-.031a4.185,4.185,0,0,1-.18.75L-23.172-4.32ZM-8.1,0H-9.383V-4.562q0-2.547-1.859-2.547a2.017,2.017,0,0,0-1.59.723,2.679,2.679,0,0,0-.629,1.824V0h-1.281V-8h1.281v1.328h.031A2.887,2.887,0,0,1-10.8-8.187,2.448,2.448,0,0,1-8.8-7.34a3.776,3.776,0,0,1,.7,2.449ZM.039,0H-1.242V-1.25h-.031A2.682,2.682,0,0,1-3.734.188,2.63,2.63,0,0,1-5.605-.445a2.192,2.192,0,0,1-.676-1.68q0-2.242,2.641-2.609l2.4-.336q0-2.039-1.648-2.039A3.938,3.938,0,0,0-5.5-6.125V-7.437a4.958,4.958,0,0,1,2.719-.75q2.82,0,2.82,2.984ZM-1.242-4.047l-1.93.266a3.133,3.133,0,0,0-1.344.441,1.273,1.273,0,0,0-.453,1.121,1.221,1.221,0,0,0,.418.957,1.615,1.615,0,0,0,1.113.371,2.056,2.056,0,0,0,1.574-.668A2.387,2.387,0,0,0-1.242-3.25Zm.172-8.031L-3.117-9.516h-.992l1.742-2.562ZM3.734,0H2.453V-11.844H3.734Zm3.25-10.031a.812.812,0,0,1-.586-.234.791.791,0,0,1-.242-.594.8.8,0,0,1,.242-.6.8.8,0,0,1,.586-.238.827.827,0,0,1,.6.238.8.8,0,0,1,.246.6.792.792,0,0,1-.246.586A.82.82,0,0,1,6.984-10.031ZM7.609,0H6.328V-8H7.609ZM9.719-.289V-1.664a3.792,3.792,0,0,0,2.3.773q1.688,0,1.688-1.125a.976.976,0,0,0-.145-.543,1.44,1.44,0,0,0-.391-.395,3.007,3.007,0,0,0-.578-.309q-.332-.137-.715-.285a9.207,9.207,0,0,1-.934-.426,2.82,2.82,0,0,1-.672-.484,1.8,1.8,0,0,1-.406-.613,2.17,2.17,0,0,1-.137-.8,1.912,1.912,0,0,1,.258-1A2.286,2.286,0,0,1,10.68-7.6a3.206,3.206,0,0,1,.98-.441A4.349,4.349,0,0,1,12.8-8.187a4.59,4.59,0,0,1,1.859.359v1.3a3.624,3.624,0,0,0-2.031-.578,2.374,2.374,0,0,0-.648.082,1.587,1.587,0,0,0-.5.23,1.065,1.065,0,0,0-.32.355.936.936,0,0,0-.113.457,1.1,1.1,0,0,0,.113.523,1.152,1.152,0,0,0,.332.375,2.538,2.538,0,0,0,.531.3q.312.133.711.289a9.9,9.9,0,0,1,.953.418,3.269,3.269,0,0,1,.719.484,1.893,1.893,0,0,1,.457.621,2,2,0,0,1,.16.836,1.971,1.971,0,0,1-.262,1.031,2.243,2.243,0,0,1-.7.727,3.2,3.2,0,0,1-1.008.43,4.976,4.976,0,0,1-1.2.141A4.539,4.539,0,0,1,9.719-.289Zm7.93-9.742a.812.812,0,0,1-.586-.234.791.791,0,0,1-.242-.594.8.8,0,0,1,.242-.6.8.8,0,0,1,.586-.238.827.827,0,0,1,.6.238.8.8,0,0,1,.246.6.792.792,0,0,1-.246.586A.82.82,0,0,1,17.648-10.031ZM18.273,0H16.992V-8h1.281Zm2.109-.289V-1.664a3.792,3.792,0,0,0,2.3.773q1.688,0,1.688-1.125a.976.976,0,0,0-.145-.543,1.44,1.44,0,0,0-.391-.395,3.007,3.007,0,0,0-.578-.309q-.332-.137-.715-.285a9.207,9.207,0,0,1-.934-.426,2.82,2.82,0,0,1-.672-.484,1.8,1.8,0,0,1-.406-.613,2.17,2.17,0,0,1-.137-.8,1.912,1.912,0,0,1,.258-1,2.286,2.286,0,0,1,.688-.727,3.206,3.206,0,0,1,.98-.441,4.349,4.349,0,0,1,1.137-.148,4.59,4.59,0,0,1,1.859.359v1.3a3.624,3.624,0,0,0-2.031-.578,2.374,2.374,0,0,0-.648.082,1.587,1.587,0,0,0-.5.23,1.065,1.065,0,0,0-.32.355.936.936,0,0,0-.113.457,1.1,1.1,0,0,0,.113.523,1.152,1.152,0,0,0,.332.375,2.538,2.538,0,0,0,.531.3q.313.133.711.289a9.9,9.9,0,0,1,.953.418,3.269,3.269,0,0,1,.719.484,1.893,1.893,0,0,1,.457.621,2,2,0,0,1,.16.836,1.971,1.971,0,0,1-.262,1.031,2.243,2.243,0,0,1-.7.727,3.2,3.2,0,0,1-1.008.43,4.976,4.976,0,0,1-1.2.141A4.539,4.539,0,0,1,20.383-.289Z" transform="translate(991.615 727.205)" fill="#12263f"/>
      </g>
      <g id="Grupo_877823" data-name="Grupo 877823" transform="translate(12 -15)">
        <g transform="matrix(1, 0, 0, 1, 920.62, 668.21)" filter="url(#Rectángulo_326539)">
          <rect id="Rectángulo_326539-2" data-name="Rectángulo 326539" width="105" height="40" rx="20" transform="translate(248 32)" fill="#fff"/>
        </g>
        <text id="Mejora" transform="translate(1221.615 727.205)" fill="#12263f" font-size="16" font-family="SegoeUI, Segoe UI"><tspan x="-24.844" y="0">Mejora</tspan></text>
      </g>
      <g id="Grupo_877822" data-name="Grupo 877822" transform="translate(1 27)">
        <g transform="matrix(1, 0, 0, 1, 931.62, 626.21)" filter="url(#Rectángulo_326540)">
          <rect id="Rectángulo_326540-2" data-name="Rectángulo 326540" width="105" height="40" rx="20" transform="translate(130 192)" fill="#fff"/>
        </g>
        <text id="Resultados" transform="translate(1114.615 845.205)" fill="#12263f" font-size="16" font-family="SegoeUI, Segoe UI"><tspan x="-38.168" y="0">Resultados</tspan></text>
      </g>
      <g id="Grupo_877826" data-name="Grupo 877826" transform="translate(1082.615 736.205)">
        <g id="Grupo_877825" data-name="Grupo 877825" clip-path="url(#clip-path)">
          <path id="Trazado_618939" data-name="Trazado 618939" d="M12.72,49.712c1.611,3.253,5.791,7.437,9.378,8.734v2.87c-.165.249-.426.059-.729.212l-1.138-1.12c-.957-.055-1.345.507-1.591,1.243a16.719,16.719,0,0,0-6.886,3.773A18.326,18.326,0,0,0,8.2,70.682c-.282.564.171,1.306-.536,1.679.153,1.187-.408,2.279-.38,3.481.093,3.9.035,7.807.035,11.664l.819.82h45.25c.225-.226.469-.47.819-.82V75.754a15.2,15.2,0,0,0-2.835-8.648,15.048,15.048,0,0,0-6.9-4.93c-.433-.15-.837-.629-1.5-.332a2.484,2.484,0,0,0-1-1.414c-.966-.271-1.185.748-1.853,1.026l-.689-.039V58.48a20.732,20.732,0,0,0,9.4-8.768c1.4,0,2.825.034,4.251-.006a6.13,6.13,0,0,0,6.228-7.192,4.8,4.8,0,0,0-2.561-3.9c-.388-.18-.472-.847-1.166-.578,0-.82.019-1.5,0-2.178a11.487,11.487,0,0,0-.324-4,2.7,2.7,0,0,1-.017-.96c.822-.832,1.919-.864,2.865-1.158a4.9,4.9,0,0,0,3.313-3.9,3.073,3.073,0,0,0-.614-2.142,3.706,3.706,0,0,0-3.511-2.3,6.31,6.31,0,0,0-2.851.628,2.32,2.32,0,0,1-.789.1c-.71-2.482-1.369-4.908-2.04-7.329-.657-2.375-1.49-4.706-1.922-7.152a10.275,10.275,0,0,0-1.206-3.452A7.55,7.55,0,0,0,43.588.3c-2.215-.5-4.4-.1-6.59-.292-.455.415-1.123.257-1.623.684A18.009,18.009,0,0,1,33.2,2.084a2.027,2.027,0,0,1-1.408.342.992.992,0,0,0-.965.437c-.539-.658-1.313-.349-1.976-.457-.985-.628-1.9-1.311-2.907-1.819a4.143,4.143,0,0,0-2-.585c-1.205.039-2.412.02-3.619.008a6.793,6.793,0,0,0-4.473,1.667,7.93,7.93,0,0,0-2.739,4.556c-.273,1.23-.684,2.465-1.053,3.692-.585,1.948-1.184,3.888-1.662,5.869C9.987,17.509,9.355,19.17,9.02,20.91c-.607.365-.136,1.076-.475,1.612a9.734,9.734,0,0,0-5.6-1.04c-1.131.694-2.4,1.484-2.526,3.207a.929.929,0,0,0-.31,1.219c.379.712.4,1.546.943,2.208a6.23,6.23,0,0,0,3.185,1.905,8.51,8.51,0,0,1,1.951.725c.419,1.215-.435,2.285-.285,3.472a28.925,28.925,0,0,1,.033,3.6,6.583,6.583,0,0,0-3.508,4.031,5.537,5.537,0,0,0,.2,3.991A5.918,5.918,0,0,0,8.349,49.7c1.434.055,2.872.01,4.371.01" transform="translate(0 0)" fill="#040506"/>
          <path id="Trazado_618940" data-name="Trazado 618940" d="M60.952,71.427a17.68,17.68,0,0,0-2.713.53,2.213,2.213,0,0,1-1.132.138c-.932-.181-1.729.361-2.619.381a4.217,4.217,0,0,0-2.458.308c-.243.158-.673.024-1.018.024-3.5,0-7.009-.042-10.512.032-.814.017-1.473-.411-2.27-.411-.75,0-1.587.379-2.287-.292-.12-.115-.447.008-.672-.024-.655-.092-1.336.209-1.977-.224-.549-.371-1.365.188-1.874-.461-.975.254-1.823-.548-2.785-.338-.319.07-.407-.321-.781-.278,0,3.211-.181,6.433.056,9.623a15.446,15.446,0,0,0,2.664,7.325,16.927,16.927,0,0,0,2.553,3.252,20.458,20.458,0,0,0,5.42,3.548,13.987,13.987,0,0,0,5.464,1.378c.433.011.914-.156,1.257.316.061.084.366.088.49.013.943-.569,2.006-.132,2.955-.375a5.225,5.225,0,0,1,1.91-.293c1.527-.808,3.032-1.231,4.358-2.05.339-.209.675-.317.8-.723a14.717,14.717,0,0,0,5.668-11.682c.065-2.529.019-5.061.007-7.591a2.911,2.911,0,0,0-.5-2.125" transform="translate(-15.023 -38.282)" fill="#f9a358"/>
          <path id="Trazado_618941" data-name="Trazado 618941" d="M36.422,19.108v-.515a5.111,5.111,0,0,1,2.353-.551c3.665-.677,7.352-.13,11.022-.311a9.527,9.527,0,0,1,2.955.315c.948.253,1.98-.213,2.961.336a3,3,0,0,0,1.524.027c.519-.041.822.505,1.409.38.756-.161,1.447.557,2.255.319.934-.055.747-.8.636-1.27A78.175,78.175,0,0,0,58.9,7.876a4.186,4.186,0,0,0-1.446-1.883c-1.318,0-2.64.066-3.953-.019A4.165,4.165,0,0,0,50.48,6.979a6.646,6.646,0,0,1-3.215,1.351,7.425,7.425,0,0,1-3.479-.186,10.659,10.659,0,0,1-2.924-1.282,4.216,4.216,0,0,0-2.729-.9c-1.424.111-2.863.027-4.3.027a6.5,6.5,0,0,0-3.014,3.367c-.334,1.011-.662,2.024-.945,3.05-.511,1.856-.987,3.722-1.478,5.584-.6.4.119,1.278-.706,1.7,1.014.3,1.765-.28,2.563-.477s1.684.159,2.248-.649c.561.464.968.742,1.159,1.234a1.712,1.712,0,0,0,2.758-.69" transform="translate(-14.973 -3.219)" fill="#d08000"/>
          <path id="Trazado_618942" data-name="Trazado 618942" d="M34.429,34.588c-.421.071-.564.505-.9.69h-1.86v.8a2.8,2.8,0,0,1-2.421,1.26,14.26,14.26,0,0,0-4.013,1.11c-.1.04-.164.157-.367.359l-.863,3.327c1.5-.01,2.72.741,4.088.781.653.634,1.666-.019,2.311.646,1.012-.13,1.916.566,2.954.359.656-.131,1.2.468,1.922.367.562-.079,1.215-.265,1.769.283.174.172.661.027,1.005.027,1.375,0,2.751-.028,4.125.014.588.018,1.233-.26,1.771.31a.868.868,0,0,0,.824,0,3.759,3.759,0,0,1,2.618-.3c1.988.173,3.911-.349,5.872-.444a24.432,24.432,0,0,0,3.67-.624c1.164-.242,2.3-.583,3.492-.725.257-.031.529-.368.893-.306.6-1.813-.178-3.331-1.034-4.832-.9.087-1.69-.565-2.6-.362-.435-.558-1.133-.107-1.564-.363a3.7,3.7,0,0,0-1.6-.319,9.9,9.9,0,0,0-2.613-.349c-.828.1-1.561-.475-2.44-.359a7.417,7.417,0,0,1-2.738-.019,15.168,15.168,0,0,0-2.966-.31c-1.126-.065-2.155.495-3.3.38s-2.292-.021-3.439-.026c-.554,0-.972.6-1.9.131-.031-.056-.25-.463-.469-.87l-.225.221Z" transform="translate(-12.979 -18.7)" fill="#71472c"/>
          <path id="Trazado_618943" data-name="Trazado 618943" d="M61.6,164.89c-.175,1.962-1.26,3.717-4.5,3.454l-1.8-.926-.9-1.764c-.4-1.966.52-3.379,2.357-4.394.006-.1.027-.268.024-.433a2.285,2.285,0,0,0-.071-.366,1.194,1.194,0,0,0-.458-.05,17.758,17.758,0,0,1-3.84.663c-.716.055-1.334.6-2.088.364-.813.729-1.981-.025-2.819.675a.718.718,0,0,1-.664,0c-.663-.424-1.453-.14-2.082-.377-.714-.269-1.477-.088-2.087-.347-.755-.321-1.631-.141-2.332-.808-.058-.34-.576-.661-.449-1.214a2.079,2.079,0,0,0-2.413-.345v2.225a5.309,5.309,0,0,1,2.393,2.5c.222,2.055-.312,3.785-2.905,4.621-2.969.3-4.142-1.457-4.314-3.475q-.172-.237-.345,0v1.974a2.6,2.6,0,0,1-2.032,1.919V171.4H63.977v-2.58c-.825-.395-1.871-.509-2.032-1.689V164.89q-.173-.239-.345,0" transform="translate(-16.361 -85.84)" fill="#71c0bf"/>
          <path id="Trazado_618944" data-name="Trazado 618944" d="M62.018,54.189V53.162A2.459,2.459,0,0,0,60.436,52c-.318.565-1.011.109-1.569.385-1.285.636-2.731.894-4.073,1.4-1.307.493-2.736.541-3.987,1.195-1.526-.211-2.85.827-4.37.7-.6-.05-1.081.5-1.758.361a1.665,1.665,0,0,0-1.583.311c-.06.057-.225.025-.337.006-1.362-.233-2.648.381-4,.354-1.379-.028-2.758-.006-4.137-.006-1.092,0-2.19-.077-3.274.017-2.046.177-4.033-.374-6.063-.426-.659-.017-1.382-.3-2.1-.276s-1.335-.506-2.1-.367a4.986,4.986,0,0,1-2.079-.391c-1.654-.426-3.322-.823-4.97-1.287-1.955-.55-3.815-1.363-5.77-1.9-.1-.027-.173-.135-.254-.2a3.1,3.1,0,0,0-1.853,1.273v.924L7.632,55.32c1.011.321,2.332.743,3.655,1.159,1.587.5,3.2.911,4.8,1.329,1.82.473,3.7.665,5.494,1.269.8.269,1.779-.1,2.6.387,1.641-.2,3.214.585,4.856.343s3.216.416,4.857.38c1.181-.026,2.276-.52,3.479-.4a11.188,11.188,0,0,0,3.433-.034,11.692,11.692,0,0,1,2.628-.28c.892.007,1.7-.577,2.615-.352,1.891-.648,3.976-.48,5.807-1.38,1.57.1,2.937-.678,4.394-1.055,1.441-.372,2.828-.951,4.266-1.34.692-.187.9-.84,1.5-1.155" transform="translate(-3.333 -28.044)" fill="#fea500"/>
          <path id="Trazado_618945" data-name="Trazado 618945" d="M45.944,148.74c.486-.166.75.412,1.222.355a10.1,10.1,0,0,1,1.192-.01c.47-.357.766-.956,1.569-1.051a3.386,3.386,0,0,0,1.792.359c.584-.135.983.438,1.582.372a1.7,1.7,0,0,1,1.446.259,1.659,1.659,0,0,0,1.329.039c1.6-.544,3.357-.309,4.919-1.014,1.3.232,2.5-.593,3.681-.343a1.16,1.16,0,0,0,.582-1.247c-.015-2.181-.006-4.362-.006-6.565a2.1,2.1,0,0,0-1.363-.052,9.349,9.349,0,0,1-3.165,4.378,8.489,8.489,0,0,1-10.3.049,9.3,9.3,0,0,1-3.136-4.47H45.944Z" transform="translate(-24.839 -75.558)" fill="#e02c34"/>
          <path id="Trazado_618946" data-name="Trazado 618946" d="M21.906,161.511h.988v-4.258c.527-.3.319-1.047,1.274-1.229h.659a.462.462,0,0,0,.184-.441c-.005-.746.039-1.494-.011-2.237a5.1,5.1,0,0,1,1.417-3.713,4.609,4.609,0,0,1,3.506-1.912c.176,0,.35-.255.533-.4V140.46a11.286,11.286,0,0,0-7.6,6.507,8.826,8.826,0,0,0-.97,3.908c.053,3.5.017,7,.017,10.637" transform="translate(-11.833 -75.938)" fill="#e02c34"/>
          <path id="Trazado_618947" data-name="Trazado 618947" d="M65.909,129.789a20.9,20.9,0,0,1-11.649.021c-.026,1.5-.285,2.9.254,4.328a5.7,5.7,0,0,0,4.932,3.678,10.553,10.553,0,0,0,2.633-.259,4.9,4.9,0,0,0,2.656-1.885,4.709,4.709,0,0,0,1.186-3.3c-.063-.791-.011-1.59-.011-2.586" transform="translate(-29.289 -70.169)" fill="#f4882d"/>
          <path id="Trazado_618948" data-name="Trazado 618948" d="M93.9,71.521c0,3.437.05,6.875-.017,10.311a14.139,14.139,0,0,1-2.2,6.995c-.87,1.472-1.971,2.73-2.956,4.093.114,0,.271.05.336-.007,1.062-.927,2.478-1.458,3.12-2.858.323-.7,1.03-1.093,1.445-1.8a21.874,21.874,0,0,0,2.728-6.606,11.468,11.468,0,0,0,.3-2.785c.012-2.628,0-5.256,0-7.886-.96.046-1.8.588-2.758.54" transform="translate(-47.969 -38.375)" fill="#ed7d33"/>
          <path id="Trazado_618949" data-name="Trazado 618949" d="M100.2,156.467c.952-.17.921.785,1.422,1.267v4.218h.992v-2.366c0-2.638.029-5.276-.008-7.913a10.584,10.584,0,0,0-3.107-7.486,10.462,10.462,0,0,0-3.7-2.7,4.536,4.536,0,0,0-1.117-.2c-.175.618.247.963.629,1.3,3.366,2.927,4.437,6.787,4.558,11.06.027.946-.3,1.95.33,2.831" transform="translate(-51.167 -76.382)" fill="#b30415"/>
          <path id="Trazado_618950" data-name="Trazado 618950" d="M99.5,156.062c0-1.43.031-2.861-.014-4.29-.021-.656.245-1.353-.2-1.97-.4-.556.238-1.382-.472-1.863a2.785,2.785,0,0,0-.6-1.64c-.3-.557-.39-1.285-.805-1.709-.909-.928-1.309-2.329-2.684-2.843a1.22,1.22,0,0,1-.737-.871c-.029-.444-.3-.366-.637-.272v6.69c.2.153.33.464.749.5a4.993,4.993,0,0,1,3.7,2.411,5.261,5.261,0,0,1,1.029,3.529c-.049.734-.009,1.473-.009,2.145.23.29.478.139.689.183" transform="translate(-50.465 -75.977)" fill="#df2b33"/>
          <path id="Trazado_618951" data-name="Trazado 618951" d="M17.072,94.009a24.2,24.2,0,0,1-1.36-6.794c-.879-.152-1.837.015-2.738-.074a4.05,4.05,0,0,0-2.357,2.447c-.315,1.849.122,3.555,2.254,4.421Z" transform="translate(-5.691 -47.112)" fill="#f4882d"/>
          <path id="Trazado_618952" data-name="Trazado 618952" d="M115.623,89.4c-.4-.314-.433-.854-.826-1.215a3.13,3.13,0,0,0-2.5-1.04c-.563.052-1.134.009-1.775.009a26.874,26.874,0,0,1-1.379,6.9,35.642,35.642,0,0,0,3.847-.03,3.119,3.119,0,0,0,2.623-2.741,17.947,17.947,0,0,0,.011-1.887" transform="translate(-59.007 -47.109)" fill="#f4882d"/>
          <path id="Trazado_618953" data-name="Trazado 618953" d="M92.479,6.036c.045.211-.076.43.113.642a7.885,7.885,0,0,1,1.627,3.617c.485,2.076,1.094,4.123,1.617,6.19a15.2,15.2,0,0,0,.4,1.723c.087.232.361.825-.309.944a.257.257,0,0,0,.27.336,6.892,6.892,0,0,1,2.943.711.431.431,0,0,0,.224-.589A46.546,46.546,0,0,1,98,14.853q-.9-2.893-1.724-5.808a4.543,4.543,0,0,0-3.8-3.009" transform="translate(-49.998 -3.263)" fill="#aa6507"/>
          <path id="Trazado_618954" data-name="Trazado 618954" d="M102.986,41.35a16.92,16.92,0,0,0,.942,3.853,5.436,5.436,0,0,1,.092.979,12.06,12.06,0,0,0,2.825-.893l-.749-2.731c-.966-.607-2.124-.686-3.11-1.208" transform="translate(-55.678 -22.356)" fill="#56321f"/>
          <path id="Trazado_618955" data-name="Trazado 618955" d="M18.992,68.7v5.61c.4.224.8.081,1.265.121V68.994c-.289-.3-.947.249-1.265-.293" transform="translate(-10.268 -37.143)" fill="#363644"/>
          <path id="Trazado_618956" data-name="Trazado 618956" d="M113.377,68.205c-.348.558-.822.373-1.264.509v5.327c.325.344.79-.024,1.264.2Z" transform="translate(-60.613 -36.874)" fill="#363644"/>
          <path id="Trazado_618957" data-name="Trazado 618957" d="M34.686,166.358h.345a2.62,2.62,0,0,1,.346-1.752,4.613,4.613,0,0,1,2-1.8,2.171,2.171,0,0,0-.044-1.311c-1.221.235-1.856,1.2-2.651,1.928Z" transform="translate(-18.753 -87.309)" fill="#69b7b4"/>
          <path id="Trazado_618958" data-name="Trazado 618958" d="M95.637,166.37h.345v-2.939c-.8-.728-1.43-1.693-2.6-1.918-.274.441-.109.848-.154,1.194,1.333.891,2.591,1.8,2.409,3.663" transform="translate(-50.398 -87.321)" fill="#69b7b4"/>
          <path id="Trazado_618959" data-name="Trazado 618959" d="M42.273,171.969c.23-.233.421-.534.831-.321v-1.695H41.526c-.293.448,0,1.01-.141,1.488.322.243.723.181.888.527" transform="translate(-22.374 -91.884)" fill="#f09b00"/>
          <path id="Trazado_618960" data-name="Trazado 618960" d="M90.471,169.9h-1.6v1.786c.027.125.7-.378.64.19.386-.042.557-.408.959-.328Z" transform="translate(-48.048 -91.857)" fill="#f09b00"/>
          <path id="Trazado_618961" data-name="Trazado 618961" d="M61.449,102.181c1.888-.88,3.621-1.812,4.43-3.825a2.409,2.409,0,0,0-1.7-1.185,3.163,3.163,0,0,0-1.35.993,3.035,3.035,0,0,1-2.569,1.3c-.168-.014-.356.221-.486.309-.444.131-.518-.421-.952-.348a2.271,2.271,0,0,1-2.012-.933A4.77,4.77,0,0,0,54.976,97.1a3.19,3.19,0,0,0-1.535,1.243,5.352,5.352,0,0,0,2.228,2.76c1.733,1.345,3.841,1.2,5.78,1.079" transform="translate(-28.892 -52.496)" fill="#0a0806"/>
          <path id="Trazado_618962" data-name="Trazado 618962" d="M43.693,81.009c.328.769.982.563,1.143,1.057.6-.415,1.307-.627,1.615-1.326A2.206,2.206,0,0,0,45.621,79H44.507l-.814,1.046Z" transform="translate(-23.622 -42.708)" fill="#171008"/>
          <path id="Trazado_618963" data-name="Trazado 618963" d="M84.019,80.565a2.585,2.585,0,0,0,1.729,1.324c.929-.292,1.235-1.087,1.108-2.138l-.833-.834a2.659,2.659,0,0,0-1.125.065c-.522.407-.586,1.019-.88,1.583" transform="translate(-45.424 -42.65)" fill="#150f08"/>
          <path id="Trazado_618964" data-name="Trazado 618964" d="M65.186,179.3l.664-1.124a2.418,2.418,0,0,0-1.7-1.578H55.124c-.664.443-1.588.56-1.579,1.546l.684,1.156Z" transform="translate(-28.949 -95.474)" fill="#050b0b"/>
        </g>
      </g>
      <path id="Icon_awesome-arrow-right" data-name="Icon awesome-arrow-right" d="M13.395,4.7l1.561-1.561a1.681,1.681,0,0,1,2.384,0L31.008,16.8a1.681,1.681,0,0,1,0,2.384L17.339,32.857a1.681,1.681,0,0,1-2.384,0L13.395,31.3a1.689,1.689,0,0,1,.028-2.412L21.9,20.813H1.688A1.683,1.683,0,0,1,0,19.125v-2.25a1.683,1.683,0,0,1,1.688-1.687H21.9L13.423,7.116A1.677,1.677,0,0,1,13.395,4.7Z" transform="translate(1097.615 682.558)"/>
      <path id="Icon_awesome-arrow-right-2" data-name="Icon awesome-arrow-right" d="M13.395,4.7l1.561-1.561a1.681,1.681,0,0,1,2.384,0L31.008,16.8a1.681,1.681,0,0,1,0,2.384L17.339,32.857a1.681,1.681,0,0,1-2.384,0L13.395,31.3a1.689,1.689,0,0,1,.028-2.412L21.9,20.813H1.688A1.683,1.683,0,0,1,0,19.125v-2.25a1.683,1.683,0,0,1,1.688-1.687H21.9L13.423,7.116A1.677,1.677,0,0,1,13.395,4.7Z" transform="matrix(-0.53, 0.848, -0.848, -0.53, 1233.86, 780.237)"/>
      <path id="Icon_awesome-arrow-right-3" data-name="Icon awesome-arrow-right" d="M13.394,28.649l1.561,1.561a1.681,1.681,0,0,0,2.384,0L31.008,16.548a1.681,1.681,0,0,0,0-2.384L17.339.5a1.681,1.681,0,0,0-2.384,0L13.395,2.057a1.689,1.689,0,0,0,.028,2.412L21.9,12.54H1.688A1.683,1.683,0,0,0,0,14.228v2.25a1.683,1.683,0,0,0,1.687,1.687H21.9l-8.473,8.072A1.677,1.677,0,0,0,13.394,28.649Z" transform="matrix(0.53, 0.848, -0.848, 0.53, 1026.04, 762.205)"/>
    </g>
  </g>
</svg>
