<svg xmlns="http://www.w3.org/2000/svg" width="94" height="99.642" viewBox="0 0 94 99.642">
  <g id="idea" transform="translate(-14.496)">
    <g id="Grupo_877843" data-name="Grupo 877843" transform="translate(29.234 1.577)">
      <path id="Trazado_619008" data-name="Trazado 619008" d="M249.847,363.056H230.36A13.661,13.661,0,0,0,216.7,376.717V386.5a3.966,3.966,0,0,0,3.966,3.966h38.878a3.966,3.966,0,0,0,3.966-3.966v-9.783A13.661,13.661,0,0,0,249.847,363.056Z" transform="translate(-192.085 -293.978)" fill="#80b4fb"/>
      <path id="Trazado_619009" data-name="Trazado 619009" d="M220.95,376.721V386.5a3.966,3.966,0,0,0,3.967,3.965h-4.251A3.965,3.965,0,0,1,216.7,386.5v-9.784a13.66,13.66,0,0,1,13.662-13.66h4.251A13.66,13.66,0,0,0,220.95,376.721Z" transform="translate(-192.085 -293.982)" fill="#5490f9"/>
      <path id="Trazado_619010" data-name="Trazado 619010" d="M304.165,372.343a8.17,8.17,0,0,1,1.682,9.669,18.859,18.859,0,0,1-8.766-4.2,18.855,18.855,0,0,1-8.766,4.2A8.17,8.17,0,0,1,290,372.343" transform="translate(-249.04 -301.457)" fill="#5490f9"/>
      <path id="Trazado_619011" data-name="Trazado 619011" d="M314.728,371.781c0,.036,0,.073,0,.109,0,3.018-3.17,5.464-7.082,5.464s-7.084-2.447-7.084-5.464c0-.036,0-.073,0-.109" transform="translate(-259.63 -301.004)" fill="#f1b986"/>
      <path id="Trazado_619012" data-name="Trazado 619012" d="M226.008,445.11v3.864h7.211a6.8,6.8,0,0,1,6.8,6.8v.778H220.665a3.966,3.966,0,0,1-3.966-3.966V445.11h9.309Z" transform="translate(-192.085 -360.063)" fill="#f1d0a5"/>
      <path id="Trazado_619013" data-name="Trazado 619013" d="M220.653,456.552H224.9a3.966,3.966,0,0,1-3.954-3.965v-7.475H216.7v7.475A3.965,3.965,0,0,0,220.653,456.552Z" transform="translate(-192.085 -360.064)" fill="#f1b986"/>
      <path id="Trazado_619014" data-name="Trazado 619014" d="M351.414,445.11v3.864H344.2a6.8,6.8,0,0,0-6.8,6.8v.778h19.352a3.966,3.966,0,0,0,3.966-3.966V445.11h-9.309Z" transform="translate(-289.3 -360.063)" fill="#f1d0a5"/>
      <path id="Trazado_619015" data-name="Trazado 619015" d="M409.39,444.858H413.3v3.913H409.39Z" transform="translate(-347.276 -359.86)" fill="#f1b986"/>
      <path id="Trazado_619016" data-name="Trazado 619016" d="M409.39,432.127H413.3V434.6H409.39Z" transform="translate(-347.276 -349.606)" fill="#5490f9"/>
      <path id="Trazado_619017" data-name="Trazado 619017" d="M344.2,464.961h3.149a6.8,6.8,0,0,0-6.8,6.8v.778h-3.149v-.778A6.8,6.8,0,0,1,344.2,464.961Z" transform="translate(-289.3 -376.05)" fill="#f1b986"/>
      <path id="Trazado_619018" data-name="Trazado 619018" d="M242.232,243.924h.033a5.1,5.1,0,0,0,0-10.2c-.037,0-.073,0-.11,0H195.473c-.037,0-.073,0-.11,0a5.1,5.1,0,0,0,0,10.2h.033" transform="translate(-170.796 -189.817)" fill="#f1b986"/>
      <path id="Trazado_619019" data-name="Trazado 619019" d="M262.082,160.858a229.99,229.99,0,0,0-44.491,0,157.723,157.723,0,0,0-1.017,27.663A13.05,13.05,0,0,0,229,200.893q10.833.511,21.666,0A13.05,13.05,0,0,0,263.1,188.521,157.68,157.68,0,0,0,262.082,160.858Z" transform="translate(-191.818 -130.262)" fill="#f1d0a5"/>
      <path id="Trazado_619020" data-name="Trazado 619020" d="M217.6,160.854q11.121-1.079,22.246-1.077a59.222,59.222,0,0,0-11.263,1.088q-.876,13.965-.516,27.927c.157,6.126,2.4,11.122,5.334,12.261q-2.194-.06-4.39-.164a13.051,13.051,0,0,1-12.429-12.372A157.924,157.924,0,0,1,217.6,160.854Z" transform="translate(-191.823 -130.259)" fill="#f1b986"/>
      <path id="Trazado_619021" data-name="Trazado 619021" d="M229.522,101.573c-8.524,3.293-20.633,1.841-26.735-4.261,0,0-1.449,9.908-8.957,9.908l-3.274,1.1c-8.744-34.322,9.906-25.152,9.906-25.152A8.871,8.871,0,0,1,207.468,78q.354-.044.709-.066l.057,0a15.551,15.551,0,0,1,5.5.829c.591.191,1.158.4,1.688.618a25.852,25.852,0,0,1,4.014,2.062l.064.044c1.919-2.54,3.75-4.838,5.763-4.838a2.1,2.1,0,0,1,1.78.821c1.452,1.9.259,6.481.163,6.841l0,.016.006-.016.01-.026c.258-.65,3.141-7.636,8.313-7.636a4.044,4.044,0,0,1,.88.089c3.855.852.837,7.595.505,8.309l-.009.02-.018.036c.165-.21,6.621-8.406,9.49-4.646l0,0C249.272,84.275,238.042,98.281,229.522,101.573Z" transform="translate(-169.151 -63.308)" fill="#665e66"/>
      <g id="Grupo_877841" data-name="Grupo 877841" transform="translate(19.071 13.34)">
        <path id="Trazado_619022" data-name="Trazado 619022" d="M447.739,92.14h0c-1.451-1.449-6.475,5.392-9.493,4.65l.022-.041-.017.036C438.414,96.576,444.87,88.379,447.739,92.14Z" transform="translate(-389.587 -88.331)" fill="#454045"/>
        <path id="Trazado_619023" data-name="Trazado 619023" d="M397.685,76.738c-2.179-.495-4.2,3.653-5.34,6.6a2.439,2.439,0,0,1-3.56,1.191l-.312-.193,0-.006,0-.016h0l.01-.026c.258-.65,3.141-7.636,8.313-7.636a4.044,4.044,0,0,1,.88.089Z" transform="translate(-349.501 -76.649)" fill="#454045"/>
        <path id="Trazado_619024" data-name="Trazado 619024" d="M207.465,83.609c-6.236,1.1-8.593,15.4-4.681,19.309,0,0-1.449,9.908-8.957,9.908l-3.274,1.1c-8.744-34.322,9.906-25.152,9.906-25.152A8.872,8.872,0,0,1,207.465,83.609Z" transform="translate(-188.22 -82.254)" fill="#454045"/>
        <path id="Trazado_619025" data-name="Trazado 619025" d="M329.807,77.47c-2.192-2.192-3.653,9.049-8.587,10.849s-5.4-.5-5.4-.5h0c2.429-.9,4.48-3.739,6.439-6.331h0c.06-.08.119-.159.179-.237.074-.1.151-.2.227-.3,1.774-2.317,3.486-4.3,5.357-4.3a2.1,2.1,0,0,1,1.78.822Z" transform="translate(-290.991 -76.648)" fill="#454045"/>
      </g>
      <path id="Trazado_619026" data-name="Trazado 619026" d="M290.813,83.259c-.02,0-.041,0-.061,0l.057,0Z" transform="translate(-251.727 -68.632)" fill="#ecc32e"/>
      <g id="Grupo_877842" data-name="Grupo 877842" transform="translate(0)">
        <path id="Trazado_619027" data-name="Trazado 619027" d="M118.9,22.444A14.328,14.328,0,0,1,112.2,34.587H96.932a14.344,14.344,0,0,1,10.74-26.145c.1.023.207.046.309.071A14.345,14.345,0,0,1,118.9,22.444Z" transform="translate(-90.225 -8.104)" fill="#f4dd45"/>
        <path id="Trazado_619028" data-name="Trazado 619028" d="M103.758,34.589H96.931a14.343,14.343,0,0,1,10.74-26.144c.1.022.209.044.31.071a14.344,14.344,0,0,0-4.223,26.073Z" transform="translate(-90.225 -8.104)" fill="#eab14d"/>
        <path id="Trazado_619029" data-name="Trazado 619029" d="M132.952,146.284a3.759,3.759,0,0,1-3.76,3.76H116.986a3.76,3.76,0,1,1,0-7.519h12.207A3.76,3.76,0,0,1,132.952,146.284Z" transform="translate(-108.749 -116.364)" fill="#dfeaef"/>
        <path id="Trazado_619030" data-name="Trazado 619030" d="M123.484,150.043h-6.5a3.76,3.76,0,0,1,0-7.52h6.5a3.76,3.76,0,1,0,0,7.52Z" transform="translate(-108.748 -116.363)" fill="#b4d0d5"/>
        <path id="Trazado_619031" data-name="Trazado 619031" d="M141.149,184.923a3.759,3.759,0,0,1-3.76,3.76h-6.983a3.76,3.76,0,1,1,0-7.52h6.983A3.76,3.76,0,0,1,141.149,184.923Z" transform="translate(-119.558 -147.483)" fill="#dfeaef"/>
        <path id="Trazado_619032" data-name="Trazado 619032" d="M135.009,188.682h-4.6a3.76,3.76,0,0,1,0-7.52h4.6a3.76,3.76,0,0,0,0,7.52Z" transform="translate(-119.557 -147.483)" fill="#b4d0d5"/>
      </g>
    </g>
    <g id="Grupo_877844" data-name="Grupo 877844" transform="translate(14.496 0)">
      <path id="Trazado_619033" data-name="Trazado 619033" d="M316.718,287.538a1.463,1.463,0,0,0-1.949.695,3.829,3.829,0,0,1-6.919,0,1.463,1.463,0,1,0-2.643,1.254,6.755,6.755,0,0,0,12.206,0A1.463,1.463,0,0,0,316.718,287.538Z" transform="translate(-248.516 -231.465)"/>
      <path id="Trazado_619034" data-name="Trazado 619034" d="M272.439,234.446c-1.173,0-2.128,1.42-2.128,3.167s.954,3.167,2.128,3.167,2.127-1.421,2.127-3.167S273.611,234.446,272.439,234.446Z" transform="translate(-220.526 -188.82)"/>
      <path id="Trazado_619035" data-name="Trazado 619035" d="M384.258,234.446c-1.173,0-2.127,1.42-2.127,3.167s.954,3.167,2.127,3.167,2.128-1.421,2.128-3.167S385.431,234.446,384.258,234.446Z" transform="translate(-310.584 -188.82)"/>
      <path id="Trazado_619036" data-name="Trazado 619036" d="M162.8,22.3c.539-1.908.386-3.435-.455-4.536a3.767,3.767,0,0,0-3.058-1.564h-.02a8.175,8.175,0,0,0-4.683,2.061,5.238,5.238,0,0,0-.662-3.119,3.964,3.964,0,0,0-3.614-1.772,8.762,8.762,0,0,0-6.5,3.343,4.86,4.86,0,0,0-.836-1.94,3.56,3.56,0,0,0-2.951-1.4c-2.385,0-4.268,1.982-6.142,4.384a28.552,28.552,0,0,0-3.169-1.538c-.6-.245-1.2-.466-1.8-.656a16.923,16.923,0,0,0-6.034-.9l-.049,0h-.014c-.269.015-.541.04-.814.074a10.062,10.062,0,0,0-7.47,4.8c-.27-.093-.578-.189-.912-.28a16,16,0,0,0,.371-3.427A15.8,15.8,0,0,0,101.9.447l-.323-.073a15.868,15.868,0,0,0-11.437,1.8,1.463,1.463,0,1,0,1.482,2.523,12.941,12.941,0,0,1,9.316-1.465l.286.065a12.915,12.915,0,0,1,4.362,23.1,5.221,5.221,0,0,0-1.32-.169H99.615V22.058A5.661,5.661,0,0,0,103.8,16.6a1.463,1.463,0,0,0-2.926,0,2.726,2.726,0,1,1-5.451,0,1.463,1.463,0,0,0-2.926,0,5.661,5.661,0,0,0,4.189,5.459v4.164H92.034a5.265,5.265,0,0,0-1.322.168A12.913,12.913,0,0,1,87.838,8.072,1.463,1.463,0,1,0,85.5,6.31a15.845,15.845,0,0,0,2.561,21.74,5.228,5.228,0,0,0,2.082,8.282,5.234,5.234,0,0,0,4.507,7.892h7a5.251,5.251,0,0,0,1.461-.207q.232,1.027.492,2.085a6.568,6.568,0,0,0,3.405,10.911q.048,1.465.121,2.923A14.5,14.5,0,0,0,114.037,71.6a15.231,15.231,0,0,0-7.05,12.8v9.808s0,.006,0,.009a5.444,5.444,0,0,0,5.438,5.427H151.4a5.444,5.444,0,0,0,5.438-5.438V84.4a15.162,15.162,0,0,0-.536-4.007,1.463,1.463,0,0,0-2.822.774,12.234,12.234,0,0,1,.432,3.234v.852h-6.4v-1.07a1.463,1.463,0,0,0-2.926,0v4.943h-5.765a8.241,8.241,0,0,0-5.437,2.044V80.882a21.856,21.856,0,0,0,7.029,2.76,1.462,1.462,0,0,0,1.567-.713,9.589,9.589,0,0,0-.167-9.163c.344-.015.69-.026,1.034-.043a14.717,14.717,0,0,0,3.556-.61,12.27,12.27,0,0,1,4.664,3.44,1.463,1.463,0,1,0,2.244-1.878,15.216,15.216,0,0,0-3.517-3.08,14.5,14.5,0,0,0,6.9-11.659q.075-1.46.12-2.923a6.574,6.574,0,0,0-.1-12.87q-.266-5.542-.916-11.053c3.448-3.677,6.158-7.774,7.008-10.787Zm-50.074-.248a10.865,10.865,0,0,1,1.79.63,1.462,1.462,0,0,0,1.947-.642,7.444,7.444,0,0,1,5.9-4.4c.2-.025.4-.043.6-.055l.094-.006a14.081,14.081,0,0,1,4.956.764c.521.168,1.055.363,1.586.58a25.508,25.508,0,0,1,2.486,1.181c-1.549,2.027-3.145,3.937-4.808,4.551a1.463,1.463,0,0,0,1.014,2.745c2.718-1,4.806-3.772,6.825-6.45,1.646-2.182,3.511-4.656,4.9-4.656.4,0,.53.127.621.247.728.955.377,3.907-.09,5.6a1.463,1.463,0,0,0,2.778.908c.026-.068,2.676-6.756,6.982-6.756.883,0,1.074.3,1.136.4.685,1.087-.249,4.211-1.1,5.979a1.463,1.463,0,0,0,2.473,1.533,26.637,26.637,0,0,1,2.454-2.663c2.329-2.191,3.565-2.424,4-2.421a.857.857,0,0,1,.746.412,2.6,2.6,0,0,1-.034,1.967c-1.447,5.123-9.732,14.439-16.223,16.947-8.469,3.272-19.79,1.5-25.235-3.942a1.463,1.463,0,0,0-2.482.823,15.884,15.884,0,0,1-1.515,4.5c-1.458,2.776-3.482,4.183-6.016,4.183h-.006l-.1,0a6.543,6.543,0,0,0-2.2.38q-.255-1.08-.477-2.12a5.225,5.225,0,0,0,.43-5.938,5.228,5.228,0,0,0,2.083-8.284,15.736,15.736,0,0,0,4.488-6ZM90.4,29.823a2.291,2.291,0,0,1,1.631-.675h12.236a2.306,2.306,0,1,1,0,4.611H92.035A2.306,2.306,0,0,1,90.4,29.823ZM94.653,41.3a2.306,2.306,0,1,1,0-4.611h7a2.306,2.306,0,1,1,0,4.611Zm10.1,9.291a3.655,3.655,0,0,1,2.232-3.363c-.064,2.228-.079,4.466-.049,6.7A3.651,3.651,0,0,1,104.757,50.588Zm12.668,22.524a14.708,14.708,0,0,0,3.557.611c.344.016.69.028,1.035.043a9.589,9.589,0,0,0-.167,9.163,1.463,1.463,0,0,0,1.567.713,21.851,21.851,0,0,0,7.031-2.76V91.167a8.241,8.241,0,0,0-5.439-2.046h-5.765V84.179a1.463,1.463,0,1,0-2.926,0v1.07h-6.4V84.4A12.284,12.284,0,0,1,117.425,73.112Zm6.88,2.588a8.076,8.076,0,0,0,3.927,3.083A19.006,19.006,0,0,1,124,80.5,6.644,6.644,0,0,1,124.305,75.7Zm7.606.831a5.991,5.991,0,0,1-5.267-2.612q2.63.059,5.266.061t5.267-.061A5.988,5.988,0,0,1,131.911,76.531ZM112.426,96.716a2.515,2.515,0,0,1-2.512-2.512V88.175h6.4v2.41a1.463,1.463,0,0,0,1.463,1.463h7.228a5.359,5.359,0,0,1,5.308,4.668Zm26.386-4.668h7.228a1.463,1.463,0,0,0,1.463-1.463v-2.41h6.4v6.03s0,0,0,.005a2.515,2.515,0,0,1-2.511,2.506H133.5A5.36,5.36,0,0,1,138.812,92.048Zm1.309-13.2a7.264,7.264,0,0,1-.3,1.643,19.022,19.022,0,0,1-4.227-1.713,8.07,8.07,0,0,0,3.932-3.092,6.286,6.286,0,0,1,.6,3.162Zm13.647-19.068A11.588,11.588,0,0,1,142.7,70.8c-7.16.338-14.42.338-21.58,0a11.585,11.585,0,0,1-11.066-11.015c-.221-4.29-.261-8.64-.124-12.949,3.011-.453,5.478-2.381,7.191-5.644a18.147,18.147,0,0,0,1.226-2.983,25.3,25.3,0,0,0,11.421,4.452,30.233,30.233,0,0,0,15.049-1.478,28.485,28.485,0,0,0,8.322-5.485,157.123,157.123,0,0,1,.628,24.088Zm5.3-9.2a3.651,3.651,0,0,1-2.184,3.338q.044-3.347-.053-6.7A3.654,3.654,0,0,1,159.064,50.588Z" transform="translate(-69.117 0)"/>
      <path id="Trazado_619037" data-name="Trazado 619037" d="M40.353,98.7,36.2,102.844a1.463,1.463,0,1,0,2.069,2.069l4.149-4.149A1.463,1.463,0,1,0,40.353,98.7Z" transform="translate(-31.634 -79.143)"/>
      <path id="Trazado_619038" data-name="Trazado 619038" d="M40.35,23.461a1.463,1.463,0,0,0,2.069-2.069l-4.148-4.148A1.463,1.463,0,0,0,36.2,19.314Z" transform="translate(-31.633 -13.543)"/>
      <path id="Trazado_619039" data-name="Trazado 619039" d="M23.287,69.66A1.463,1.463,0,0,0,21.824,68.2h-5.81a1.464,1.464,0,1,0-.055,2.926h5.865a1.463,1.463,0,0,0,1.463-1.463Z" transform="translate(-14.496 -54.924)"/>
    </g>
  </g>
</svg>
