<svg id="Grupo_876333" data-name="Grupo 876333" xmlns="http://www.w3.org/2000/svg" xmlns:xlink="http://www.w3.org/1999/xlink" width="89.415" height="92.7" viewBox="0 0 89.415 92.7">
  <defs>
    <clipPath id="clip-path">
      <rect id="Rect치ngulo_325291" data-name="Rect치ngulo 325291" width="89.415" height="92.7" fill="none"/>
    </clipPath>
  </defs>
  <g id="Grupo_876332" data-name="Grupo 876332" transform="translate(0 0)" clip-path="url(#clip-path)">
    <path id="Trazado_614654" data-name="Trazado 614654" d="M23.216,18.282H.94c-.287.31-.595.637-.94,1.005V69.932c.289.184.673.424,1.4.882H57.9l.929-.929v-11.4c1.154-1.984.451-4.138.579-6.219.123-2.121.081-4.244.038-6.364-.056-2.632-.857-3.463-3.523-3.487-7.022-.072-14.044-.013-21.066-.034a5.922,5.922,0,0,1-2.85-.334,4.325,4.325,0,0,1-.406-2.619c-.02-6.046.013-12.094-.022-18.14-.009-1.54-.2-3.007-2.056-3.478-2.121-.067-4.282-.662-6.311.476" transform="translate(0 21.887)" fill="#040506"/>
    <path id="Trazado_614655" data-name="Trazado 614655" d="M63.862,38.622h1.369c.361-.377.168-.848.171-1.27.013-8.306-.049-16.611.038-24.915A6.4,6.4,0,0,0,59.1,6.124c-4.953.108-9.91.029-14.877.029.33-1.768,1.046-3.382,1.091-5.224C44.993.673,44.643.395,44.142,0H30.684c-.175.238-.438.6-.9,1.234-.121,1.434.774,3.018,1.01,4.892-.2.229-.678.013-1.088.016-4.641.016-9.284.047-13.925,0a6.266,6.266,0,0,0-6.127,6.1c.038,7.985.013,15.967.013,23.95v.756c.532.263,1.053.058,1.548.128a1.211,1.211,0,0,0,1.623-.022c.693-.927.539-2.051.541-3.126.02-6.56,0-13.119.016-19.679.009-3.7.684-4.369,4.421-4.372,1.865,0,3.734-.1,5.6.083a1.236,1.236,0,0,1,.732.328c.444,1.106-.319,1.315-1.151,1.38-1.414.11-2.834.009-4.25.058-2.57.092-3.44.853-3.472,3.346-.083,6.623-.045,13.247-.018,19.872a3.624,3.624,0,0,0,.429,1.988,2.092,2.092,0,0,0,1.791.68,2.861,2.861,0,0,0,1.782-.557c.684-6.825.054-13.7.512-20.974q17.771-.027,34.989,0a3.672,3.672,0,0,1,.716,2.859c.02,5.987,0,11.975.016,17.962a6.6,6.6,0,0,0,.382,3.009,1.841,1.841,0,0,0,1.692.785,2.314,2.314,0,0,0,1.676-.482,3.832,3.832,0,0,0,.6-2.706q.027-10.9,0-21.8c-.016-3.238-.765-3.945-4.015-3.995-1.223-.02-2.448.045-3.669-.043-.729-.052-1.443-.173-1.335-1.156.46-.707,1.151-.613,1.768-.626,1.932-.038,3.867-.07,5.8.009,2.249.088,3.158.954,3.265,3.193.123,2.635.036,5.274.043,7.911.007,4.888-.009,9.776.009,14.661a4.522,4.522,0,0,0,.55,2.94,1.212,1.212,0,0,0,1.618.018" transform="translate(12.005 0)" fill="#040506"/>
    <path id="Trazado_614656" data-name="Trazado 614656" d="M56.374,36.672a5.762,5.762,0,0,1,2.886-1.1,4.021,4.021,0,0,0,2.527-1.425V28.319c1.528-.433,3.079-.848,4.616-1.317a5.682,5.682,0,0,0,3.517-4.533,5.053,5.053,0,0,0-.911-2.7,3.888,3.888,0,0,0-2.184-1.649,4.113,4.113,0,0,0-3.535,0c-2.163.691-4.309,1.434-6.528,1.932-2.381-.126-4.47,1.039-6.719,1.5-8.5,2.588-17,5.215-25.557,7.6-3.678,1.021-5.99,3.649-8.306,6.311a1.779,1.779,0,0,0,.828,2.987c3.012.866,6.093,1.964,9.268,1.046,7.857-2.269,15.685-4.645,23.51-7.015,2.125-.723,4.336-1.169,6.439-1.959.543-.128,1.055-.487,1.656-.24.476.525.254,1.057.108,1.517a3.846,3.846,0,0,1-1.964.909c-2.051.662-4.132,1.225-6.189,1.865-.943.26-1.912.561-1.952,1.748a2.26,2.26,0,0,0,1.364,2.471,18.886,18.886,0,0,0,7.125-2.119" transform="translate(19.493 22.049)" fill="#040506"/>
    <path id="Trazado_614657" data-name="Trazado 614657" d="M35.307,38.886a3.189,3.189,0,0,0,1.939-.431,24.374,24.374,0,0,1,4.506-1.187c.058-.009.092-.2.137-.314-.359.027-.388-.215-.388-.478v-3h-1.36a1.06,1.06,0,0,1-.128-.137.338.338,0,0,1-.058-.168q0-13.415,0-26.87c-.7-.682-.862-1.921-2.08-2.163H27.621V7.1h8.225c.316.379.6.723.981,1.176V34.907c-.5.247-1.026.043-1.519.114a3.259,3.259,0,0,0,0,3.864" transform="translate(34.365 5.147)" fill="#0083ac"/>
    <path id="Trazado_614658" data-name="Trazado 614658" d="M16.539,31.929H15.186C14.9,30.25,14.806,14.462,15.047,8.1l.884-.882H24.2V4.137H14.079a4.075,4.075,0,0,0-2.188,2.125V31.8c-.532.26-1.053.056-1.546.126v3.092h6.194a2.4,2.4,0,0,0,0-3.092" transform="translate(12.871 5.147)" fill="#0083ac"/>
    <path id="Trazado_614659" data-name="Trazado 614659" d="M43.249,26.212a3.621,3.621,0,0,0-2.325.429,24.787,24.787,0,0,1-4.506,1.189c-.061.009-.092.2-.137.314a6.547,6.547,0,0,0,.776,2.942c.357.366.828.68.853,1.239a59.219,59.219,0,0,1-.088,9.621c-2.534,1.228-7,.9-8.553-.5a2.836,2.836,0,0,0-3.054.229v6.185h3.1a4.153,4.153,0,0,1,3.034-.952c1.865.022,3.732.058,5.595-.018,2.792-.114,4.264-1.562,4.336-4.347.088-3.4.031-6.8.02-10.207a4.187,4.187,0,0,1,.952-3.032Z" transform="translate(32.617 32.51)" fill="#0083ac"/>
    <path id="Trazado_614660" data-name="Trazado 614660" d="M41.539,27.55H40c-.013,2.473,0,4.953-.007,7.433q0,3.662,0,7.325a5.781,5.781,0,0,1-2.453,2.251H27.728c-.26.534-.058,1.053-.126,1.546v1.364c.375.364.848.166,1.27.171,2.641.02,5.285-.067,7.922.029a6.324,6.324,0,0,0,6.32-6.308c-.105-4.556-.027-9.118-.027-13.683-.534-.263-1.055-.058-1.548-.128" transform="translate(34.328 34.264)" fill="#040506"/>
    <path id="Trazado_614661" data-name="Trazado 614661" d="M42.528,65.63h3.1a4.047,4.047,0,0,1,3.012-.961,5.786,5.786,0,0,0,3.3-.536c.86-1.8.379-3.808.46-5.747.052-1.284-.027-2.565.967-3.579V52.3c-.276-.305-.541-.155-.774-.2A3.559,3.559,0,0,1,51.5,49.135c.617-.2,1.156-.664,1.867-.514.451-1.1,1.259-2.251-.386-3.092-2.5.642-4.96,1.387-7.424,2.141-1.887.577-3.775,1.16-5.669,1.721a101.118,101.118,0,0,0-9.935,3.088c-1.373-.061-2.745.983-4.123.009-1.214.26-2.3-.543-3.514-.4-.673.079-1.219-.7-2.011-.276l-.972-1.252v-.925a1.378,1.378,0,0,1,.168-.247c1.32-1.322,2.608-2.677,3.972-3.95a9.143,9.143,0,0,1,4.477-2.264c1.69-.355,3.312-1.014,4.975-1.506,2.24-.662,4.524-1.2,6.726-1.966,1.919-.671,3.882-1.205,5.812-1.813,1.874-.59,3.777-1.187,5.707-1.649a22.268,22.268,0,0,0,2.195-.761V31.615H52.01a.957.957,0,0,1-.13-.139.323.323,0,0,1-.058-.166c0-8.1,0-16.205,0-24.435H14.862A1.081,1.081,0,0,0,14.723,7a.309.309,0,0,0-.067.164q0,10.61,0,21.228c-.534.263-1.053.058-1.548.128v3.092c.819-.173,1.044.608,1.593.992v23.71H41.525l1,1Z" transform="translate(16.305 8.554)" fill="#dddddb"/>
    <path id="Trazado_614662" data-name="Trazado 614662" d="M24.6,30.3H20.028c-.157,2.729-.018,5.469-.085,8.357-.285.168-.678.4-1.068.628l.2.249H8.484c-.2-.26-.514-.655-.92-1.176V30.39H1.374V50.4c2.886-1.479,6-.938,9.035-.981A12.888,12.888,0,0,0,22.981,40.4a10.432,10.432,0,0,0,.622-3.4c-.007-2.287-.191-4.6,1-6.708" transform="translate(1.71 37.699)" fill="#fdad08"/>
    <path id="Trazado_614663" data-name="Trazado 614663" d="M37.023,30.3H32.58a.851.851,0,0,0-.137.132.329.329,0,0,0-.063.164c0,2.693,0,5.386,0,8.014-.337.334-.608.608-.925.925H20.9c-.2-.26-.514-.655-.92-1.176V30.39H13.794V50.4c2.886-1.479,6-.938,9.035-.981A12.888,12.888,0,0,0,35.4,40.4a10.432,10.432,0,0,0,.622-3.4c-.007-2.287-.191-4.6,1-6.708" transform="translate(17.162 37.699)" fill="#fdad08"/>
    <path id="Trazado_614664" data-name="Trazado 614664" d="M24.6,19.277H20.028c-.157,2.729-.018,5.469-.085,8.357-.285.168-.678.4-1.068.628l.2.249H8.484c-.2-.26-.514-.655-.92-1.176V19.367H1.374V39.378c2.886-1.479,6-.938,9.035-.981A12.888,12.888,0,0,0,22.981,29.38a10.432,10.432,0,0,0,.622-3.4c-.007-2.287-.191-4.6,1-6.708" transform="translate(1.71 23.984)" fill="#fdad08"/>
    <path id="Trazado_614665" data-name="Trazado 614665" d="M24.6,30.311c-1.472,1.124-1.546,1.272-1.548,3.178,0,1.026-.047,2.056.009,3.081a11.917,11.917,0,0,1-1.982,6.69,11.3,11.3,0,0,1-5.047,4.446,15.752,15.752,0,0,1-4.342,1.158c-2.379,0-4.758,0-7.136,0-1.908,0-2.053.074-3.182,1.546v1.364a1.242,1.242,0,0,0,.137.119.33.33,0,0,0,.166.058c8.1,0,16.205,0,24.392,0V30.4c-.453-.218-.972-.016-1.465-.085" transform="translate(1.71 37.688)" fill="#f7970f"/>
    <path id="Trazado_614666" data-name="Trazado 614666" d="M37.023,30.311c-1.472,1.124-1.546,1.272-1.548,3.178,0,1.026-.047,2.056.009,3.081a11.917,11.917,0,0,1-1.982,6.69,11.3,11.3,0,0,1-5.047,4.446,15.752,15.752,0,0,1-4.342,1.158c-2.379,0-4.758,0-7.136,0-1.908,0-2.053.074-3.182,1.546v1.364a1.242,1.242,0,0,0,.137.119.33.33,0,0,0,.166.058c8.1,0,16.205,0,24.392,0V30.4c-.453-.218-.972-.016-1.465-.085" transform="translate(17.162 37.688)" fill="#f7970f"/>
    <path id="Trazado_614667" data-name="Trazado 614667" d="M24.6,19.288c-1.472,1.124-1.546,1.272-1.548,3.178,0,1.026-.047,2.056.009,3.081a11.917,11.917,0,0,1-1.982,6.69,11.3,11.3,0,0,1-5.047,4.446,15.752,15.752,0,0,1-4.342,1.158c-2.379,0-4.758,0-7.136,0-1.908,0-2.053.074-3.182,1.546v1.364a1.241,1.241,0,0,0,.137.119.33.33,0,0,0,.166.058c8.1,0,16.205,0,24.392,0V19.373c-.453-.218-.972-.016-1.465-.085" transform="translate(1.71 23.974)" fill="#f7970f"/>
    <path id="Trazado_614668" data-name="Trazado 614668" d="M11.68,25.357v-6.05H5.542c-.058.918-.013,1.923-.022,2.924-.009,1.019,0,2.04,0,3.126Z" transform="translate(6.857 24.022)" fill="#ffd14b"/>
    <path id="Trazado_614669" data-name="Trazado 614669" d="M17.949,30.33v6.053H24.06a25.2,25.2,0,0,0,.047-2.929c.02-1.019,0-2.04,0-3.124Z" transform="translate(22.332 37.736)" fill="#ffd14b"/>
    <path id="Trazado_614670" data-name="Trazado 614670" d="M11.606,30.315H5.544v6.129c.92.058,1.928.011,2.931.02,1.021.009,2.042,0,3.131,0Z" transform="translate(6.898 37.718)" fill="#ffd14b"/>
    <path id="Trazado_614671" data-name="Trazado 614671" d="M17.951,7.513v3.032h18.5c.1-.922.016-1.919.054-2.98H31.333L30.3,6.55c-.1-1.8.759-3.393,1.01-5.159H23.128c.128,1.719,1.131,3.337.967,5.166q-.475.478-.954.956H17.951" transform="translate(22.334 1.731)" fill="#4fb3b1"/>
    <path id="Trazado_614672" data-name="Trazado 614672" d="M48.317,23.056V20.141a20.025,20.025,0,0,0-3.824.925c-2.078.592-4.161,1.194-6.212,1.842-1.93.613-3.885,1.2-5.817,1.813-2.222.707-4.484,1.333-6.721,2.013-.671.2-1.479.139-2.06.826.254.826.521,1.7.821,2.673,2.814-.983,5.678-1.833,8.537-2.641,2.888-.815,5.754-1.735,8.674-2.46,2.2-.548,4.34-1.353,6.6-2.076" transform="translate(29.466 25.059)" fill="#fcac08"/>
    <path id="Trazado_614673" data-name="Trazado 614673" d="M18.1,28.306a10.425,10.425,0,0,1,2.917.4c.671.305,1.385-.305,2.071-.5,1.667-.465,3.312-1.008,5.063-1.548a4.63,4.63,0,0,0-.77-2.875L20.7,25.71c-.821.821-1.67,1.67-2.6,2.6" transform="translate(22.52 29.589)" fill="#faab08"/>
    <path id="Trazado_614674" data-name="Trazado 614674" d="M30.873,25.2c.357-.027.386.211.388.474v2.619a15.621,15.621,0,0,1,3.678-1.16c.88-.117,1.6-.75,2.516-.772a2.462,2.462,0,0,0,0-3.092,3.186,3.186,0,0,0-1.939.431,24.552,24.552,0,0,1-4.506,1.187c-.061.007-.092.2-.137.314" transform="translate(38.412 28.884)" fill="#0082ab"/>
    <path id="Trazado_614675" data-name="Trazado 614675" d="M36.078,23.318a15.043,15.043,0,0,0,3.337-.931c.857-.206,1.854-.411,1.9-1.717A2.455,2.455,0,0,0,39.7,19.144a24.3,24.3,0,0,0-3.624,1.189Z" transform="translate(44.887 23.819)" fill="#f8a908"/>
    <path id="Trazado_614676" data-name="Trazado 614676" d="M33.806,23.7V26.8c.438-.2.83-.532,1.38-.393.462.114.637-.325.891-.527V22.864a6.049,6.049,0,0,1-2.136.525c-.038,0-.09.2-.135.314" transform="translate(42.061 28.447)" fill="#f1f3f4"/>
    <path id="Trazado_614677" data-name="Trazado 614677" d="M35.341,28.241h-1.5c-.11,3.03,0,6.068-.065,9.224H27.749a4.274,4.274,0,0,0-.15,1.6V40.6c2.742.018,5.489,0,8.36.011.218-.285.489-.64.9-1.165v-11.1c-.5-.245-1.019-.04-1.513-.11" transform="translate(34.331 35.119)" fill="#040506"/>
    <path id="Trazado_614678" data-name="Trazado 614678" d="M15.2,22.807c.251.24.575.552.922.886H23.5c.233-.281.521-.622.9-1.077v-7.3c-.238-.171-.6-.431-1.18-.846H16.063l-.86.86Z" transform="translate(18.915 18.008)" fill="#040506"/>
    <path id="Trazado_614679" data-name="Trazado 614679" d="M24.447,16.554V9.194L23.428,8.26H16.076c-.215.269-.491.617-.886,1.115V16.6c.267.224.651.545,1.084.911h7.213c.323-.325.642-.642.961-.961" transform="translate(18.899 10.277)" fill="#040506"/>
    <path id="Trazado_614680" data-name="Trazado 614680" d="M20.71,17.238V20.2H39.215c.1-.913.013-1.908.052-2.965Z" transform="translate(25.767 21.447)" fill="#040506"/>
    <path id="Trazado_614681" data-name="Trazado 614681" d="M39.263,14V11.038H20.782c-.177.911.007,1.91-.1,2.965Z" transform="translate(25.731 13.733)" fill="#040506"/>
    <path id="Trazado_614682" data-name="Trazado 614682" d="M35.844,17.45V14.481H23.6c-.307.913.031,1.919-.177,2.969Z" transform="translate(29.147 18.017)" fill="#040506"/>
    <path id="Trazado_614683" data-name="Trazado 614683" d="M35.814,11.244V8.282H23.5c-.105.911-.013,1.905-.054,2.962Z" transform="translate(29.177 10.305)" fill="#040506"/>
    <path id="Trazado_614684" data-name="Trazado 614684" d="M23.766,17.445V14.483H20.74c-.1.913-.011,1.905-.049,2.962Z" transform="translate(25.743 18.02)" fill="#040506"/>
    <path id="Trazado_614685" data-name="Trazado 614685" d="M23.777,11.247V8.282h-3c-.166.913.007,1.91-.094,2.965Z" transform="translate(25.732 10.305)" fill="#040506"/>
    <path id="Trazado_614686" data-name="Trazado 614686" d="M12.734,40.184V37.219h-3c-.162.913,0,1.91-.092,2.965Z" transform="translate(11.996 46.307)" fill="#040506"/>
    <path id="Trazado_614687" data-name="Trazado 614687" d="M25.155,40.184V37.219h-3c-.162.913,0,1.91-.092,2.965Z" transform="translate(27.45 46.307)" fill="#040506"/>
    <path id="Trazado_614688" data-name="Trazado 614688" d="M12.652,26.181H9.683V29.2c.916.1,1.912.011,2.969.049Z" transform="translate(12.047 32.574)" fill="#040506"/>
    <path id="Trazado_614689" data-name="Trazado 614689" d="M16.555,15.9v2.985c.976.108,1.97.018,3.03.058V15.9a15.174,15.174,0,0,0-3.03,0" transform="translate(20.597 19.69)" fill="#dddddb"/>
    <rect id="Rect치ngulo_325290" data-name="Rect치ngulo 325290" width="2.967" height="2.967" transform="translate(37.249 21.677)" fill="#dddddb"/>
  </g>
</svg>
