<svg xmlns="http://www.w3.org/2000/svg" xmlns:xlink="http://www.w3.org/1999/xlink" width="85" height="85" viewBox="0 0 85 85">
  <defs>
    <clipPath id="clip-path">
      <rect id="Rectángulo_326255" data-name="Rectángulo 326255" width="46.224" height="51.386" fill="none"/>
    </clipPath>
  </defs>
  <g id="Grupo_878176" data-name="Grupo 878176" transform="translate(-810 -5493)">
    <circle id="Elipse_5185" data-name="Elipse 5185" cx="42.5" cy="42.5" r="42.5" transform="translate(810 5493)" fill="#ced371"/>
    <g id="Grupo_877430" data-name="Grupo 877430" transform="translate(829 5510)">
      <g id="Grupo_877429" data-name="Grupo 877429" clip-path="url(#clip-path)">
        <path id="Trazado_617224" data-name="Trazado 617224" d="M10.693,20.476c-3.437-.053-5.583,2.486-4.242,6.273-2.169.21-2.712.619-3.6,2.02,0,1.659.09,3.36-.033,5.045a2.711,2.711,0,0,0,1.889,2.5c.283.075.482.331.89.281-.134.839.189,1.682-.241,2.495-.078.147-.011.371-.011.56,0,1.546.036,3.093-.019,4.637-.02.568.307,1.041.256,1.6A5.553,5.553,0,0,0,5.6,47.578a30.092,30.092,0,0,1,.432,3.211c.45.414.058,1.046.422,1.533.181.242.031.73.031,1.072A9.454,9.454,0,0,0,4.9,59.679a2.66,2.66,0,0,0,1.614,1.558c.5,0,1.171.016,1.847,0a10.354,10.354,0,0,0,4-1c.254-.115.509-.229.761-.35.81-.39,1.591.065,2.386.1.1,0,.232.149.392.132,1.077-.112,2.111.39,3.192.225a18.3,18.3,0,0,0,4.551.218c1.548.036,3.1-.025,4.645.024a13.539,13.539,0,0,0,1.946-.242c.612-.067,1.252.166,1.84-.214.133-.086.37-.009.558-.013a2.623,2.623,0,0,0,1.277-.2c.364-.193.822.056,1.279-.2.348-.2.857.182,1.283.356a6.749,6.749,0,0,0,2.075.742c.127.009.176.262.359.215.532-.136.974.254,1.493.236.827-.028,1.656-.008,2.347-.008a2.658,2.658,0,0,0,1.585-1.594,9.441,9.441,0,0,0-1.586-6.26c.095-.369-.156-.824.15-1.236.268-.362-.007-.817.264-1.256.229-.371-.046-1,.272-1.462-.147-1.041.327-2.03.237-3.075-.089-1.029.314-2.026.234-3.074s-.037-2.11-.013-3.166c.026-1.147-.435-2.257-.188-3.438.282-.09.589-.249.915-.368a2.751,2.751,0,0,0,1.792-2.478c-.114-1.687-.03-3.389-.03-4.991a3.475,3.475,0,0,0-3.142-2.05,7.223,7.223,0,0,0-2.471-5.452,6.666,6.666,0,0,0-5.722-1.694c0-.457.021-.861,0-1.262a5.132,5.132,0,0,0-1.355-3.16,3.651,3.651,0,0,0-2.042-1.036,3.96,3.96,0,0,0-2.247.279,7.835,7.835,0,0,0-3.865,3.9c-.062.118-.008.3-.008.487-.848.215-1.73-.037-2.6.257-.919.31-1.365,1.087-2.142,1.656-.278.134-.493-.282-.835-.276s-.449-.227-.56-.544a5.534,5.534,0,0,0-2.449-2.927,1.775,1.775,0,0,0-1.207-.365.541.541,0,0,1-.526-.211c-.312-.086-.383.224-.646.224a3.283,3.283,0,0,0-2.854,1.86A3.284,3.284,0,0,0,11,20.156c0,.108-.2.214-.305.32" transform="translate(-1.965 -9.858)" fill="#160c10"/>
        <path id="Trazado_617225" data-name="Trazado 617225" d="M7.265,2.755c.584.7,1.431.575,2.015,1.11a4.133,4.133,0,0,0,.851,1.81,4.9,4.9,0,0,0,.512-.975,2.132,2.132,0,0,1,1.821-1.516c.253-.061.356-.228.515-.357a1.027,1.027,0,0,0-.785-.526C10.988,2.216,10.744,1.336,10.5.438,10.443.231,10.26.166,10.165,0a2.7,2.7,0,0,0-.775,1.351c-.143.376-.191.607-.656.711a7.262,7.262,0,0,0-1.47.692" transform="translate(-5.07 -0.001)" fill="#efb77c"/>
        <path id="Trazado_617226" data-name="Trazado 617226" d="M123.75,11.455a1.866,1.866,0,0,0,.753,1.69,2.461,2.461,0,0,0,1.675-.254A1.7,1.7,0,0,0,126,10.773c-.171-.282-.7.178-.769-.323-.7.1-1.035.613-1.48,1.005" transform="translate(-86.351 -7.293)" fill="#e8a464"/>
        <path id="Trazado_617227" data-name="Trazado 617227" d="M143.528,21.139a2.361,2.361,0,0,0,.622-1.061,2.875,2.875,0,0,0,1.09-.636c-1.162-.557-1.208-.6-1.482-1.476a.463.463,0,0,0-.538.435c-.022.526-.253.708-.758.712-.185,0-.368.181-.578.294a.671.671,0,0,0,.411.376c.822.4.818.405,1.234,1.356" transform="translate(-99.015 -12.536)" fill="#efb87e"/>
        <path id="Trazado_617228" data-name="Trazado 617228" d="M0,25.421v.837c.255.154.519.05.783.083.19-.261.092-.549.08-.831-.248-.15-.512-.046-.862-.09" transform="translate(0 -17.74)" fill="#e9a86a"/>
        <path id="Trazado_617229" data-name="Trazado 617229" d="M14.859,94.294c.107.353-.3.566-.238.926a6.546,6.546,0,0,1,.011,1.016c0,1.131.051,2.266-.021,3.392-.039.61.284,1.127.253,1.718a6.306,6.306,0,0,0,.015,1.691c.241,1.062.231,2.154.453,3.206a11.252,11.252,0,0,1,.434,2.645,2.6,2.6,0,0,1-.483,1.384,9.676,9.676,0,0,0-.9,2.12,10.824,10.824,0,0,0-.218,2.83l.347.346c.518,0,1.047-.017,1.574,0a11.567,11.567,0,0,0,3.994-1.029A3.011,3.011,0,0,1,22,114c1.065.221,2.142.318,3.207.487.773.123,1.554.019,2.288.2a20.256,20.256,0,0,0,4.33.2c1.472.036,2.946-.02,4.418.021.634.018,1.186-.322,1.835-.262a2.428,2.428,0,0,0,1.722-.2c.077-.053.224.009.334-.01.46-.078.918.12,1.4-.192.356-.231.886-.011,1.376-.215.55-.229,1.168.107,1.741.362.471.21.895.64,1.491.5.478-.233.4-.667.4-1.08a7.336,7.336,0,0,0-.946-3.683,3.758,3.758,0,0,1-.364-2.823,39.263,39.263,0,0,0,.819-9.319c-.072-2.6-1.483-4.04-4.109-4.045q-12.735-.025-25.469,0a2.227,2.227,0,0,0-1.616.356" transform="translate(-9.89 -65.551)" fill="#eeb67b"/>
        <path id="Trazado_617230" data-name="Trazado 617230" d="M8.6,61.134h-.55c-.345.15-.305.569-.574.781v4.922c.163.247.207.587.56.843.123.084.35-.01.563.018a1.267,1.267,0,0,0,.77.108q16.586,0,33.172,0a1.881,1.881,0,0,0,.67-.06c.935-1.008,1-5.394.1-6.615a1.982,1.982,0,0,0-.993-.105q-16.36-.005-32.72,0a1.787,1.787,0,0,0-1,.106" transform="translate(-5.214 -42.576)" fill="#eeb67b"/>
        <path id="Trazado_617231" data-name="Trazado 617231" d="M16.445,90.477c9.1,0,18.2.014,27.3-.013a3.256,3.256,0,0,1,3.312,2.113,1.873,1.873,0,0,0,.224.3c0,1.646-.027,3.34.016,5.032.014.528-.318.95-.269,1.492.04.445.228.958-.187,1.387-.094.1-.017.364-.013.552a20.226,20.226,0,0,1-.37,2.1c-.053.676-.615,1.345-.1,2.058.068.093.043.26.138.394a5.994,5.994,0,0,1,1.227,3.9,1.1,1.1,0,0,0,.223.785c.073.25-.266.281-.217.5.066.486.678,0,.774.433a22.59,22.59,0,0,0,3.186.272c.353-.018.4-.527.767-.23a7.749,7.749,0,0,0-1.554-5.8c0-.55-.187-1.215.049-1.652.278-.515-.086-1.134.4-1.536-.162-.748.352-1.432.219-2.168-.1-.572.3-1.042.245-1.606a4.172,4.172,0,0,1,.021-1.685,8.939,8.939,0,0,0,.185-2.747,10.306,10.306,0,0,0-.035-2.818c-.247-1.028-.058-2.05-.231-3.078H16.445Z" transform="translate(-11.476 -61.733)" fill="#e8a462"/>
        <path id="Trazado_617232" data-name="Trazado 617232" d="M11.182,60.747H45.728c.442.389.366.913.366,1.416,0,1.282-.021,2.564.012,3.844a2.988,2.988,0,0,1-.317,1.3H11.182a.174.174,0,0,0,.18.222c.3.012.6,0,.906,0q18.071,0,36.142.015c.672,0,1.274-.264,1.922-.286a1.808,1.808,0,0,0,.531-1.484c-.024-1.168-.006-2.338-.008-3.507a1.889,1.889,0,0,0-.439-1.4,4.553,4.553,0,0,0-2.12-.359q-18.071.013-36.142.021c-.315,0-.746-.283-.973.212" transform="translate(-7.8 -42.189)" fill="#e7a362"/>
        <path id="Trazado_617233" data-name="Trazado 617233" d="M66.092,34.453c-.11.227-.363.21-.547.311a3.811,3.811,0,0,0-1.631,2.243,10.715,10.715,0,0,0-.206,2.619c-.025.478.406.851.192,1.368h6.068c.146-.149.071-.436.335-.548a10.592,10.592,0,0,0-.163-2.41,11.638,11.638,0,0,0-.912-2.113c-.46-.75-1.233-.934-1.781-1.47Z" transform="translate(-44.458 -24.043)" fill="#944a43"/>
        <path id="Trazado_617234" data-name="Trazado 617234" d="M94.594,40.914a6.292,6.292,0,0,0,1.213-2.369,3.6,3.6,0,0,0-.034-2.3,2.185,2.185,0,0,0-1.7-1.6c-.273-.044-.383-.378-.694-.26-.365.139-.8.138-1.126.278a5.523,5.523,0,0,0-3.07,2.682,7.617,7.617,0,0,1,.108,3.575Z" transform="translate(-62.241 -23.974)" fill="#813b38"/>
        <path id="Trazado_617235" data-name="Trazado 617235" d="M18.665,44.641h4.587c.487-.38.386-1.026.543-1.537.173-.559.484-1.009.7-1.535a5.671,5.671,0,0,0-2.178-1.494,4.38,4.38,0,0,0-1.986-.4,3.7,3.7,0,0,0-1.616.733,2.146,2.146,0,0,0-.734,1.6,3.784,3.784,0,0,0,.686,2.632" transform="translate(-12.526 -27.68)" fill="#944a43"/>
        <path id="Trazado_617236" data-name="Trazado 617236" d="M81.778,23.091a9.157,9.157,0,0,1,1.536,1.757,11.389,11.389,0,0,1,2.493-1.9,8.479,8.479,0,0,1,3.018-.719,6.24,6.24,0,0,1-.287-1.076,2.51,2.51,0,0,0-3.249-2.114,4.159,4.159,0,0,0-1.973,1.2,3.809,3.809,0,0,0-1.323,2.246c-.02.214-.276.258-.215.606" transform="translate(-57.063 -13.23)" fill="#944a43"/>
        <path id="Trazado_617237" data-name="Trazado 617237" d="M113.2,36.708c.166,1.084.712,2.05.416,3.108a6.7,6.7,0,0,1-1.044,2.687,1.06,1.06,0,0,0,.662.077c1.72.006,3.441,0,5.182,0a4.556,4.556,0,0,0-.519-2.633,6.227,6.227,0,0,0-2.273-2.515,3.884,3.884,0,0,0-2.423-.728" transform="translate(-78.557 -25.61)" fill="#703334"/>
        <path id="Trazado_617238" data-name="Trazado 617238" d="M46.5,44.742a12.237,12.237,0,0,1,.04-4.892,5.7,5.7,0,0,0-3.869,1.422,5.921,5.921,0,0,0-1.963,3.47Z" transform="translate(-28.411 -27.808)" fill="#803b38"/>
        <path id="Trazado_617239" data-name="Trazado 617239" d="M36.666,31.31A8.861,8.861,0,0,1,39.8,29.576c-.739-1.772-1.774-3.061-4-2.611a3.952,3.952,0,0,0-2.08,2.764c.281.436.88.528,1.359.783s.69.878,1.58.8" transform="translate(-23.537 -18.754)" fill="#703333"/>
        <path id="Trazado_617240" data-name="Trazado 617240" d="M62.688,102.7c-.373-.125-.778.093-1.169-.21a.9.9,0,0,0-.951.044.835.835,0,0,1-.627.136,4.357,4.357,0,0,0-1.63.444,10.059,10.059,0,0,0-4.145,3.092,8.052,8.052,0,0,0-1.6,3.179,6.794,6.794,0,0,0,.02,3.877,4.309,4.309,0,0,0,4.047,2.992c.452.019.906,0,1.359,0a8.943,8.943,0,0,0,2.35-.612,8.786,8.786,0,0,0,3.833-3,7.037,7.037,0,0,0,1.777-4.8,6.027,6.027,0,0,0-.439-2.65,4.784,4.784,0,0,0-1.991-2.068c-.276-.15-.618-.175-.84-.432" transform="translate(-36.497 -71.447)" fill="#160c10"/>
        <path id="Trazado_617241" data-name="Trazado 617241" d="M20.173,101.656a21.29,21.29,0,0,0,.379,5.532c.432.369.491.373,1.186-.049.191-.928-.307-1.829-.218-2.787s.02-1.949.02-2.921l-.68-.346c-.307.071-.42.392-.686.57" transform="translate(-14.077 -70.544)" fill="#ffd4ab"/>
        <path id="Trazado_617242" data-name="Trazado 617242" d="M22.283,126.484l-.6.6a3.294,3.294,0,0,0,.46,1.692h.779l.374-.728c-.108-.4-.374-.774-.241-1.2l-.775-.363" transform="translate(-15.127 -88.268)" fill="#ffd3a9"/>
        <path id="Trazado_617243" data-name="Trazado 617243" d="M71.816,111.335c-.732.65-1.552,1.03-2.221,1.658a6.981,6.981,0,0,0-1.9,3.293,7.091,7.091,0,0,1-1.919,3.279,10.218,10.218,0,0,1-1.885,1.252.571.571,0,0,0,.64.338c.376-.021.755-.012,1.132,0a6.2,6.2,0,0,0,3.657-1.285,8.382,8.382,0,0,0,2.4-2.607,5.544,5.544,0,0,0,.964-2.881c.005-.415.011-.829,0-1.244a2.86,2.86,0,0,0-.859-1.8" transform="translate(-44.584 -77.696)" fill="#944a43"/>
        <path id="Trazado_617244" data-name="Trazado 617244" d="M57.321,117.343a4.241,4.241,0,0,0,1.931-.87,5.739,5.739,0,0,0,1.932-2.572c.149-.359.141-.747.288-1.122a10.423,10.423,0,0,1,1.127-2.136,7.285,7.285,0,0,1,2.547-2.291.355.355,0,0,0,.191-.423c-.054-.218-.281-.11-.443-.109a7.747,7.747,0,0,0-3.221.408,13.778,13.778,0,0,0-1.282.721,7.883,7.883,0,0,0-3.574,4.846,4.33,4.33,0,0,0,.5,3.548" transform="translate(-39.525 -75.224)" fill="#944a43"/>
      </g>
    </g>
  </g>
</svg>
