<svg xmlns="http://www.w3.org/2000/svg" xmlns:xlink="http://www.w3.org/1999/xlink" width="107" height="107" viewBox="0 0 107 107">
  <defs>
    <filter id="Elipse_5187" x="0" y="0" width="107" height="107" filterUnits="userSpaceOnUse">
      <feOffset dy="3" input="SourceAlpha"/>
      <feGaussianBlur stdDeviation="3" result="blur"/>
      <feFlood flood-opacity="0.161"/>
      <feComposite operator="in" in2="blur"/>
      <feComposite in="SourceGraphic"/>
    </filter>
    <clipPath id="clip-path">
      <rect id="Rect치ngulo_326409" data-name="Rect치ngulo 326409" width="51.689" height="51.562" fill="none"/>
    </clipPath>
  </defs>
  <g id="Grupo_878175" data-name="Grupo 878175" transform="translate(-303 -7591)">
    <g transform="matrix(1, 0, 0, 1, 303, 7591)" filter="url(#Elipse_5187)">
      <circle id="Elipse_5187-2" data-name="Elipse 5187" cx="44.5" cy="44.5" r="44.5" transform="translate(9 6)" fill="#a3314f"/>
    </g>
    <g id="Grupo_877646" data-name="Grupo 877646" transform="translate(331 7616)">
      <g id="Grupo_877645" data-name="Grupo 877645" clip-path="url(#clip-path)">
        <path id="Trazado_618142" data-name="Trazado 618142" d="M51.689,31.627V30.105c-.234-.181-.511-.083-.765-.085-1.245-.013-2.491-.022-3.736,0a4.231,4.231,0,0,1-2.793-.815,12.207,12.207,0,0,1-1.817-1.326V0H10.9V4.692l-.319.318H0V51.563H31.67v-5H42.557V39.58c.733-.17,1.452-.282,2.134-.508s1.4-.373,2.088-.543a6.693,6.693,0,0,1,2.127-.267c.9.072,1.808.017,2.783.017V36.667a9.552,9.552,0,0,0-4.465-.181,28.963,28.963,0,0,0-4.72,1.062,10.512,10.512,0,0,1-6.445-.235,15.376,15.376,0,0,0-6.037-.957c-1.544.072-3.094.017-4.642.012a2.4,2.4,0,0,1-1.234-.175,1.506,1.506,0,0,1,1.115-1.551,4.851,4.851,0,0,1,1.982-.3q3.734,0,7.468,0c1.673,0,2.765-.682,3.169-1.951.386-1.213-.1-2.289-1.489-3.3a.8.8,0,0,1-.268-.294,2.065,2.065,0,0,1,.55-1.76,2.851,2.851,0,0,1,1.932.687c1.608,1.042,3.2,2.112,4.79,3.179a5.755,5.755,0,0,0,3.418,1.025c1.21-.026,2.422,0,3.633-.008a1.7,1.7,0,0,0,1.243-.294" transform="translate(0 -0.001)" fill="#040506"/>
        <path id="Trazado_618143" data-name="Trazado 618143" d="M115.773,103.782c-1.716,0-3.433-.027-5.148.01a5.013,5.013,0,0,1-2.946-.936c-1.69-1.126-3.348-2.3-5.053-3.4a3.422,3.422,0,0,0-2.309-.7l-.7,2.525a2.562,2.562,0,0,1,2.017,3.573,1.44,1.44,0,0,1-.114.154c-1.456,1.515-1.255,1.182-2.934,1.193q-3.635.027-7.269,0a6.763,6.763,0,0,0-1.936.207,1.85,1.85,0,0,0-.966.591,2.342,2.342,0,0,0-.71,1.829c2.7,0,5.355.01,8.009-.005a10.337,10.337,0,0,1,2.916.515c.9.258,1.778.61,2.679.831a5.7,5.7,0,0,0,1.811.259c.613-.054,1.245.214,1.851-.162a1.424,1.424,0,0,1,.792-.021c.279.029.462-.179.72-.23,1.2-.237,2.393-.547,3.585-.838.087-.021.174-.154.239-.139.607.138,1.141-.233,1.736-.219,1.245.029,2.49.009,3.735.009Z" transform="translate(-64.084 -72.156)" fill="#efc5a5"/>
        <path id="Trazado_618144" data-name="Trazado 618144" d="M16.865,20.828v.705a.467.467,0,0,1-.072.07.177.177,0,0,1-.088.03l-10.606,0c-.028,0-.056.025-.114.053V64.707l.244.244h27.94l.256-.255V58.357h-.7c-.424.132-.134.685-.563.918-.165-.024-.361-.206-.615-.149-.274.062-.446-.214-.71-.266V57.822a3.544,3.544,0,0,1-1.393-2,3.991,3.991,0,0,1,.453-2.533c-.851,0-1.616-.037-2.376.01a2.1,2.1,0,0,1-2.184-1.056c-.031-.132.184-.479-.265-.692-.552.406-1.136-.012-1.69-.181a2.665,2.665,0,0,1-.616-4.253c.388-.4.791-.792,1.251-1.251H22.028c-.2-.3-.091-.61-.109-.9s0-.595,0-.927h4.922l1.631-1.628c-1.15-.025-2.209-.01-3.267-.012-1.073,0-2.146,0-3.253,0V40.835h8.258a3,3,0,0,1,2.043-.854c.7-.005,1.408,0,2.152,0V21.64H18.551c-.141-.283-.033-.554-.07-.812a1.258,1.258,0,0,0-1.616,0" transform="translate(-4.373 -15.007)" fill="#e0e4e9"/>
        <path id="Trazado_618145" data-name="Trazado 618145" d="M46.407,10.265h1.616v-.7c.866-.146,14.492-.2,17.578-.065v13.44l.126.015c.227-.823.478-1.641.677-2.47.315-1.311.759-2.586,1.026-3.911a9.359,9.359,0,0,1,.615-2.059,3.278,3.278,0,0,1,1.672-1.584,3.369,3.369,0,0,1,3.343.458,6.153,6.153,0,0,1,1.027,1.435,8.02,8.02,0,0,0,.011,1.157,2.593,2.593,0,0,1-.246,1.415c-.265.588-.25,1.223-.5,1.808a12.406,12.406,0,0,0-.475,1.818c-.223.847-.473,1.687-.683,2.537-.234.943-.5,1.882-.768,2.811a16.756,16.756,0,0,1-.763,2.6,1.2,1.2,0,0,0-.006.43c1.638-.046,2.743,1.017,4.011,1.821V6.081H46.407Z" transform="translate(-33.916 -4.444)" fill="#bfc7d0"/>
        <path id="Trazado_618146" data-name="Trazado 618146" d="M117.832,146.623v2.7h9.021v-5.071c-2.74.393-5.227-.606-7.762-1.388a11.789,11.789,0,0,1-1.259,3.76" transform="translate(-86.116 -104.409)" fill="#bfc7d0"/>
        <path id="Trazado_618147" data-name="Trazado 618147" d="M110.735,85.308h3.078l3.266-12.04-2.719-.917a7.186,7.186,0,0,0-.718,2.2c-.2.919-.54,1.8-.738,2.715s-.464,1.825-.721,2.724c-.292,1.02-.54,2.051-.841,3.068-.212.716-.389,1.441-.606,2.251" transform="translate(-80.929 -52.877)" fill="#ffcd58"/>
        <path id="Trazado_618148" data-name="Trazado 618148" d="M74.792,106.108c.193.286.228.595.523.807h.765a2.445,2.445,0,0,0,1.057-.756c1.212-1.213,2.432-2.416,3.638-3.635A3.352,3.352,0,0,1,83.5,101.3a12.851,12.851,0,0,0,.761-2.62,8.337,8.337,0,0,0-1.712.027,2.783,2.783,0,0,0-1.383.8q-2.838,2.866-5.715,5.694c-.291.285-.413.64-.659.908" transform="translate(-54.66 -72.095)" fill="#eec4a4"/>
        <path id="Trazado_618149" data-name="Trazado 618149" d="M131.726,42.741c.263-.93.508-1.864.8-2.785.1-.328.123-.666.248-1,.2-.532-.057-.966-.678-1.607-.331,0-.666-.006-1,0a1.245,1.245,0,0,0-1.32,1.1c-.173,1.052-.576,2.042-.818,3.106a.661.661,0,0,0,.522.448c.748.195,1.473.476,2.251.737" transform="translate(-94.243 -27.295)" fill="#ffe494"/>
        <path id="Trazado_618150" data-name="Trazado 618150" d="M103.444,144.816l.717.7h1.4l.655-.654.652-2.54h-3a4.433,4.433,0,0,0-.425,2.49" transform="translate(-75.594 -104.017)" fill="#ffcc58"/>
        <path id="Trazado_618151" data-name="Trazado 618151" d="M125.157,61.328a17.555,17.555,0,0,0,3.07,1.148c-.128-.707.339-1.209.151-1.832l-2.777-.916a2.743,2.743,0,0,1-.444,1.6" transform="translate(-91.469 -43.651)" fill="#dbdfe4"/>
        <path id="Trazado_618152" data-name="Trazado 618152" d="M98.024,116.074h1.583a6.383,6.383,0,0,0,.551-1.578,5.545,5.545,0,0,0-2.134,1.578" transform="translate(-71.639 -83.677)" fill="#d0d3d8"/>
        <path id="Trazado_618153" data-name="Trazado 618153" d="M130.125,116c-.12-.288.214-.357.2-.546-.184-.251-.192-.576-.5-.742-.6-.02-.7.005-.708.524-.006.34-.375.563-.213.927.417.317.766-.034,1.226-.163" transform="translate(-94.174 -83.835)" fill="#b7bdc6"/>
        <path id="Trazado_618154" data-name="Trazado 618154" d="M12.191,30.74l-.253.252V38.9c.149.093.2.285.41.278.269-.01.538,0,.807,0H33.64a83.219,83.219,0,0,0,.069-8.434Z" transform="translate(-8.725 -22.466)" fill="#060707"/>
        <path id="Trazado_618155" data-name="Trazado 618155" d="M18.8,133.477q0-.352,0-.705l-.3-.3c-1.93,0-3.879,0-5.828,0-.273,0-.541-.022-.718.308v9.738H22.013v-4.946c-.259-.127-.531-.02-.789-.057a.641.641,0,0,0-.859.017c-.563.878-.012,1.975-.512,3.007a49.681,49.681,0,0,1-5.679.029,39.71,39.71,0,0,1-.029-5.761c1.6-.478,3.2.123,4.592-.407a.671.671,0,0,0,.062-.916" transform="translate(-8.733 -96.811)" fill="#060607"/>
        <path id="Trazado_618156" data-name="Trazado 618156" d="M18.8,80.918q0-.252,0-.5l-.282-.279H12.212l-.258.258c0,3.158,0,6.337,0,9.516l.248.248h9.763c-.015.013.015-.005.034-.031a.157.157,0,0,0,.036-.085q0-2.41,0-4.823c-.279-.136-.55-.03-.808-.066a.65.65,0,0,0-.859.01c-.549.883-.02,1.982-.524,3.013a44.962,44.962,0,0,1-5.678.016,46.713,46.713,0,0,1-.049-5.6,2.144,2.144,0,0,1,1.552-.34,19.58,19.58,0,0,0,2.418-.065c.777-.126.934-.441.714-1.266" transform="translate(-8.736 -58.565)" fill="#070607"/>
        <path id="Trazado_618157" data-name="Trazado 618157" d="M23.754,83.044v.707l-.321.317h-4.7v6.638c1.118,0,2.252.034,3.383-.01a10.9,10.9,0,0,0,3.255-.168V87.346c.283-.138.554-.032.812-.068V85.262c-.536-.106-.763.337-1.059.621-1.011.967-1.97,1.988-3,2.95a8.673,8.673,0,0,1-1.856-1.7.654.654,0,0,1,.559-.711c.423.047.619.525,1.054.547a1,1,0,0,0,.781-.386q1.406-1.368,2.776-2.772c.2-.206.471-.408.339-.771Z" transform="translate(-13.688 -60.691)" fill="#ea685c"/>
        <path id="Trazado_618158" data-name="Trazado 618158" d="M23.786,136.222v.79c-1.656.039-3.317,0-5.013.022v6.621h6.619c.023-.524.007-1.082.01-1.638s0-1.129,0-1.7c.28-.134.551-.03.808-.066v-2.016c-.535-.107-.761.336-1.058.619-1.036.987-2.01,2.041-3.068,3.012a5.37,5.37,0,0,1-1.8-1.619.791.791,0,0,1,.631-.721c.418-.008.629.42,1.023.423a1.338,1.338,0,0,0,.919-.545c.765-.75,1.529-1.5,2.272-2.273.24-.249.609-.459.479-.913Z" transform="translate(-13.72 -99.556)" fill="#ea685c"/>
        <path id="Trazado_618159" data-name="Trazado 618159" d="M28.45,125.257A29.65,29.65,0,0,1,26.1,127.7c-.389.412-.8.8-1.231,1.233a6.832,6.832,0,0,1-1.01-.886c-.5.242-.8.745-1.188,1.059l2.2,2.2c.19-.009.292-.254.449-.409,1.1-1.084,2.187-2.18,3.286-3.264.135-.133.222-.343.454-.359a4.459,4.459,0,0,1,.926-1.018c1.243-1.256,2.5-2.5,3.813-3.811-.4-.435-.808-.814-1.207-1.225q-1.842,1.844-3.686,3.681c-.134.133-.221.342-.452.357" transform="translate(-16.565 -88.591)" fill="#060606"/>
        <path id="Trazado_618160" data-name="Trazado 618160" d="M28.621,73.023a20.58,20.58,0,0,1-1.993,2.083c-.575.6-1.176,1.179-1.823,1.825l-1.147-1.073L22.624,76.89l2.324,2.319c1.141-1.138,2.343-2.343,3.554-3.54.159-.157.271-.382.524-.428a4.47,4.47,0,0,1,.928-1.019c1.243-1.257,2.5-2.5,3.689-3.688l-1.22-1.2c-1.021,1.019-2.18,2.18-3.347,3.333-.135.133-.221.342-.453.358" transform="translate(-16.534 -50.67)" fill="#060606"/>
        <path id="Trazado_618161" data-name="Trazado 618161" d="M75.855,84.913v-1.75H65.183c-.043.547-.008,1.133-.022,1.75Z" transform="translate(-47.622 -60.778)" fill="#0b0c0c"/>
        <path id="Trazado_618162" data-name="Trazado 618162" d="M67.646,171.6v-1.545h-9.24c-.094.474.005,1-.054,1.545Z" transform="translate(-42.646 -124.28)" fill="#060607"/>
        <rect id="Rect치ngulo_326408" data-name="Rect치ngulo 326408" width="1.551" height="1.545" transform="translate(26.667 45.789)" fill="#080808"/>
        <path id="Trazado_618163" data-name="Trazado 618163" d="M18.7,37.477V42.25H37c-.011.01.017-.009.036-.035a.163.163,0,0,0,.034-.086c0-1.54,0-3.08,0-4.652Z" transform="translate(-13.665 -27.389)" fill="#afc96a"/>
        <path id="Trazado_618164" data-name="Trazado 618164" d="M38.437,45.019V43.475h-1.78c-.052.475-.006.993-.026,1.544Z" transform="translate(-26.771 -31.773)" fill="#0e130a"/>
        <path id="Trazado_618165" data-name="Trazado 618165" d="M26.2,45.017V43.47H24.629c-.085.477,0,1-.048,1.547Z" transform="translate(-17.965 -31.769)" fill="#050506"/>
        <path id="Trazado_618166" data-name="Trazado 618166" d="M49.471,43.473v1.545h1.578c.051-.476.006-.994.026-1.545Z" transform="translate(-36.155 -31.772)" fill="#050606"/>
        <path id="Trazado_618167" data-name="Trazado 618167" d="M62.3,44.931h1.548V43.356c-.476-.052-1-.006-1.548-.026Z" transform="translate(-45.529 -31.667)" fill="#060806"/>
        <path id="Trazado_618168" data-name="Trazado 618168" d="M74.244,43.472v1.546H75.81c.086-.476,0-1,.049-1.546Z" transform="translate(-54.26 -31.771)" fill="#050606"/>
      </g>
    </g>
  </g>
</svg>
