<svg xmlns="http://www.w3.org/2000/svg" xmlns:xlink="http://www.w3.org/1999/xlink" width="107" height="107" viewBox="0 0 107 107">
  <defs>
    <filter id="Elipse_5189" x="0" y="0" width="107" height="107" filterUnits="userSpaceOnUse">
      <feOffset dy="3" input="SourceAlpha"/>
      <feGaussianBlur stdDeviation="3" result="blur"/>
      <feFlood flood-opacity="0.161"/>
      <feComposite operator="in" in2="blur"/>
      <feComposite in="SourceGraphic"/>
    </filter>
    <clipPath id="clip-path">
      <rect id="Rectángulo_326411" data-name="Rectángulo 326411" width="49.692" height="49.726" fill="none"/>
    </clipPath>
  </defs>
  <g id="Grupo_878177" data-name="Grupo 878177" transform="translate(-303 -7896)">
    <g transform="matrix(1, 0, 0, 1, 303, 7896)" filter="url(#Elipse_5189)">
      <circle id="Elipse_5189-2" data-name="Elipse 5189" cx="44.5" cy="44.5" r="44.5" transform="translate(9 6)" fill="#a3314f"/>
    </g>
    <g id="Grupo_877650" data-name="Grupo 877650" transform="translate(332 7922)">
      <g id="Grupo_877649" data-name="Grupo 877649" clip-path="url(#clip-path)">
        <path id="Trazado_618191" data-name="Trazado 618191" d="M32.81,18.076l7.559-7.555c2.065,0,4.131.009,6.2,0a2.943,2.943,0,0,0,2.75-1.753A3.209,3.209,0,0,0,47.84,4.382c-.17-.095-.325.006-.533-.123a8.045,8.045,0,0,1-.359-.965,3.284,3.284,0,0,0-.927-1.516c-.14-.143-.286-.28-.424-.425A4.808,4.808,0,0,0,41.606.125c-.554.35-1.287.313-1.781.759A6.666,6.666,0,0,0,38.1,2.864c-.2.43-.287.942-.484,1.433-.794,0-1.217.61-1.718,1.1a2.7,2.7,0,0,0-.607,1.443,3.144,3.144,0,0,0,.182,1.711A4.007,4.007,0,0,0,36.551,9.9c.412.43,1.05.375,1.431.652l-6.354,6.351a3.09,3.09,0,0,1-1.063-.631A8.352,8.352,0,0,0,26.5,14.717c-.281-.024-.456-.4-.815-.131V11.32c.761,0,1.521-.034,2.276.007a2.562,2.562,0,0,0,2.515-2.483c-.044-2.165-.021-4.331-.006-6.5a1.507,1.507,0,0,0-.485-1.2C29.608.8,29.33.329,28.8.125c-2.5,0-4.991.014-7.486-.018a1.172,1.172,0,0,0-.7.24,5.058,5.058,0,0,0-1.126,1.107,1.546,1.546,0,0,0-.231.9c.021,2.4.011,4.8.011,7.2a7.434,7.434,0,0,0,.505.8,2.508,2.508,0,0,0,2.306.986,17.907,17.907,0,0,1,1.942-.013v3.146c-1.877.644-1.276-.306-5.942,2.426l-3.752-3.751c3.181-4.34,1.767-8.935-1.3-11.282C9.559-.8,5.81-.521,2.816,2.142-.7,5.264-.774,9.531,1.754,13.072a7.58,7.58,0,0,0,3.451,2.5A8.948,8.948,0,0,0,9.32,16a10.291,10.291,0,0,0,3.8-1.623l3.746,3.744c0,.452-.432.767-.685,1.132a16.691,16.691,0,0,0-1.255,2.486c-.137.292.111.682-.261.892a2.924,2.924,0,0,1-.28,1.443H11.28c-.03-.473-.006-.995-.011-1.514,0-.5,0-1,0-1.5-.193-.211-.261-.492-.452-.716a2.74,2.74,0,0,0-2.379-1.057c-2.2.085-4.4.026-6.6.026a6.932,6.932,0,0,0-.8.5,2.705,2.705,0,0,0-1,2.3c.069,2.229.022,4.462.022,6.681a4.661,4.661,0,0,0,1.708,1.706c2.347,0,4.713-.016,7.077.015.407.006.713-.326,1.1-.2l1.03-1.03c.5-1.179.176-2.373.32-3.556h3.126c.17.77.3,1.574.532,2.35a9.238,9.238,0,0,0,1.489,2.875c.176.236.155.563.393.643l-5.415,5.413,1.259,1.259,5.37-5.368c.438.032.746.4,1.1.624A7.959,7.959,0,0,0,23.213,35.1c.284.043.454.424.855.1v3.3c-.866,0-1.722.017-2.578-.007a1.479,1.479,0,0,0-1.2.486c-.348.381-.82.66-1.022,1.188,0,2.495.014,4.989-.019,7.483a1.175,1.175,0,0,0,.242.7,4.987,4.987,0,0,0,1.11,1.122,1.368,1.368,0,0,0,.8.237q3.349-.045,6.7,0c.409.006.709-.291,1.1-.25l1-1a7.181,7.181,0,0,0,.255-2.871c.018-1.8.005-3.6.005-5.379a4.658,4.658,0,0,0-1.7-1.7H25.684c-.035-.513-.01-1.033-.014-1.551s0-1.057,0-1.575a31.1,31.1,0,0,0,3.18-.866,25.5,25.5,0,0,0,2.75-1.6L35.585,36.9a.538.538,0,0,1-.619.194,13.769,13.769,0,0,0-1.111,1.219,1.64,1.64,0,0,0-.186.924q0,4.348,0,8.7a7.783,7.783,0,0,0,.506.8,2.739,2.739,0,0,0,2.3.994c3.132-.058,6.266-.018,9.4-.024a6.19,6.19,0,0,0,2.553-.261l.958-.958a5.7,5.7,0,0,0,.277-2.466c0-2.265-.013-4.531.012-6.8a1.729,1.729,0,0,0-.566-1.37,2.962,2.962,0,0,0-1.3-.93H38.084L32.871,31.71c.023-.426.4-.731.622-1.087a8.112,8.112,0,0,0,1.579-4.05c.046-.273.261-.5.22-.83h3.176c0,.833.016,1.688-.006,2.543a1.511,1.511,0,0,0,.482,1.2,3.54,3.54,0,0,0,1.365,1.023c2.253,0,4.682-.01,7.11.011.34,0,.574-.317.937-.2l1.094-1.165a5.358,5.358,0,0,0,.217-2.27q.006-2.9,0-5.8a6.87,6.87,0,0,0-.5-.8,2.708,2.708,0,0,0-2.3-1c-2.23.069-4.464.022-6.685.022a4.711,4.711,0,0,0-1.732,1.75v3.028h-3.1c-.353-1.04-.408-2.143-.86-3.153a28.4,28.4,0,0,0-1.671-2.866" transform="translate(0 0)" fill="#040506"/>
        <path id="Trazado_618192" data-name="Trazado 618192" d="M.6,146.944l1.1,1.039h.26a7.147,7.147,0,0,1,9.922.023c.622,0,.8-.644,1.3-.951a5.606,5.606,0,0,0-2.2-1.653,8.1,8.1,0,0,0-2.631-.885,11.742,11.742,0,0,0-2.812-.057,14.552,14.552,0,0,0-2.626.9A15.278,15.278,0,0,0,.6,146.944" transform="translate(-0.441 -105.882)" fill="#060707"/>
        <path id="Trazado_618193" data-name="Trazado 618193" d="M15.282,169.917a2.556,2.556,0,0,0,.882,2.648,2.312,2.312,0,0,0,2.536.29,2.725,2.725,0,0,0,1.279-2.925,4.457,4.457,0,0,0-1.546-1.566,2.649,2.649,0,0,0-3.15,1.553" transform="translate(-11.15 -123.387)" fill="#060607"/>
        <path id="Trazado_618194" data-name="Trazado 618194" d="M9.914,158.081l.958.953a4.572,4.572,0,0,1,3.022-1.12,4.032,4.032,0,0,1,2.689,1.147l.963-.964a.628.628,0,0,0-.289-.566,5.893,5.893,0,0,0-1.879-1.008,8.168,8.168,0,0,0-1.915-.218,6.122,6.122,0,0,0-3.134,1.118c-.227.169-.49.365-.415.658" transform="translate(-7.26 -114.606)" fill="#070809"/>
        <path id="Trazado_618195" data-name="Trazado 618195" d="M132.232,153.539l.505.487a.672.672,0,0,0,.08.008h11.732l.468-.643v-8.468l-.462-.462H132.726l-.494.472Z" transform="translate(-96.963 -105.931)" fill="#efc5a5"/>
        <path id="Trazado_618196" data-name="Trazado 618196" d="M18.527,16.029a7.709,7.709,0,0,0,.9-2.7,5.28,5.28,0,0,0-.285-2.477,6.923,6.923,0,0,0-1.47-2.477A6.578,6.578,0,0,0,16.147,7.24a5.871,5.871,0,0,0-3.648-.82A7.157,7.157,0,0,0,9,7.882a9,9,0,0,0-2.157,3.04c-.184,3.618-.087,3.494.694,5.071a5.711,5.711,0,0,1,3.06-2.659,3.217,3.217,0,1,1,4.818-.008,5.674,5.674,0,0,1,3.108,2.7" transform="translate(-4.961 -4.682)" fill="#dfe4e9"/>
        <path id="Trazado_618197" data-name="Trazado 618197" d="M140.564,10.434c-1.057-.092-1.979-.034-2.415,1.25a1.668,1.668,0,0,0,1.207,1.935c2.659,0,5.421,0,8.182,0a1.58,1.58,0,0,0,1.814-1.806c0-.1,0-.2,0-.183a1.727,1.727,0,0,0-2.067-1.193,1.7,1.7,0,0,0-1.171,1.552h-1.526a2.262,2.262,0,0,1,.37-1.561,3.725,3.725,0,0,1,1.732-1.443c.119-.18.038-.382.062-.573A3.528,3.528,0,0,0,144.52,6.5a2.816,2.816,0,0,0-1.612.046,3.4,3.4,0,0,0-2.344,3.887" transform="translate(-101.283 -4.697)" fill="#dfe4e9"/>
        <path id="Trazado_618198" data-name="Trazado 618198" d="M22.5,39.565a4.773,4.773,0,0,0-8.872-.013c2.93,2.333,5.857,2.363,8.872.013" transform="translate(-9.99 -26.8)" fill="#ea695c"/>
        <path id="Trazado_618199" data-name="Trazado 618199" d="M80.919,81.664h6.517a23.3,23.3,0,0,0-.442-3.146H81.437a29.821,29.821,0,0,0-.518,3.146" transform="translate(-59.336 -57.576)" fill="#5ec1e5"/>
        <path id="Trazado_618200" data-name="Trazado 618200" d="M87.181,99.571a9.735,9.735,0,0,0,.278-1.537,8.044,8.044,0,0,0,.158-1.533.291.291,0,0,0-.052-.057.158.158,0,0,0-.084-.035q-3.093,0-6.176,0a3.136,3.136,0,0,0,.113,1.626c.086.5-.112,1.043.338,1.537Z" transform="translate(-59.562 -70.694)" fill="#5ec1e5"/>
        <path id="Trazado_618201" data-name="Trazado 618201" d="M150.3,90.53v1.536h7.944c.1-.474-.009-.992.057-1.536Z" transform="translate(-110.211 -66.384)" fill="#ffcd58"/>
        <path id="Trazado_618202" data-name="Trazado 618202" d="M86.21,164.019v-1.537H78.251c-.053.477-.008.992-.027,1.537Z" transform="translate(-57.36 -119.145)" fill="#ffcd58"/>
        <path id="Trazado_618203" data-name="Trazado 618203" d="M6.323,90.533v1.535h7.943c.1-.473-.009-.991.059-1.535Z" transform="translate(-4.637 -66.386)" fill="#ffcd58"/>
        <path id="Trazado_618204" data-name="Trazado 618204" d="M78.309,18.579v1.535h7.943c.1-.473-.009-.991.059-1.535Z" transform="translate(-57.422 -13.624)" fill="#ffcd58"/>
        <path id="Trazado_618205" data-name="Trazado 618205" d="M78.75,150.373l-.5.5v.994a71.414,71.414,0,0,0,7.965.071v-1.094l-.468-.469h-7" transform="translate(-57.381 -110.266)" fill="#ffcd58"/>
        <path id="Trazado_618206" data-name="Trazado 618206" d="M13.845,103.91l.5-.5v-.994a71.544,71.544,0,0,0-7.965-.071v1.094l.468.469h7" transform="translate(-4.677 -74.998)" fill="#ffcd58"/>
        <path id="Trazado_618207" data-name="Trazado 618207" d="M150.991,104.092h6.886l.464-.593v-.974h-7.935v1.126l.585.441" transform="translate(-110.29 -75.18)" fill="#ffcd58"/>
        <path id="Trazado_618208" data-name="Trazado 618208" d="M6.762,78.42l-.5.5v.991a71,71,0,0,0,7.965.072v-1.1l-.467-.467h-7" transform="translate(-4.595 -57.504)" fill="#ffcd58"/>
        <path id="Trazado_618209" data-name="Trazado 618209" d="M158.275,78.891l-.462-.462H150.8l-.462.5v1.078h7.935Z" transform="translate(-110.241 -57.51)" fill="#ffcd58"/>
        <path id="Trazado_618210" data-name="Trazado 618210" d="M85.833,31.956l.5-.5v-.993a71.116,71.116,0,0,0-7.965-.072v1.1l.467.468h7" transform="translate(-57.464 -22.235)" fill="#ffcd58"/>
        <path id="Trazado_618211" data-name="Trazado 618211" d="M85.831,175.863l.5-.5v-.993a71.239,71.239,0,0,0-7.965-.071v1.1l.468.468h7" transform="translate(-57.463 -127.759)" fill="#ffcd58"/>
        <path id="Trazado_618212" data-name="Trazado 618212" d="M78.749,6.465l-.5.5v.995a71.514,71.514,0,0,0,7.965.07V6.934l-.469-.469h-7" transform="translate(-57.381 -4.741)" fill="#ffcd58"/>
        <path id="Trazado_618213" data-name="Trazado 618213" d="M109.831,99.578h3.329a9.559,9.559,0,0,0,1.065-3.154c-1.324-.054-2.633-.009-3.954-.027-.194.53.027,1.081-.234,1.617-.209.429.106,1.023-.206,1.564" transform="translate(-80.537 -70.686)" fill="#5ec1e5"/>
        <path id="Trazado_618214" data-name="Trazado 618214" d="M61.27,99.684H64.54l-.363-3.129H60.23a9.131,9.131,0,0,0,1.04,3.129" transform="translate(-44.165 -70.802)" fill="#5ec1e5"/>
        <path id="Trazado_618215" data-name="Trazado 618215" d="M60.242,81.657h3.942c.123-1.056.243-2.085.366-3.136H61.278a9.015,9.015,0,0,0-1.036,3.136" transform="translate(-44.174 -57.578)" fill="#5ec1e5"/>
        <path id="Trazado_618216" data-name="Trazado 618216" d="M110.092,78.544c.122,1.055.241,2.086.361,3.124h3.938a9.363,9.363,0,0,0-1.024-3.124Z" transform="translate(-80.728 -57.595)" fill="#5ec1e5"/>
        <path id="Trazado_618217" data-name="Trazado 618217" d="M84.42,63.558H89.1a9.208,9.208,0,0,0-.915-2.127,2.267,2.267,0,0,0-.769-.84,1.089,1.089,0,0,0-1.393.063,2.456,2.456,0,0,0-.728.887,11.659,11.659,0,0,0-.874,2.017" transform="translate(-61.904 -44.267)" fill="#5ec0e5"/>
        <path id="Trazado_618218" data-name="Trazado 618218" d="M89.194,114.5H84.515a9.291,9.291,0,0,0,.915,2.126,2.278,2.278,0,0,0,.769.841,1.089,1.089,0,0,0,1.393-.063,2.458,2.458,0,0,0,.728-.887,11.6,11.6,0,0,0,.874-2.017" transform="translate(-61.973 -83.957)" fill="#5ec0e5"/>
        <path id="Trazado_618219" data-name="Trazado 618219" d="M25.472,18.311a1.64,1.64,0,0,0-.158,3.169,1.706,1.706,0,0,0,2.131-1.224,1.639,1.639,0,0,0-1.973-1.946" transform="translate(-17.754 -13.407)" fill="#ecc2a3"/>
        <path id="Trazado_618220" data-name="Trazado 618220" d="M68.411,65.328c.089.068.115.1.14.1.8,0,1.6,0,2.426,0a9,9,0,0,1,1.029-2.542,7.286,7.286,0,0,0-3.6,2.435" transform="translate(-50.164 -46.118)" fill="#5cbee1"/>
        <path id="Trazado_618221" data-name="Trazado 618221" d="M108.211,65.151a8.47,8.47,0,0,0-3.675-2.6,10.539,10.539,0,0,1,1.022,2.6Z" transform="translate(-76.654 -45.87)" fill="#5cbee1"/>
        <path id="Trazado_618222" data-name="Trazado 618222" d="M68.172,114.528a8.415,8.415,0,0,0,3.671,2.6,10.668,10.668,0,0,1-1.02-2.6Z" transform="translate(-49.989 -83.981)" fill="#5cbee1"/>
        <path id="Trazado_618223" data-name="Trazado 618223" d="M105.664,114.328a9.273,9.273,0,0,1-1,2.544,7.178,7.178,0,0,0,3.6-2.439,21.272,21.272,0,0,0-2.6-.1" transform="translate(-76.748 -83.834)" fill="#5cbee1"/>
        <path id="Trazado_618224" data-name="Trazado 618224" d="M21.79,175.968h.586l.463-.578v-.549l-.567-.468h-.517l-.494.494v.611l.53.49" transform="translate(-15.59 -127.864)" fill="#e46458"/>
        <path id="Trazado_618225" data-name="Trazado 618225" d="M147.811,156.823v-1.54h-1.58v-3.2h-1.6v3.154h-1.566v-1.53h-1.611v1.506h-1.61V150.5H138.3c.021-.018-.008,0-.027.025a.155.155,0,0,0-.037.083c0,2.061,0,4.121,0,6.216Z" transform="translate(-101.362 -110.353)" fill="#040506"/>
      </g>
    </g>
  </g>
</svg>
